<?xml version="1.0" encoding="UTF-8"?>
<svg width="22px" height="24px" viewBox="0 0 22 24" version="1.1" xmlns="http://www.w3.org/2000/svg" xmlns:xlink="http://www.w3.org/1999/xlink">
    <!-- Generator: Sketch 52.5 (67469) - http://www.bohemiancoding.com/sketch -->
    <title>Icon/Managment Inactive</title>
    <desc>Created with Sketch.</desc>
    <defs>
        <path d="M18.1875,7.5 L10.3125,7.5 C10.003125,7.5 9.75,7.246875 9.75,6.9375 L9.75,6.5625 C9.75,6.253125 10.003125,6 10.3125,6 L18.1875,6 C18.496875,6 18.75,6.253125 18.75,6.5625 L18.75,6.9375 C18.75,7.246875 18.496875,7.5 18.1875,7.5 Z M18.75,9.9375 L18.75,9.5625 C18.75,9.253125 18.496875,9 18.1875,9 L10.3125,9 C10.003125,9 9.75,9.253125 9.75,9.5625 L9.75,9.9375 C9.75,10.246875 10.003125,10.5 10.3125,10.5 L18.1875,10.5 C18.496875,10.5 18.75,10.246875 18.75,9.9375 Z M21.7828125,22.5 L21.9375,22.5 C22.246875,22.5 22.5,22.753125 22.5,23.0625 L22.5,23.4375 C22.5,23.746875 22.246875,24 21.9375,24 L5.25,24 C3.178125,24 1.5,22.321875 1.5,20.25 L1.5,3.75 C1.5,1.678125 3.178125,0 5.25,0 L21.375,0 C21.9984375,0 22.5,0.5015625 22.5,1.125 L22.5,18.375 C22.5,18.84375 22.209375,19.246875 21.8015625,19.415625 C21.6328125,20.1703125 21.5953125,21.553125 21.7828125,22.5 Z M7.5,18 L21,18 L21,1.5 L7.5,1.5 L7.5,18 Z M3,18.75 C3.628125,18.28125 4.40625,18 5.25,18 L6,18 L6,1.5 L5.25,1.5 C4.0078125,1.5 3,2.5078125 3,3.75 L3,18.75 Z M20.4515625,22.5 C20.30625,21.54375 20.315625,20.38125 20.4515625,19.5 L5.25,19.5 C2.25,19.5 2.25,22.5 5.25,22.5 L20.4515625,22.5 Z" id="path-1"></path>
    </defs>
    <g id="Wireframe-Kit" stroke="none" stroke-width="1" fill="none" fill-rule="evenodd">
        <g id="Styleguide" transform="translate(-44.000000, -3630.000000)">
            <g id="Icon/Create/V2/Management" transform="translate(43.000000, 3630.000000)">
                <mask id="mask-2" fill="white">
                    <use xlink:href="#path-1"></use>
                </mask>
                <use id="Shape" fill="#000000" fill-rule="nonzero" xlink:href="#path-1"></use>
                <g id="Palette/Black" mask="url(#mask-2)" fill="#000000" fill-rule="evenodd">
                    <rect id="Rectangle-5" x="0" y="0" width="24" height="24"></rect>
                </g>
            </g>
        </g>
    </g>
</svg>