<?xml version="1.0" encoding="UTF-8"?>
<svg width="12px" height="15px" viewBox="0 0 12 15" version="1.1" xmlns="http://www.w3.org/2000/svg" xmlns:xlink="http://www.w3.org/1999/xlink">
    <!-- Generator: Sketch 52.5 (67469) - http://www.bohemiancoding.com/sketch -->
    <title>icon/rup/iactions</title>
    <desc>Created with Sketch.</desc>
    <g id="Wireframe-Kit" stroke="none" stroke-width="1" fill="none" fill-rule="evenodd">
        <g id="Styleguide" transform="translate(-180.000000, -3429.000000)">
            <g id="icon/rup/iactions" transform="translate(174.000000, 3424.000000)">
                <g id="Shape">
                    <polygon points="0 0 24 0 24 24 0 24"></polygon>
                    <path d="M11,5 L11,10.59 L7.5,10.59 L12,15.09 L16.5,10.59 L13,10.59 L13,5 L11,5 Z M6,14 C6,17.31 8.69,20 12,20 C15.31,20 18,17.31 18,14 L16,14 C16,16.21 14.21,18 12,18 C9.79,18 8,16.21 8,14 L6,14 Z" fill="#000000" fill-rule="nonzero"></path>
                </g>
            </g>
        </g>
    </g>
</svg>