<?xml version="1.0" encoding="UTF-8"?>
<svg width="24px" height="16px" viewBox="0 0 24 16" version="1.1" xmlns="http://www.w3.org/2000/svg" xmlns:xlink="http://www.w3.org/1999/xlink">
    <!-- Generator: Sketch 52.5 (67469) - http://www.bohemiancoding.com/sketch -->
    <title>Icon/Pastures Inactive</title>
    <desc>Created with Sketch.</desc>
    <defs>
        <path d="M3.75150357,9 C5.20125357,9 6.37650357,7.82475 6.37650357,6.375 C6.37650357,4.92525 5.20125357,3.75 3.75150357,3.75 C2.30175357,3.75 1.12650357,4.92525 1.12650357,6.375 C1.12650357,7.82475 2.30175357,9 3.75150357,9 Z M3.75150357,5.25 C4.37184732,5.25 4.87650357,5.75465625 4.87650357,6.375 C4.87650357,6.99534375 4.37184732,7.5 3.75150357,7.5 C3.13115982,7.5 2.62650357,6.99534375 2.62650357,6.375 C2.62650357,5.75465625 3.13115982,5.25 3.75150357,5.25 Z M10.0426881,11.982028 L11.7803301,13.7196699 C12.0732233,14.0125631 12.0732233,14.4874369 11.7803301,14.7803301 C11.4874369,15.0732233 11.0125631,15.0732233 10.7196699,14.7803301 L6.96966991,11.0303301 L6.75,10.8106602 L1.28033009,16.2803301 C0.987436867,16.5732233 0.512563133,16.5732233 0.219669914,16.2803301 C-0.0732233047,15.9874369 -0.0732233047,15.5125631 0.219669914,15.2196699 L6.21966991,9.21966991 C6.51256313,8.9267767 6.98743687,8.9267767 7.28033009,9.21966991 L8.98139755,10.9207374 L13.7017085,5.86326131 C14.0137926,5.52888551 14.5499237,5.5493188 14.8356516,5.90647871 L23.8356516,15.2814787 C24.0944088,15.6049252 24.0419677,16.0768944 23.7185213,16.3356516 C23.3950748,16.5944088 22.9231056,16.5419677 22.6643484,16.2185213 L14.2063235,7.52099011 L10.0426881,11.982028 Z M6,18.75 C5.58578644,18.75 5.25,18.4142136 5.25,18 C5.25,17.5857864 5.58578644,17.25 6,17.25 L16.5,17.25 C16.9142136,17.25 17.25,17.5857864 17.25,18 C17.25,18.4142136 16.9142136,18.75 16.5,18.75 L6,18.75 Z" id="path-1"></path>
    </defs>
    <g id="Wireframe-Kit" stroke="none" stroke-width="1" fill="none" fill-rule="evenodd">
        <g id="Styleguide" transform="translate(-41.000000, -3463.000000)">
            <g id="Icon/Create/V2/Pastures" transform="translate(41.000000, 3460.000000)">
                <mask id="mask-2" fill="white">
                    <use xlink:href="#path-1"></use>
                </mask>
                <use id="Shape" fill="#000000" fill-rule="nonzero" xlink:href="#path-1"></use>
                <g id="Palette/Black" mask="url(#mask-2)" fill="#000000" fill-rule="evenodd">
                    <rect id="Rectangle-5" x="0" y="0" width="24" height="24"></rect>
                </g>
            </g>
        </g>
    </g>
</svg>