<?xml version="1.0" encoding="UTF-8"?>
<svg width="18px" height="24px" viewBox="0 0 18 24" version="1.1" xmlns="http://www.w3.org/2000/svg" xmlns:xlink="http://www.w3.org/1999/xlink">
    <!-- Generator: Sketch 52.5 (67469) - http://www.bohemiancoding.com/sketch -->
    <title>Icon/Additional Reqs Inactive</title>
    <desc>Created with Sketch.</desc>
    <defs>
        <path d="M20.3409844,4.59098437 L16.4090156,0.659015625 C15.9870609,0.237058087 15.4147687,4.64952342e-06 14.8180312,-3.79765779e-08 L5.24999996,-3.79765779e-08 C4.00734371,-3.79762981e-08 2.99999996,1.00734371 2.99999996,2.24999996 L2.99999996,21.75 C2.99999996,22.9926562 4.00734371,24 5.24999996,24 L18.75,24 C19.9926562,24 21,22.9926562 21,21.75 L21,6.18196871 L21,6.18198048 C21,5.58524298 20.7629479,5.01295079 20.3409937,4.59099141 L20.3409844,4.59098437 Z M19.2803438,5.65167187 C19.3764244,5.74767987 19.4444236,5.86813316 19.4769844,6.00000003 L15,6.00000003 L15,1.52301566 C15.1318759,1.55555409 15.2523348,1.62355645 15.3483282,1.71965629 L19.2803438,5.65167192 Z M18.75,22.5 L5.25,22.5 C4.83576562,22.5 4.5,22.1642344 4.5,21.75 L4.5,2.25 C4.5,1.83576563 4.83576562,1.5 5.25,1.5 L13.5,1.5 L13.5,6.375 C13.5,6.99632812 14.0036719,7.5 14.625,7.5 L19.5,7.5 L19.5,21.75 C19.5,22.1642344 19.1642344,22.5 18.75,22.5 Z M17.1343594,12.6117656 L10.8160312,18.8794219 C10.5957187,19.098 10.2400312,19.0970156 10.0208906,18.8772656 L6.86348437,15.7107656 C6.64396875,15.4905937 6.64448437,15.1341562 6.86460937,14.9145937 L7.26328125,14.5170937 C7.48345312,14.2975781 7.83989062,14.2980937 8.05940625,14.5182187 L10.423875,16.8894844 L15.9449062,11.41275 C16.1656406,11.1937969 16.5220781,11.1952031 16.7410781,11.4159375 L17.1375469,11.8156406 C17.3565469,12.036375 17.3550937,12.3928125 17.1343594,12.6117656 Z" id="path-1"></path>
    </defs>
    <g id="Wireframe-Kit" stroke="none" stroke-width="1" fill="none" fill-rule="evenodd">
        <g id="Styleguide" transform="translate(-46.000000, -3596.000000)">
            <g id="Icon/Create/V2/Additional-Reqs" transform="translate(43.000000, 3596.000000)">
                <mask id="mask-2" fill="white">
                    <use xlink:href="#path-1"></use>
                </mask>
                <use id="Shape" fill="#000000" fill-rule="nonzero" xlink:href="#path-1"></use>
                <g id="Palette/Black" mask="url(#mask-2)" fill="#000000" fill-rule="evenodd">
                    <rect id="Rectangle-5" x="0" y="0" width="24" height="24"></rect>
                </g>
            </g>
        </g>
    </g>
</svg>