<?xml version="1.0" encoding="UTF-8"?>
<svg width="24px" height="24px" viewBox="0 0 24 24" version="1.1" xmlns="http://www.w3.org/2000/svg" xmlns:xlink="http://www.w3.org/1999/xlink">
    <!-- Generator: Sketch 52.5 (67469) - http://www.bohemiancoding.com/sketch -->
    <title>Icon/Basic Information Inactive</title>
    <desc>Created with Sketch.</desc>
    <defs>
        <path d="M12,2.2016129 C17.3809929,2.2016129 21.7983871,6.55985383 21.7983871,12 C21.7983871,17.4113861 17.415877,21.7983871 12,21.7983871 C6.59074597,21.7983871 2.2016129,17.4180544 2.2016129,12 C2.2016129,6.59260585 6.58376008,2.2016129 12,2.2016129 Z M12,0.75 C5.78723286,0.75 0.75,5.78904738 0.75,12 C0.75,18.2145817 5.78723286,23.25 12,23.25 C18.2127671,23.25 23.25,18.2145817 23.25,12 C23.25,5.78904738 18.2127671,0.75 12,0.75 Z M10.3669355,16.3548387 L10.9112903,16.3548387 L10.9112903,10.9112903 L10.3669355,10.9112903 C10.0663155,10.9112903 9.82258065,10.6675554 9.82258065,10.3669355 L9.82258065,10.0040323 C9.82258065,9.7034123 10.0663155,9.45967742 10.3669355,9.45967742 L12.5443548,9.45967742 C12.8449748,9.45967742 13.0887097,9.7034123 13.0887097,10.0040323 L13.0887097,16.3548387 L13.6330645,16.3548387 C13.9336845,16.3548387 14.1774194,16.5985736 14.1774194,16.8991935 L14.1774194,17.2620968 C14.1774194,17.5627167 13.9336845,17.8064516 13.6330645,17.8064516 L10.3669355,17.8064516 C10.0663155,17.8064516 9.82258065,17.5627167 9.82258065,17.2620968 L9.82258065,16.8991935 C9.82258065,16.5985736 10.0663155,16.3548387 10.3669355,16.3548387 Z M12,5.46774194 C11.1983014,5.46774194 10.5483871,6.11765625 10.5483871,6.91935484 C10.5483871,7.72105343 11.1983014,8.37096774 12,8.37096774 C12.8016986,8.37096774 13.4516129,7.72105343 13.4516129,6.91935484 C13.4516129,6.11765625 12.8016986,5.46774194 12,5.46774194 Z" id="path-1"></path>
    </defs>
    <g id="Wireframe-Kit" stroke="none" stroke-width="1" fill="none" fill-rule="evenodd">
        <g id="Styleguide" transform="translate(-41.000000, -3426.000000)">
            <g id="Icon/Create/V2/Basic-Information" transform="translate(41.000000, 3426.000000)">
                <mask id="mask-2" fill="white">
                    <use xlink:href="#path-1"></use>
                </mask>
                <use id="Shape" fill="#000000" fill-rule="nonzero" xlink:href="#path-1"></use>
                <g id="Palette/Black" mask="url(#mask-2)" fill="#000000" fill-rule="evenodd">
                    <rect id="Rectangle-5" x="0" y="0" width="24" height="24"></rect>
                </g>
            </g>
        </g>
    </g>
</svg>