<?xml version="1.0" encoding="UTF-8"?>
<svg width="22px" height="24px" viewBox="0 0 22 24" version="1.1" xmlns="http://www.w3.org/2000/svg" xmlns:xlink="http://www.w3.org/1999/xlink">
    <!-- Generator: Sketch 52.5 (67469) - http://www.bohemiancoding.com/sketch -->
    <title>Icon/Schedule Inactive</title>
    <desc>Created with Sketch.</desc>
    <defs>
        <path d="M20.25,3 L18,3 L18,0.5625 C18,0.253125 17.746875,0 17.4375,0 L17.0625,0 C16.753125,0 16.5,0.253125 16.5,0.5625 L16.5,3 L7.5,3 L7.5,0.5625 C7.5,0.253125 7.246875,0 6.9375,0 L6.5625,0 C6.253125,0 6,0.253125 6,0.5625 L6,3 L3.75,3 C2.5078125,3 1.5,4.0078125 1.5,5.25 L1.5,21.75 C1.5,22.9921875 2.5078125,24 3.75,24 L20.25,24 C21.4921875,24 22.5,22.9921875 22.5,21.75 L22.5,5.25 C22.5,4.0078125 21.4921875,3 20.25,3 Z M3.75,4.5 L20.25,4.5 C20.6625,4.5 21,4.8375 21,5.25 L21,7.5 L3,7.5 L3,5.25 C3,4.8375 3.3375,4.5 3.75,4.5 Z M20.25,22.5 L3.75,22.5 C3.3375,22.5 3,22.1625 3,21.75 L3,9 L21,9 L21,21.75 C21,22.1625 20.6625,22.5 20.25,22.5 Z M8.4375,15 L6.5625,15 C6.253125,15 6,14.746875 6,14.4375 L6,12.5625 C6,12.253125 6.253125,12 6.5625,12 L8.4375,12 C8.746875,12 9,12.253125 9,12.5625 L9,14.4375 C9,14.746875 8.746875,15 8.4375,15 Z M12.9375,15 L11.0625,15 C10.753125,15 10.5,14.746875 10.5,14.4375 L10.5,12.5625 C10.5,12.253125 10.753125,12 11.0625,12 L12.9375,12 C13.246875,12 13.5,12.253125 13.5,12.5625 L13.5,14.4375 C13.5,14.746875 13.246875,15 12.9375,15 Z M17.4375,15 L15.5625,15 C15.253125,15 15,14.746875 15,14.4375 L15,12.5625 C15,12.253125 15.253125,12 15.5625,12 L17.4375,12 C17.746875,12 18,12.253125 18,12.5625 L18,14.4375 C18,14.746875 17.746875,15 17.4375,15 Z M12.9375,19.5 L11.0625,19.5 C10.753125,19.5 10.5,19.246875 10.5,18.9375 L10.5,17.0625 C10.5,16.753125 10.753125,16.5 11.0625,16.5 L12.9375,16.5 C13.246875,16.5 13.5,16.753125 13.5,17.0625 L13.5,18.9375 C13.5,19.246875 13.246875,19.5 12.9375,19.5 Z M8.4375,19.5 L6.5625,19.5 C6.253125,19.5 6,19.246875 6,18.9375 L6,17.0625 C6,16.753125 6.253125,16.5 6.5625,16.5 L8.4375,16.5 C8.746875,16.5 9,16.753125 9,17.0625 L9,18.9375 C9,19.246875 8.746875,19.5 8.4375,19.5 Z M17.4375,19.5 L15.5625,19.5 C15.253125,19.5 15,19.246875 15,18.9375 L15,17.0625 C15,16.753125 15.253125,16.5 15.5625,16.5 L17.4375,16.5 C17.746875,16.5 18,16.753125 18,17.0625 L18,18.9375 C18,19.246875 17.746875,19.5 17.4375,19.5 Z" id="path-1"></path>
    </defs>
    <g id="Wireframe-Kit" stroke="none" stroke-width="1" fill="none" fill-rule="evenodd">
        <g id="Styleguide" transform="translate(-44.000000, -3494.000000)">
            <g id="Icon/Create/V2/Schedule" transform="translate(43.000000, 3494.000000)">
                <mask id="mask-2" fill="white">
                    <use xlink:href="#path-1"></use>
                </mask>
                <use id="Shape" fill="#000000" fill-rule="nonzero" xlink:href="#path-1"></use>
                <g id="Palette/Black" mask="url(#mask-2)" fill="#000000" fill-rule="evenodd">
                    <rect id="Rectangle-5" x="0" y="0" width="24" height="24"></rect>
                </g>
            </g>
        </g>
    </g>
</svg>