<?xml version="1.0" encoding="UTF-8"?>
<svg width="24px" height="20px" viewBox="0 0 24 20" version="1.1" xmlns="http://www.w3.org/2000/svg" xmlns:xlink="http://www.w3.org/1999/xlink">
    <!-- Generator: Sketch 52.5 (67469) - http://www.bohemiancoding.com/sketch -->
    <title>Icon/Ministers Issues Inactive</title>
    <desc>Created with Sketch.</desc>
    <g id="Wireframe-Kit" stroke="none" stroke-width="1" fill="none" fill-rule="evenodd">
        <g id="Styleguide" transform="translate(-41.000000, -3530.000000)">
            <g id="Icon/Create/V2/Ministers-Issues" transform="translate(41.000000, 3528.000000)">
                <path d="" id="Path-5" stroke="#CCCCCC" fill-rule="nonzero"></path>
                <g id="User-Check" fill-rule="evenodd" transform="translate(0.000000, 2.250000)">
                    <polygon id="Path-6" fill="#000000" fill-rule="nonzero" points="12.3106602 18.4393398 8.2482591 18.6195794 1.93933983 12.3106602 5.04055926 11.1692389"></polygon>
                    <polygon id="Path-6" fill="#FFFFFF" fill-rule="nonzero" points="9.530767 18.4436796 3.0040743 11.9169869 3.95255005 11.5396374 10.8191679 18.4062553"></polygon>
                    <path d="M23.91375,5.4225 L23.385,4.89 C23.26875,4.77375 23.0775,4.77 22.96125,4.89 L18.64125,9.07875 L16.6425,7.07625 C16.52625,6.96 16.335,6.96 16.21875,7.07625 L15.68625,7.605 C15.57,7.72125 15.57,7.9125 15.68625,8.02875 L18.31875,10.66875 C18.495,10.845 18.78,10.845 18.95625,10.66875 L23.91,5.84625 C24.03,5.73 24.03,5.53875 23.91375,5.4225 Z M11.76,10.8 C10.68375,10.8 10.16625,11.4 8.4,11.4 C6.63375,11.4 6.12,10.8 5.04,10.8 C2.2575,10.8 0,13.0575 0,15.84 L0,17.4 C0,18.39375 0.80625,19.2 1.8,19.2 L15,19.2 C15.99375,19.2 16.8,18.39375 16.8,17.4 L16.8,15.84 C16.8,13.0575 14.5425,10.8 11.76,10.8 Z M15.6,17.4 C15.6,17.73 15.33,18 15,18 L1.8,18 C1.47,18 1.2,17.73 1.2,17.4 L1.2,15.84 C1.2,13.72125 2.92125,12 5.04,12 C5.775,12 6.50625,12.6 8.4,12.6 C10.29,12.6 11.025,12 11.76,12 C13.87875,12 15.6,13.72125 15.6,15.84 L15.6,17.4 Z M8.4,9.6 C11.05125,9.6 13.2,7.45125 13.2,4.8 C13.2,2.14875 11.05125,0 8.4,0 C5.74875,0 3.6,2.14875 3.6,4.8 C3.6,7.45125 5.74875,9.6 8.4,9.6 Z M8.4,1.2 C10.38375,1.2 12,2.81625 12,4.8 C12,6.78375 10.38375,8.4 8.4,8.4 C6.41625,8.4 4.8,6.78375 4.8,4.8 C4.8,2.81625 6.41625,1.2 8.4,1.2 Z" id="Shape" fill="#000000" fill-rule="nonzero"></path>
                </g>
            </g>
        </g>
    </g>
</svg>