<?xml version="1.0" encoding="UTF-8"?>
<svg width="24px" height="22px" viewBox="0 0 24 22" version="1.1" xmlns="http://www.w3.org/2000/svg" xmlns:xlink="http://www.w3.org/1999/xlink">
    <!-- Generator: Sketch 52.5 (67469) - http://www.bohemiancoding.com/sketch -->
    <title>Icon/Invasive Plants Inactive</title>
    <desc>Created with Sketch.</desc>
    <defs>
        <path d="M22.7583515,1.90416699 C23.5500188,3.67083507 24.0000192,5.83750347 24.0000192,7.92917181 C24.0000192,15.1166776 19.3958489,20.9833489 12.8500103,21.4541826 C8.07500646,21.9583497 5.58750447,18.4750136 4.94167062,17.2666793 C2.30416851,19.6625145 1.30416771,22.35835 1.29583437,22.3875167 C1.1666676,22.762517 0.76250061,22.9083505 0.44583369,22.7958504 C0.10000008,22.6708503 -0.0833334,22.2916833 0.03750003,21.9458497 C0.0833334,21.8125162 1.22083431,18.6750137 4.39167018,15.9666782 C4.14166998,15.1916776 4.0000032,14.3625103 4.0000032,13.5000096 C4.0000032,9.0833394 7.5833394,5.5000032 12.0000096,5.5000032 L15.3333456,5.5000032 C17.9750144,5.5000032 20.2875162,4.10000208 21.5791839,1.85416695 C21.716684,1.61666676 21.9416842,1.5 22.1625177,1.5 C22.4000179,1.5 22.6375181,1.63333344 22.7583515,1.90416699 Z M12.7083435,20.1291816 C18.4958481,19.7083479 22.6666848,14.5791771 22.6666848,7.92917181 C22.6666848,6.47917065 22.4250179,4.96250277 21.9875176,3.61666836 C20.3750163,5.65000332 17.9708477,6.8333376 15.3333456,6.8333376 L12.0000096,6.8333376 C8.32500666,6.8333376 5.3333376,9.82500666 5.3333376,13.5000096 C5.3333376,17.3625127 8.6666736,20.5541819 12.7083435,20.1291816 Z M15.0946875,12.7471875 L17.1571875,14.8096875 C17.2734375,14.9259375 17.2734375,15.1171875 17.1571875,15.2334375 L16.7334375,15.6571875 C16.6171875,15.7734375 16.4259375,15.7734375 16.3096875,15.6571875 L14.2471875,13.5946875 L12.1846875,15.6571875 C12.0684375,15.7734375 11.8771875,15.7734375 11.7609375,15.6571875 L11.3371875,15.2334375 C11.2209375,15.1171875 11.2209375,14.9259375 11.3371875,14.8096875 L13.3996875,12.7471875 L11.3371875,10.6846875 C11.2209375,10.5684375 11.2209375,10.3771875 11.3371875,10.2609375 L11.7609375,9.8371875 C11.8771875,9.7209375 12.0684375,9.7209375 12.1846875,9.8371875 L14.2471875,11.8996875 L16.3096875,9.8371875 C16.4259375,9.7209375 16.6171875,9.7209375 16.7334375,9.8371875 L17.1571875,10.2609375 C17.2734375,10.3771875 17.2734375,10.5684375 17.1571875,10.6846875 L15.0946875,12.7471875 Z" id="path-1"></path>
    </defs>
    <g id="Wireframe-Kit" stroke="none" stroke-width="1" fill="none" fill-rule="evenodd">
        <g id="Styleguide" transform="translate(-43.000000, -3563.000000)">
            <g id="Icon/Create/V2/Invasive-Plants" transform="translate(43.000000, 3562.000000)">
                <mask id="mask-2" fill="white">
                    <use xlink:href="#path-1"></use>
                </mask>
                <use id="Combined-Shape" fill="#000000" fill-rule="nonzero" xlink:href="#path-1"></use>
                <g id="Palette/Black" mask="url(#mask-2)" fill="#000000" fill-rule="evenodd">
                    <rect id="Rectangle-5" x="0" y="0" width="24" height="24"></rect>
                </g>
            </g>
        </g>
    </g>
</svg>