<?xml version="1.0" encoding="UTF-8"?>
<svg width="187px" height="38px" viewBox="0 0 187 38" version="1.1" xmlns="http://www.w3.org/2000/svg" xmlns:xlink="http://www.w3.org/1999/xlink">
    <!-- Generator: sketchtool 52.6 (67491) - http://www.bohemiancoding.com/sketch -->
    <title>FACB623D-5199-4A19-80FF-7A25D24E1B60</title>
    <desc>Created with sketchtool.</desc>
    <g id="RUP-Layout" stroke="none" stroke-width="1" fill="none" fill-rule="evenodd">
        <g id="MYRA-PDF---Header-Footer" transform="translate(-19.000000, -37.000000)">
            <g id="Group-12" transform="translate(20.000000, 30.000000)">
                <g id="Logo">
                    <polygon id="Line-2" fill="#F3B229" fill-rule="nonzero" points="50.8433703 8.31159598 51.8433703 8.31159598 51.8433703 43.4926357 50.8433703 43.4926357"></polygon>
                    <g id="Logo/BC/Color" transform="translate(-0.325784, 7.424051)" fill-rule="evenodd" stroke-width="1">
                        <g id="BC-Logo">
                            <path d="M6.75027978,27.9074259 C6.75027978,28.2321545 6.77003719,28.6920202 6.96060861,28.8903544 C7.15118003,29.0976811 7.45179269,29.1431431 7.75240535,29.1431431 C8.64448967,29.1431431 9.32599508,28.7824446 9.32599508,27.8806983 C9.32599508,27.1680439 8.92509483,26.3382374 7.3314976,26.3382374 C6.79029478,26.3382374 6.75027978,26.3921923 6.75027978,26.5725416 L6.75027978,27.9074259 Z M6.75027978,25.8149248 C6.75027978,26.0679633 6.76003344,26.0856985 7.27147511,26.0679633 C8.29360817,26.0309942 8.84506484,25.7607201 8.84506484,24.9129286 C8.84506484,24.0289174 8.1130405,23.6954461 7.3515051,23.6954461 C7.13092243,23.6954461 6.9806161,23.7134311 6.89033227,23.7494011 C6.79029478,23.7763785 6.75027978,23.8220903 6.75027978,23.9842048 L6.75027978,25.8149248 Z M5.92797161,24.6156771 C5.92797161,23.9479851 5.88120408,23.7708831 5.430035,23.7354127 L5.11616737,23.7134311 C5.06514825,23.6732147 5.07965369,23.4921161 5.12617112,23.4878696 C5.66737394,23.4399097 6.34912944,23.4159298 7.28122876,23.4159298 C7.91271542,23.4159298 8.51419084,23.4608922 8.96535992,23.6682189 C9.39627141,23.8575607 9.72714541,24.2182592 9.72714541,24.7960263 C9.72714541,25.4449839 9.30598758,25.7789548 8.70476226,26.0309942 C8.70476226,26.1214186 8.78504234,26.1491454 8.89533368,26.1666308 C9.4365365,26.2568055 10.238337,26.7076786 10.238337,27.6726222 C10.238337,28.7192474 9.37626391,29.4226595 7.57183768,29.4226595 C7.28122876,29.4226595 6.79029478,29.3959319 6.36913694,29.3959319 C5.92797161,29.3959319 5.58734395,29.4141666 5.21645496,29.4226595 C5.15643246,29.3959319 5.13617487,29.2515525 5.19644746,29.1970981 L5.37701513,29.1703704 C5.90796411,29.0891882 5.92797161,28.9897713 5.92797161,28.0428128 L5.92797161,24.6156771 Z" id="Fill-69" fill="#142E5C"></path>
                            <path d="M17.2049478,25.5036849 C17.2049478,24.686368 17.1879415,24.5559769 16.6827521,24.5172593 L16.4686719,24.5017722 C16.4174027,24.4710479 16.4346592,24.332164 16.4856783,24.3091832 C16.9140888,24.3244205 17.2049478,24.332164 17.5645826,24.332164 C17.907211,24.332164 18.19807,24.3244205 18.6262305,24.3091832 C18.6777498,24.332164 18.6947562,24.4710479 18.643487,24.5017722 L18.4291566,24.5172593 C17.9242174,24.5559769 17.907211,24.686368 17.907211,25.5036849 L17.907211,28.2456432 C17.907211,29.0627104 17.9242174,29.1706202 18.4291566,29.2243253 L18.643487,29.2473061 C18.6947562,29.2780304 18.6777498,29.4166645 18.6262305,29.4398951 C18.19807,29.4244081 17.907211,29.4166645 17.5645826,29.4166645 C17.2049478,29.4166645 16.9140888,29.4244081 16.4856783,29.4398951 C16.4346592,29.4166645 16.4174027,29.2937673 16.4686719,29.2473061 L16.6827521,29.2243253 C17.1879415,29.1706202 17.2049478,29.0627104 17.2049478,28.2456432 L17.2049478,25.5036849" id="Fill-70" fill="#142E5C"></path>
                            <path d="M21.954978,28.2611303 C21.954978,29.0704539 21.970984,29.1856077 22.4361583,29.2243253 L22.6932547,29.2473061 C22.7410226,29.2780304 22.7252667,29.4166645 22.6769986,29.4398951 C22.2195772,29.4244081 21.9472251,29.4166645 21.6261048,29.4166645 C21.3052345,29.4166645 21.0243792,29.4244081 20.5109368,29.4398951 C20.4629188,29.4166645 20.4469128,29.2860237 20.5109368,29.2473061 L20.7997951,29.2243253 C21.2572165,29.1856077 21.2972315,29.0704539 21.2972315,28.2611303 L21.2972315,24.8172586 C21.2972315,24.5787079 21.2972315,24.5712142 21.0566413,24.5712142 L20.6152259,24.5712142 C20.2703467,24.5712142 19.8291813,24.5864515 19.6286062,24.7638033 C19.436034,24.9334115 19.3557539,25.10277 19.2677209,25.2951092 C19.2034468,25.3415704 19.0914048,25.3028527 19.0591427,25.2416539 C19.1874408,24.8946939 19.307986,24.401606 19.364007,24.0933636 C19.388016,24.0783761 19.4923051,24.0703828 19.5163141,24.0933636 C19.5645822,24.3399075 19.8291813,24.332164 20.1983197,24.332164 L23.4470372,24.332164 C23.8799494,24.332164 23.9522265,24.3166769 24.0727717,24.1165942 C24.1127867,24.1008573 24.2010698,24.1091004 24.2170758,24.1398248 C24.1290428,24.4555609 24.0727717,25.0795394 24.0967807,25.3105963 C24.0647687,25.3722947 23.9282175,25.3722947 23.8884526,25.3260833 C23.8644436,25.1332445 23.8081725,24.8484825 23.6878774,24.7638033 C23.5030582,24.6326629 23.198444,24.5712142 22.7572787,24.5712142 L22.1875652,24.5712142 C21.9472251,24.5712142 21.954978,24.5787079 21.954978,24.8329954 L21.954978,28.2611303" id="Fill-71" fill="#142E5C"></path>
                            <path d="M25.3930165,25.5036849 C25.3930165,24.686368 25.3760101,24.5559769 24.8710709,24.5172593 L24.6567405,24.5017722 C24.6054713,24.4710479 24.6227278,24.332164 24.673997,24.3091832 C25.1021575,24.3244205 25.3930165,24.332164 25.7529013,24.332164 C26.0950296,24.332164 26.3863887,24.3244205 26.8145492,24.3091832 C26.8658184,24.332164 26.8828248,24.4710479 26.8318057,24.5017722 L26.6174754,24.5172593 C26.1125361,24.5559769 26.0950296,24.686368 26.0950296,25.5036849 L26.0950296,28.2456432 C26.0950296,29.0627104 26.1125361,29.1706202 26.6174754,29.2243253 L26.8318057,29.2473061 C26.8828248,29.2780304 26.8658184,29.4166645 26.8145492,29.4398951 C26.3863887,29.4244081 26.0950296,29.4166645 25.7529013,29.4166645 C25.3930165,29.4166645 25.1021575,29.4244081 24.673997,29.4398951 C24.6227278,29.4166645 24.6054713,29.2937673 24.6567405,29.2473061 L24.8710709,29.2243253 C25.3760101,29.1706202 25.3930165,29.0627104 25.3930165,28.2456432 L25.3930165,25.5036849" id="Fill-72" fill="#142E5C"></path>
                            <path d="M29.2299544,29.519079 C28.4654179,29.519079 27.9832372,29.3184966 27.8101723,29.2343169 C27.7006313,29.0642091 27.582587,28.5174161 27.5643302,28.1552188 C27.6095972,28.1010141 27.7463984,28.0860267 27.7829121,28.132238 C27.9192132,28.5251596 28.292353,29.2795292 29.3482488,29.2795292 C30.1127853,29.2795292 30.4859251,28.8566326 30.4859251,28.394269 C30.4859251,28.0555521 30.4041445,27.677618 29.7393953,27.3156705 L28.8748213,26.8380697 C28.4196507,26.5837822 27.8917029,26.1446492 27.8917029,25.5126774 C27.8917029,24.7810388 28.5654554,24.1875349 29.7486488,24.1875349 C30.0310046,24.1875349 30.3583773,24.233996 30.594966,24.2882007 C30.7137605,24.3191749 30.8408081,24.3339125 30.9135854,24.3339125 C30.9956161,24.5190078 31.0776469,24.9506471 31.0776469,25.2741267 C31.0411332,25.3203381 30.8955786,25.3433189 30.8498115,25.2973573 C30.7317673,24.9271667 30.4859251,24.4263353 29.6120976,24.4263353 C28.7202634,24.4263353 28.5291918,24.9271667 28.5291918,25.2816205 C28.5291918,25.7287468 28.9658554,26.0522264 29.3027317,26.2295782 L30.0310046,26.6147563 C30.6042195,26.9147556 31.1684309,27.3613823 31.1684309,28.0937702 C31.1684309,28.9405625 30.4131478,29.519079 29.2299544,29.519079" id="Fill-73" fill="#142E5C"></path>
                            <path d="M33.8111713,26.9284941 C33.412772,26.9284941 33.3962658,26.9442309 33.3962658,27.175038 L33.3962658,28.2611303 C33.3962658,29.0704539 33.4377814,29.1783637 33.9024555,29.2243253 L34.1430457,29.2473061 C34.1930644,29.2780304 34.1763082,29.4166645 34.1265395,29.4398951 C33.6783715,29.4244081 33.3962658,29.4166645 33.0723944,29.4166645 C32.7155107,29.4166645 32.433405,29.4319018 32.1097837,29.4398951 C32.060015,29.4166645 32.0432588,29.2937673 32.0932775,29.2473061 L32.2340803,29.2243253 C32.6990045,29.1473896 32.7155107,29.0704539 32.7155107,28.2611303 L32.7155107,25.4881978 C32.7155107,24.6788742 32.657739,24.5484832 32.2255771,24.5172593 L32.0099963,24.5017722 C31.9602276,24.4710479 31.9769839,24.332164 32.0265025,24.3091832 C32.433405,24.3166769 32.7155107,24.332164 33.0723944,24.332164 C33.3962658,24.332164 33.6783715,24.3244205 34.0352553,24.3091832 C34.0850239,24.332164 34.1015301,24.4710479 34.0520116,24.5017722 L33.8942024,24.5172593 C33.412772,24.5634707 33.3962658,24.6788742 33.3962658,25.4881978 L33.3962658,26.3737077 C33.3962658,26.612758 33.412772,26.6202517 33.8111713,26.6202517 L36.1848109,26.6202517 C36.5834603,26.6202517 36.6004666,26.612758 36.6004666,26.3737077 L36.6004666,25.4881978 C36.6004666,24.6788742 36.5834603,24.5634707 36.0937768,24.5172593 L35.9362177,24.5017722 C35.886199,24.4710479 35.9027052,24.332164 35.9527239,24.3091832 C36.334617,24.3244205 36.6169728,24.332164 36.9568502,24.332164 C37.2807216,24.332164 37.5628273,24.3244205 37.9362172,24.3091832 C37.986236,24.332164 38.0027422,24.4710479 37.9529735,24.5017722 L37.7784081,24.5172593 C37.2974779,24.5634707 37.2807216,24.6788742 37.2807216,25.4881978 L37.2807216,28.2611303 C37.2807216,29.0704539 37.2974779,29.1706202 37.7784081,29.2243253 L37.9777328,29.2473061 C38.0277515,29.2780304 38.0112454,29.4166645 37.9612266,29.4398951 C37.5628273,29.4244081 37.2807216,29.4166645 36.9568502,29.4166645 C36.6169728,29.4166645 36.3181108,29.4244081 35.9527239,29.4398951 C35.9027052,29.4166645 35.886199,29.2937673 35.9362177,29.2473061 L36.0937768,29.2243253 C36.6004666,29.1473896 36.6004666,29.0704539 36.6004666,28.2611303 L36.6004666,27.175038 C36.6004666,26.9442309 36.5834603,26.9284941 36.1848109,26.9284941 L33.8111713,26.9284941" id="Fill-74" fill="#142E5C"></path>
                            <path d="M1.17794145,31.1327303 C1.85994705,30.6026733 2.72927284,30.3423909 3.70088697,30.3423909 C4.20582621,30.3423909 4.91609239,30.4443057 5.35525697,30.5654544 C5.46754906,30.5936808 5.53282352,30.6121654 5.61685501,30.6026733 C5.62635857,30.8167444 5.6731261,31.4027546 5.74765403,31.9700305 C5.7008865,32.035226 5.56083402,32.0444683 5.49555955,31.9887649 C5.35525697,31.3560437 4.93459933,30.6306499 3.57959151,30.6306499 C2.14980568,30.6306499 0.934850351,31.5326461 0.934850351,33.4580369 C0.934850351,35.4114043 2.17756608,36.4907523 3.71014044,36.4907523 C4.91609239,36.4907523 5.44854193,35.7089057 5.66362254,35.1601144 C5.7291471,35.1136532 5.86944968,35.1323875 5.90671364,35.1975831 C5.84143918,35.6814287 5.59834808,36.2951657 5.4580455,36.4720179 C5.34575341,36.4907523 5.23396152,36.5277214 5.1309229,36.5649403 C4.92534586,36.6393781 4.25234364,36.7787616 3.65436954,36.7787616 C2.81330433,36.7787616 2.0095031,36.6114014 1.32724741,36.1552826 C0.579717259,35.64396 0,34.7976673 0,33.5976702 C0,32.565283 0.467425176,31.6817715 1.17794145,31.1327303" id="Fill-75" fill="#142E5C"></path>
                            <path d="M11.1729372,34.3030806 C11.1729372,33.0318931 10.5814656,31.6605392 9.03463588,31.6605392 C8.19232021,31.6605392 7.09916053,32.207582 7.09916053,33.8951716 C7.09916053,35.034969 7.68212901,36.5144824 9.27747689,36.5144824 C10.2495912,36.5144824 11.1729372,35.821062 11.1729372,34.3030806 Z M6.28910695,34.1414657 C6.28910695,32.6010032 7.50381218,31.4217388 9.17243753,31.4217388 C11.0431386,31.4217388 11.9824906,32.7084134 11.9824906,34.0642802 C11.9824906,35.6207294 10.7355233,36.7530331 9.17243753,36.7530331 C7.37451372,36.7530331 6.28910695,35.5285564 6.28910695,34.1414657 Z" id="Fill-76" fill="#142E5C"></path>
                            <path d="M21.119915,33.4787696 C21.119915,33.0014185 21.1034089,32.1156588 20.9643567,31.8841023 C20.9073354,31.7921792 20.7600302,31.7374749 20.5557036,31.7222376 L20.351377,31.7070004 C20.3023587,31.6525459 20.3186147,31.553129 20.3676331,31.5219051 C20.6782495,31.5373921 20.9808629,31.5451356 21.2997324,31.5451356 C21.6431111,31.5451356 21.8639439,31.5373921 22.1583042,31.5219051 C22.2235787,31.5606227 22.2155757,31.6605392 22.1748104,31.7070004 L21.9784868,31.7222376 C21.7739101,31.7374749 21.6183518,31.8071666 21.5695836,31.9073329 C21.4552907,32.1616204 21.4552907,33.0476299 21.4552907,33.4787696 L21.4552907,34.3497916 C21.4552907,35.0197317 21.3404977,35.7286392 20.8828262,36.1910028 C20.5311944,36.5527005 19.9262177,36.7530331 19.3209909,36.7530331 C18.7567794,36.7530331 18.1928181,36.6528668 17.792418,36.3293871 C17.3587555,35.9906702 17.1544289,35.4281404 17.1544289,34.5114065 L17.1544289,32.6926766 C17.1544289,31.8918459 17.1379227,31.7609553 16.663745,31.7222376 L16.4594184,31.7070004 C16.4104001,31.6765258 16.4269063,31.5451356 16.4756745,31.5219051 C16.8845778,31.5373921 17.1624319,31.5451356 17.4898046,31.5451356 C17.8249302,31.5451356 18.0945312,31.5373921 18.4954315,31.5219051 C18.5441998,31.5451356 18.5607059,31.6765258 18.5116876,31.7070004 L18.315364,31.7222376 C17.8411863,31.7609553 17.8249302,31.8918459 17.8249302,32.6926766 L17.8249302,34.3570356 C17.8249302,35.5974988 18.2335833,36.4140664 19.4845522,36.4140664 C20.6699964,36.4140664 21.119915,35.5360502 21.119915,34.3647791 L21.119915,33.4787696" id="Fill-77" fill="#142E5C"></path>
                            <path d="M31.3642543,35.3569499 C31.3642543,35.6364663 31.382261,36.0336343 31.5538253,36.2047413 C31.7256397,36.3838416 31.9964912,36.4228091 32.2675928,36.4228091 C33.0718943,36.4228091 33.6866246,36.1115692 33.6866246,35.3334695 C33.6866246,34.7189831 33.3249891,34.0028316 31.8882006,34.0028316 C31.4002678,34.0028316 31.3642543,34.0495425 31.3642543,34.2049127 L31.3642543,35.3569499 Z M31.3642543,33.5514588 C31.3642543,33.7695266 31.3732577,33.7847638 31.8339303,33.7695266 C32.7557758,33.7383027 33.2529621,33.5049977 33.2529621,32.7728596 C33.2529621,32.0104967 32.5932149,31.7227372 31.9064575,31.7227372 C31.7073829,31.7227372 31.5720822,31.7387239 31.4903015,31.7694482 C31.4002678,31.7929285 31.3642543,31.831896 31.3642543,31.9717791 L31.3642543,33.5514588 Z M30.6232266,32.5165738 C30.6232266,31.9410547 30.586963,31.7929285 30.1803106,31.7617046 L29.8909521,31.733728 C29.8581899,31.7042527 29.8406833,31.5481331 29.9002056,31.5438867 C30.3881385,31.5074172 31.0026188,31.4816887 31.8431838,31.4816887 C32.4123971,31.4816887 32.9543502,31.5209059 33.3615028,31.6995066 C33.7498983,31.8628701 34.0480101,32.17411 34.0480101,32.6721937 C34.0480101,33.2327252 33.6683678,33.5204847 33.1264147,33.7383027 C33.1264147,33.8159877 33.1984417,33.8397179 33.297979,33.8549552 C33.7861619,33.93289 34.5089328,34.321815 34.5089328,35.1543692 C34.5089328,36.0571147 33.7318916,36.6636078 32.1047818,36.6636078 C31.8431838,36.6636078 31.4002678,36.6403772 31.0208756,36.6403772 C30.6232266,36.6403772 30.3158614,36.6561141 29.981236,36.6636078 C29.9269656,36.6403772 29.909209,36.516231 29.9632292,36.4700196 L30.1260402,36.4460396 C30.6049697,36.3760981 30.6232266,36.2904197 30.6232266,35.4736024 L30.6232266,32.5165738 Z" id="Fill-78" fill="#142E5C"></path>
                            <path d="M12.7757879,26.7159217 C12.6204797,26.7159217 12.3093631,26.7738733 12.3093631,26.5675457 L12.3093631,25.0897808 C12.3093631,24.5122635 12.3281202,24.4293328 13.0223804,24.4293328 C13.8361853,24.4293328 14.3388737,24.8419879 14.3388737,25.601603 C14.3388737,25.9315773 14.2200792,26.2368222 13.9184662,26.4436493 C13.571086,26.6829493 13.1961955,26.7159217 12.7757879,26.7159217 Z M15.8962074,29.2473061 L15.6821271,29.2288215 C15.6388609,29.2243253 15.6005966,29.2190797 15.5638328,29.2130847 C15.2507155,29.157631 15.1251684,28.878864 14.9776131,28.6205799 L14.2375858,27.3326563 C14.1095378,27.1180856 13.9724864,26.8290772 13.6798768,26.7878616 C14.438411,26.6971874 15.124168,26.2595532 15.124168,25.5084309 C15.124168,24.6414055 14.264846,24.2537296 13.3962705,24.2537296 C12.8753252,24.2537296 12.4003973,24.2674681 11.8701986,24.2674681 C11.5775889,24.2674681 11.2299586,24.2537296 10.937349,24.2537296 C10.7750381,24.2537296 10.7730374,24.2869518 10.7730374,24.3773762 C10.7730374,24.5115141 10.8295586,24.4742952 11.0018731,24.4835375 C11.6191045,24.5182585 11.5955956,24.6334122 11.5955956,25.1617207 L11.5955956,28.5381488 C11.5955956,29.0209952 11.6373613,29.1653746 11.1294209,29.2110864 C11.1294209,29.2110864 11.0516418,29.2190797 11.0076253,29.2235759 L10.7922946,29.2458073 C10.7407753,29.2920187 10.7580318,29.4151658 10.8098012,29.4381466 C10.9238439,29.4341499 11.1266699,29.4259068 11.1266699,29.4259068 C11.4080254,29.4176637 11.6891307,29.3964315 11.9707362,29.3964315 C12.2530921,29.3964315 12.5236935,29.4181633 12.8015476,29.4259068 L12.8015476,29.4264064 C12.9003346,29.4299035 13.0046237,29.4326512 13.1186664,29.4371474 C13.1704358,29.4141666 13.1874422,29.29052 13.136173,29.2445584 L12.9195918,29.2240755 C12.8753252,29.2198291 12.7995468,29.2123353 12.7995468,29.2123353 C12.2863545,29.1776143 12.3176162,29.0334848 12.3176162,28.5381488 L12.3176162,27.2669612 C12.3176162,27.1920238 12.3086129,26.994439 12.3633834,26.9364874 C12.4094006,26.8865292 12.4914314,26.8952718 12.5644587,26.8952718 C13.2594692,26.8952718 13.2502157,26.9612167 13.5793391,27.5389839 L14.4749247,29.1488883 C14.5482022,29.2727848 14.6032228,29.4299035 14.7860413,29.4299035 L15.5638328,29.4299035 C15.6621196,29.4326512 15.7654084,29.4358985 15.879201,29.4398951 C15.9304702,29.4171641 15.9477267,29.2937673 15.8962074,29.2473061 Z" id="Fill-79" fill="#142E5C"></path>
                            <path d="M12.9436008,32.7191544 C12.9436008,31.9105802 12.9265945,31.7871834 12.3921442,31.7487155 L12.1798146,31.7329787 C12.1292957,31.7022543 12.1460519,31.5641198 12.1970711,31.5406394 C12.6722491,31.5558767 12.9606072,31.5636202 13.2999844,31.5636202 C13.6308584,31.5636202 13.9192165,31.5558767 14.3436255,31.5408892 C14.3946446,31.5641198 14.4114009,31.7022543 14.3606319,31.7329787 L14.1570556,31.7487155 C13.656368,31.7871834 13.6393616,31.9105802 13.6393616,32.7191544 L13.6393616,35.4004135 C13.6393616,35.8855081 13.6648711,36.0858407 13.8174283,36.2324681 C13.9107133,36.3171474 14.0720237,36.4095701 14.742525,36.4095701 C15.4635452,36.4095701 15.641612,36.3790956 15.7776629,36.3094038 C15.9474766,36.2169811 16.1678092,35.9399626 16.3376228,35.5465414 C16.3883918,35.5083233 16.5497023,35.5392975 16.5497023,35.5927528 C16.5497023,35.6779316 16.3121132,36.4640246 16.1933187,36.6713513 C15.7606566,36.6561141 14.9543544,36.6483705 14.0805269,36.6483705 L13.2999844,36.6483705 C12.9436008,36.6483705 12.6722491,36.6561141 12.1970711,36.6713513 C12.1460519,36.6483705 12.1292957,36.5249737 12.1798146,36.4790121 L12.4346601,36.4557815 C12.9265945,36.4095701 12.9436008,36.3014105 12.9436008,35.4928363 L12.9436008,32.7191544" id="Fill-80" fill="#142E5C"></path>
                            <path d="M35.6733692,32.7346415 C35.6733692,31.9178242 35.6566129,31.7871834 35.1649287,31.7487155 L34.9568507,31.7329787 C34.9068319,31.7022543 34.9233381,31.5641198 34.973607,31.5406394 C35.3902631,31.5558767 35.6733692,31.5636202 36.0230002,31.5636202 C36.3563752,31.5636202 36.6397314,31.5558767 37.0561374,31.5408892 C37.1061562,31.5641198 37.1226624,31.7022543 37.0726436,31.7329787 L36.8643155,31.7487155 C36.3728814,31.7871834 36.3563752,31.9178242 36.3563752,32.7346415 L36.3563752,35.477599 C36.3563752,36.2939168 36.3728814,36.4023262 36.8643155,36.4557815 L37.0726436,36.4790121 C37.1226624,36.5097364 37.1061562,36.6483705 37.0561374,36.6713513 C36.6397314,36.6561141 36.3563752,36.6483705 36.0230002,36.6483705 C35.6733692,36.6483705 35.3902631,36.6561141 34.973607,36.6713513 C34.9233381,36.6483705 34.9068319,36.5249737 34.9568507,36.4790121 L35.1649287,36.4557815 C35.6566129,36.4023262 35.6733692,36.2939168 35.6733692,35.477599 L35.6733692,32.7346415" id="Fill-81" fill="#142E5C"></path>
                            <path d="M29.0166245,36.4542827 C28.9738584,36.4497865 28.8940785,36.4427924 28.8940785,36.4427924 C28.8060456,36.4340497 28.7275161,36.4218099 28.6649927,36.3538667 C28.5567021,36.2394623 28.5659556,35.9122358 28.5659556,35.781595 L28.5659556,32.4056664 C28.5659556,32.2587892 28.5301922,31.9398058 28.6379826,31.8251516 C28.6922529,31.7649519 28.804545,31.7544607 28.9045825,31.7489653 L28.9045825,31.7487155 C28.9653553,31.7437197 28.9671059,31.7437197 29.0203759,31.740972 L29.2344561,31.7259845 C29.2859754,31.69551 29.268719,31.5561265 29.2171996,31.5331457 C29.1029068,31.5373921 28.9988678,31.5358934 28.9000808,31.5391407 L27.9897396,31.5391407 C27.8907025,31.5391407 27.8009189,31.5391407 27.7466485,31.6455517 L25.8922035,35.5035773 L24.2540896,31.7766921 C24.2000694,31.6455517 24.191066,31.5391407 24.0197518,31.5391407 L23.0723968,31.5391407 C22.9738598,31.5361432 22.8650691,31.5373921 22.7505261,31.5331457 C22.6992569,31.5561265 22.6822506,31.69551 22.7335198,31.7259845 L22.9473499,31.740972 C22.9918666,31.7447188 23.0716465,31.7502142 23.0716465,31.7502142 C23.4270297,31.773195 23.4490379,31.8521291 23.4165257,32.225567 L23.1379213,35.8470403 C23.1131621,36.2102367 23.0934046,36.4028258 22.7120117,36.4377965 C22.7120117,36.4377965 22.6314815,36.448038 22.5872149,36.452784 L22.3731347,36.4760146 C22.3216154,36.5214766 22.3388719,36.645373 22.3903912,36.668104 C22.5031835,36.6641074 22.7037586,36.6583622 22.7037586,36.6583622 C22.896831,36.6491199 23.0939048,36.6316345 23.2909787,36.6316345 C23.5030582,36.6316345 23.7158879,36.651368 23.9284676,36.6601107 L23.9284676,36.6606103 C24.0270045,36.663358 24.1312936,36.6666053 24.2458365,36.6708517 C24.2971058,36.6481207 24.3141121,36.5247239 24.263093,36.4782627 L24.0487627,36.4552819 C23.9924916,36.4507857 23.929468,36.4447907 23.929468,36.4447907 C23.3792618,36.4070722 23.3912663,36.0188966 23.4255291,35.5447929 L23.6868771,32.1771075 L23.7499007,32.1771075 L25.5233153,36.321144 C25.541072,36.3780964 25.5680821,36.4762644 25.6581158,36.4762644 C25.7393963,36.4762644 25.7661563,36.3863395 25.7934165,36.3291373 L27.7916654,32.0781901 L27.8549391,32.0781901 L27.8549391,35.781595 C27.8549391,35.9284722 27.8729459,36.2312192 27.7196384,36.3456236 C27.6396084,36.4048241 27.379761,36.4405442 27.379761,36.4405442 C27.3437475,36.4460396 27.3062335,36.4512853 27.2639676,36.4557815 L27.0496373,36.4790121 C26.9983681,36.5249737 27.0153745,36.6483705 27.0668938,36.6713513 C27.1796861,36.6676045 27.379761,36.6608601 27.379761,36.6608601 C27.6698698,36.6528668 27.9647303,36.6316345 28.2598409,36.6316345 C28.4716702,36.6316345 28.887326,36.6521174 28.887326,36.6521174 C28.986113,36.6546153 29.0989053,36.6653563 29.2134482,36.6696028 C29.2649675,36.6468718 29.2819739,36.5232251 29.2304546,36.4770137 L29.0166245,36.4542827" id="Fill-82" fill="#142E5C"></path>
                            <path d="M40.6792452,34.5681091 L39.6776199,34.5681091 C39.6426067,34.5681091 39.3637522,34.6008318 39.3637522,34.5189003 C39.3637522,34.4949203 39.3812588,34.4457114 39.3900121,34.4214817 L39.9912374,32.9342247 C40.008744,32.8937585 40.0697668,32.6894293 40.1392929,32.6894293 C40.1913124,32.6894293 40.2613386,32.9017518 40.2788452,32.9342247 L40.870817,34.3230639 C40.870817,34.3398 40.9318399,34.4696914 40.9318399,34.5029136 C40.9318399,34.5928385 40.7315148,34.5681091 40.6792452,34.5681091 Z M42.9275878,36.475515 L42.8990772,36.4522844 C42.8563111,36.4472886 42.818547,36.4417932 42.7822834,36.4362978 C42.4489085,36.36186 42.3188597,35.9604455 42.1958136,35.6749341 L40.4791703,31.6168257 C40.4621639,31.5683662 40.4281511,31.4634539 40.3598756,31.4634539 C40.2663405,31.4634539 40.241081,31.5763595 40.2155715,31.6410555 L38.5757069,35.6914203 C38.5161846,35.8442926 38.3631272,36.2162317 38.2525858,36.3293871 C38.167804,36.4165643 38.0577628,36.4328007 37.9402187,36.4447907 C37.9402187,36.4447907 37.8476841,36.454033 37.8034175,36.4585292 L37.6018419,36.4790121 C37.5503226,36.5249737 37.5675791,36.6483705 37.6188483,36.6713513 C37.7333912,36.6676045 37.9362172,36.6601107 37.9362172,36.6601107 C38.1605513,36.6571132 38.3848854,36.6288868 38.6097197,36.6288868 C38.7982903,36.6288868 38.9873612,36.6491199 39.1761819,36.6571132 C39.1761819,36.6571132 39.379008,36.6643572 39.4930507,36.6686036 C39.54457,36.6456228 39.5615764,36.522226 39.5105573,36.4760146 L39.2962269,36.452784 C39.253711,36.4487873 39.1801834,36.4410438 39.1801834,36.4410438 C38.9831096,36.4195618 38.7372675,36.3843412 38.7372675,36.1677722 C38.7372675,36.0223937 38.8050429,35.8525357 38.856062,35.7233936 L39.1109075,35.1171503 C39.2382052,34.8263933 39.1874362,34.7934208 39.5270634,34.7934208 L40.6829966,34.7934208 C41.0906494,34.7934208 41.0313772,34.7934208 41.2099441,35.2063257 L41.481796,35.8203126 C41.524562,35.9254747 41.6005905,36.1033261 41.6005905,36.2162317 C41.6005905,36.4195618 41.3787574,36.4330505 41.1711796,36.4505359 C41.1711796,36.4505359 41.1024038,36.4565309 41.0426314,36.4605275 L40.8368043,36.4760146 C40.7855351,36.5219762 40.8025414,36.645373 40.8538107,36.668104 C40.9683536,36.6641074 41.1711796,36.6561141 41.1711796,36.6561141 C41.4130202,36.6473714 41.6561113,36.6288868 41.8896989,36.6288868 C42.1873104,36.6288868 42.4849219,36.6491199 42.7825335,36.6571132 C42.88007,36.6598609 42.7975391,36.663358 42.9105815,36.6676045 C42.9618507,36.6446237 42.9791072,36.5212268 42.9275878,36.475515 Z" id="Fill-83" fill="#142E5C"></path>
                            <path d="M9.47355037,18.9134428 C14.8958325,18.9134428 22.3963934,21.9628942 27.838683,21.9628942 C31.7223885,21.9628942 35.5120587,20.9275095 37.6691171,19.4035332 C37.8196736,18.5082814 37.8992034,17.5887999 37.8992034,16.6510836 C37.8992034,7.54919064 30.5116848,0.170357621 21.3987696,0.170357621 C12.2856042,0.170357621 4.89808564,7.54919064 4.89808564,16.6510836 C4.89808564,17.5780589 4.97611488,18.4870492 5.12342009,19.3723093 C5.71814297,19.2621513 7.74040085,18.9134428 9.47355037,18.9134428" id="Fill-84" fill="#FFFFFE"></path>
                            <polyline id="Fill-85" fill="#F3B229" points="32.0587646 12.8405183 32.711009 13.1107924 34.1578012 12.1028848 32.0587646 12.8405183"></polyline>
                            <path d="M7.74715338,11.714959 L6.03226069,11.1122128 L6.11804284,10.9023882 L8.04951669,11.5456006 L8.05801988,11.5411043 L8.31286539,11.396725 L8.41440344,11.3330282 L6.30836417,10.438276 L6.39714744,10.2184598 L11.0981592,12.1171229 L11.2529672,12.0529266 L6.59122017,9.7840728 L6.69500907,9.5705013 L11.6353605,11.8670819 L11.7036361,11.8323609 L6.91334089,9.11887875 L7.01162773,8.91479931 L13.9289701,12.6741574 C13.9859915,12.5694948 14.1045359,12.3791539 14.1655588,12.2767395 C11.5355732,9.80730339 8.99762201,7.95260348 8.99762201,7.95260348 C8.99762201,7.95260348 11.6076001,9.6986442 14.8285573,11.3215378 C14.9350972,11.1888987 15.0221298,11.0822378 15.1359224,10.9563431 L9.23471087,5.76742978 L9.39302019,5.60506548 L14.1560552,9.65942698 L9.7436516,5.24586568 L9.90871346,5.07500848 L14.8628201,9.85701184 L10.2510918,4.74503426 L10.4274078,4.58591725 L14.6897552,9.14485704 L10.7995473,4.24869908 L10.9671101,4.09657622 L15.9537289,10.1580103 C16.0825272,10.0466034 16.1898174,9.96317312 16.3246179,9.85975955 C14.8163027,6.59973417 13.1689353,3.94745085 13.1689353,3.94745085 C13.1689353,3.94745085 14.9220923,6.52529638 17.2877289,9.22479023 C17.4325331,9.14385787 17.578838,9.06567322 17.7286441,8.99273418 L17.7036347,8.97624796 L14.2085749,2.01007005 L14.4164028,1.91864646 L17.311988,7.45976538 L14.8760751,1.71656535 L15.0931564,1.62014594 L17.8932058,7.90764106 L15.5345718,1.44204479 L15.7576554,1.36061285 L17.9997457,7.18224732 L16.2290821,1.18725773 L16.4416618,1.10907307 L18.7730355,8.54460871 L18.7685338,8.56434221 L18.774286,8.56209409 C18.929094,8.50988772 19.0869031,8.46417593 19.2457127,8.42121184 C19.0681461,4.84969679 18.5391979,1.79450022 18.5391979,1.79450022 C18.5391979,1.79450022 19.1939433,4.82271933 20.3683834,8.19914743 C20.5321948,8.17916413 20.6965064,8.16217833 20.8625686,8.15068793 L20.8573166,8.14319419 L20.8775742,8.14319419 L20.8660699,8.12620839 L20.2383347,0.359699375 L20.4651697,0.352705221 L21.0713969,6.57375588 L20.9673579,0.337467956 L21.2046968,0.329224845 L21.4422859,7.20647707 L21.6803751,0.329224845 L21.9179641,0.337467956 L21.813675,6.57375588 L22.4196521,0.352705221 L22.6467373,0.359699375 L22.019002,8.12620839 L22.0072476,8.14319419 L22.0107489,8.14319419 L22.0089982,8.14569211 L22.019002,8.14569211 C22.1815629,8.15593355 22.3426233,8.17216998 22.5024332,8.19115411 C23.6751227,4.8179733 24.3288677,1.79450022 24.3288677,1.79450022 C24.3288677,1.79450022 23.8016701,4.84045451 23.6231032,8.4052252 C23.7834132,8.44768971 23.9417226,8.49390109 24.0977811,8.54510829 L26.4209017,1.13530115 L26.6339815,1.2137356 L24.8625677,7.20872519 L27.1051581,1.38734051 L27.3279916,1.46877245 L24.9693577,7.93411893 L27.769157,1.64662381 L27.9867385,1.74304322 L25.5505755,7.48624325 L28.4461607,1.94512433 L28.6537385,2.03654792 L25.1716835,8.97749691 L25.1774357,8.97999482 C25.3209895,9.04993637 25.4615421,9.12437416 25.6003442,9.20155965 C27.9557269,6.5103089 29.6991303,3.94745085 29.6991303,3.94745085 C29.6991303,3.94745085 28.0630171,6.58149941 26.5589534,9.82578794 C26.6935038,9.92720318 26.8248031,10.0321155 26.9526009,10.1407747 L31.8806978,4.1455353 L32.0487608,4.29765816 L28.1580527,9.19356633 L32.4204001,4.63487633 L32.5967162,4.79399334 L27.9847378,9.90622072 L32.9388444,5.12371777 L33.1044064,5.29482477 L28.6917527,9.70863585 L33.4547878,5.65402456 L33.6130971,5.81638886 L27.7839125,10.946851 L27.7874138,10.9503481 C27.889202,11.0635035 27.9869886,11.1804058 28.0832747,11.2993064 C31.2839742,9.68265756 33.8704435,7.95260348 33.8704435,7.95260348 C33.8704435,7.95260348 31.3572517,9.78906863 28.7410212,12.2410194 C28.812548,12.3604196 28.9283414,12.564499 28.9943661,12.6873963 L35.8136718,8.97874587 L35.9127089,9.18332489 L30.4686687,12.2667479 L36.1307906,9.63519723 L36.2345795,9.84826915 L30.9608531,12.4148741 L31.0621411,12.4500946 L36.4281521,10.2824063 L36.5174355,10.5027222 L31.5293161,12.6214514 L31.6226011,12.6601691 L34.9463467,11.5535939 L35.4475346,11.204136 L35.6135968,11.3307801 L36.7075068,10.9668343 L36.793539,11.1764091 L35.8471843,11.5088813 L37.2144467,12.5510103 L37.652611,12.7950563 C35.8947022,5.4561899 29.2852251,0 21.3987696,0 C13.373762,0 6.67100007,5.64952832 5.05689516,13.1832319 C5.07765294,13.1732403 5.09766044,13.163998 5.11841821,13.1540063 L5.31874329,13.0633321 L5.44153931,13.0061299 L7.74715338,11.714959" id="Fill-86" fill="#F3B229"></path>
                            <path d="M4.96235973,19.7285116 C4.96235973,19.7285116 7.42778369,19.2369224 9.48555487,19.2369224 C14.907837,19.2369224 22.4083979,22.286124 27.8506875,22.286124 C31.8431838,22.286124 35.7366429,21.1922882 37.8589383,19.5971214 C38.0245003,18.6536599 38.1115329,17.6834708 38.1115329,16.6922991 C38.1115329,15.3501708 37.9522232,14.0455112 37.652611,12.7950563 L35.3835106,11.5311127 L32.721763,13.396054 L30.9308419,12.6993863 C30.3243646,13.0053805 26.584463,15.5035427 26.584463,15.5035427 L25.1486749,14.4659099 L23.6085977,14.1609148 L21.5545779,12.6676628 L19.1989451,14.2828129 C19.1989451,14.2828129 16.5704601,15.8072888 16.4801762,15.8072888 C16.3896423,15.8072888 13.3092379,13.3683272 13.3092379,13.3683272 L11.889956,11.8748254 C11.6483654,12.0271981 10.6827535,12.4695783 10.6827535,12.4695783 L10.6329849,12.4828173 L9.69913492,12.1940586 L8.56445968,11.5933107 L5.11841821,13.1540063 C5.09766044,13.163998 5.07765294,13.1732403 5.05689516,13.1832319 C4.81455434,14.315036 4.68575607,15.4885552 4.68575607,16.6922991 C4.68575607,17.7291826 4.78129187,18.7438345 4.96235973,19.7285116" id="Fill-87" fill="#142E5C"></path>
                        </g>
                    </g>
                    <g id="Group" stroke-width="1" fill-rule="evenodd" transform="translate(60.146853, 15.493671)">
                        <path d="M6.58205185,4.71329416 L9.44566379,10.4624578 C10.0234101,11.632201 10.5760369,12.7770561 11.1789026,13.8721349 L11.2291414,13.8721349 C11.9073653,12.7023916 12.5353504,11.4082076 13.1633354,10.1389118 L15.5245593,5.38527432 C16.6549324,3.1204523 17.3833951,1.75160382 17.4336339,0.606748725 C18.2876936,0.681413187 18.8152011,0.681413187 19.3175892,0.681413187 C19.9455742,0.681413187 20.7745145,0.656525033 21.553216,0.606748725 C21.7039324,0.706301341 21.7039324,1.12939996 21.5783354,1.22895258 L21.050828,1.27872889 C19.4683056,1.42805781 19.2673504,1.90093274 19.2924698,3.64310353 C19.3427086,6.28124787 19.367828,10.8855564 19.5687832,14.4694506 C19.6441414,15.7138583 19.619022,16.3858385 20.7996339,16.4853911 L21.6034548,16.5600555 C21.7541713,16.7093845 21.7290518,17.0827068 21.553216,17.1822594 C20.5233205,17.1324831 19.493425,17.1075949 18.5891265,17.1075949 C17.7099474,17.1075949 16.5795742,17.1324831 15.5496787,17.1822594 C15.3738429,17.0578186 15.3487235,16.7093845 15.4994399,16.5600555 L16.2279026,16.4853911 C17.4587533,16.3609503 17.4587533,15.9627398 17.4587533,14.369898 L17.3833951,3.99153769 L17.3331563,3.99153769 C17.1573205,4.26530739 16.2027832,6.25635972 15.7003951,7.22699773 L13.4647683,11.5824247 C12.3343951,13.7725823 11.204022,16.1120688 10.7518727,17.2569239 C10.7016339,17.3315883 10.6011563,17.3564765 10.5006787,17.3564765 C10.4504399,17.3564765 10.3248429,17.3315883 10.2746041,17.2569239 C9.84757424,15.9378517 8.64184289,13.4988126 8.06409662,12.279293 L5.80335036,7.47587927 C5.27584289,6.33102418 4.74833543,5.03684017 4.19570857,3.89198507 L4.14546976,3.89198507 C4.04499215,5.43505063 3.96963394,6.87856357 3.89427573,8.32207652 C3.81891752,9.84025392 3.71843991,12.0552996 3.71843991,14.1707927 C3.71843991,16.0125162 3.86915633,16.4107266 4.84881304,16.4853911 L5.80335036,16.5600555 C5.97918618,16.7093845 5.95406677,17.1075949 5.77823095,17.1822594 C4.92417125,17.1324831 3.94451454,17.1075949 2.98997722,17.1075949 C2.18615633,17.1075949 1.28185782,17.1324831 0.427798117,17.1822594 C0.2770817,17.0578186 0.226842894,16.6844963 0.377559311,16.5600555 L0.930186177,16.4853911 C1.9852011,16.3360622 2.33687274,16.1867332 2.48758916,14.4445624 C2.63830558,12.8019443 2.7639026,11.4330958 2.91461901,8.96916852 C3.04021603,6.90345173 3.14069364,4.78795862 3.19093245,3.41911015 C3.24117125,1.85115643 3.04021603,1.47783412 1.50793245,1.27872889 L1.106022,1.22895258 C0.980424983,1.07962365 1.00554439,0.706301341 1.20649961,0.606748725 C1.9600817,0.656525033 2.56294737,0.681413187 3.19093245,0.681413187 C3.76867871,0.681413187 4.4469026,0.681413187 5.27584289,0.606748725 C5.17536528,1.57738674 5.80335036,3.1204523 6.58205185,4.71329416 Z M23.5376489,23.3047453 C22.8091862,23.3047453 22.4323951,22.8567585 22.4323951,22.2345547 C22.4323951,21.5625745 22.8845444,21.2390285 23.4371713,21.2390285 L23.9144399,21.2390285 C24.3163504,21.2390285 24.5675444,21.0648114 24.7433802,20.7910418 C25.4718429,19.6710748 25.974231,18.6257723 26.2003056,18.0284566 C26.2756638,17.8293514 26.4514996,17.3067002 26.4514996,16.958266 C26.4514996,16.4605029 26.351022,16.1618451 26.0244698,15.2409834 L24.0651563,9.91491838 C23.6381265,8.74517514 23.4622907,8.14785944 22.5831116,7.97364236 L21.9551265,7.84920159 C21.8044101,7.72476082 21.8295295,7.3016622 22.0304847,7.22699773 C22.8343056,7.27677404 23.5878877,7.3016622 24.416828,7.3016622 C25.0950518,7.3016622 25.7983951,7.27677404 26.602216,7.22699773 C26.8031713,7.3016622 26.8282907,7.72476082 26.6524548,7.84920159 L26.0244698,7.97364236 C25.6727981,8.04830682 25.4718429,8.12297128 25.4718429,8.29718836 C25.4718429,8.59584621 26.0495892,10.2135762 26.2003056,10.6366749 L27.0041265,12.926385 C27.1548429,13.3245955 27.6321116,14.6436677 27.7325892,14.693444 C27.8079474,14.6436677 28.2098578,13.8721349 28.6620071,12.8517206 L29.5160668,10.8855564 C30.0686936,9.59137238 30.3952459,8.67051067 30.3952459,8.39674098 C30.3952459,8.2225239 30.2445295,8.04830682 29.7923802,7.97364236 L29.0136787,7.84920159 C28.8378429,7.72476082 28.8629623,7.3016622 29.0639175,7.22699773 C29.8677384,7.27677404 30.6213205,7.3016622 31.274425,7.3016622 C31.9024101,7.3016622 32.4801563,7.27677404 33.1834996,7.22699773 C33.3844548,7.32655035 33.4095742,7.69987266 33.2337384,7.84920159 L32.8067086,7.92386605 C31.9777683,8.07319497 31.525619,8.79495145 30.6715593,10.5620104 L29.2648727,13.4241481 C28.4359324,15.0916544 26.3761414,19.4221933 25.1452907,22.1350021 C24.7182608,23.0807519 24.1153951,23.3047453 23.5376489,23.3047453 Z M36.0471116,13.3743718 L36.0471116,4.43952447 C36.0471116,2.07514982 35.9717533,1.6520512 34.9418578,1.52761043 L34.1380369,1.42805781 C33.9622011,1.30361704 33.9622011,0.905406575 34.1631563,0.805853958 C35.5698429,0.681413187 37.3030817,0.606748725 39.7647832,0.606748725 C41.3221862,0.606748725 42.804231,0.731189496 43.9597235,1.35339335 C45.1654548,1.9755972 46.0446339,3.09556414 46.0446339,4.83773493 C46.0446339,7.20210958 44.1606787,8.4962936 42.9047086,8.99405668 C42.7791116,9.1433856 42.9047086,9.39226715 43.0303056,9.59137238 C45.0398578,12.8019443 46.3711862,14.7929966 48.0793056,16.2116214 C48.5063354,16.5849437 49.1343205,16.8587134 49.8125444,16.9084897 C49.9381414,16.958266 49.9632608,17.1573712 49.8376638,17.2569239 C49.6115892,17.3315883 49.2096787,17.3813646 48.7324101,17.3813646 C46.5972608,17.3813646 45.3161713,16.7591608 43.5326936,14.2454572 C42.8795892,13.3245955 41.8496936,11.6073129 41.0709921,10.4873459 C40.6942011,9.93980654 40.2922907,9.690925 39.2875145,9.690925 C38.1571414,9.690925 38.1069026,9.71581315 38.1069026,10.2384644 L38.1069026,13.3743718 C38.1069026,15.987628 38.1571414,16.2862858 39.6140668,16.4853911 L40.1415742,16.5600555 C40.2922907,16.6844963 40.2420518,17.1075949 40.0913354,17.1822594 C38.9609623,17.1324831 38.1069026,17.1075949 37.1021265,17.1075949 C36.0471116,17.1075949 35.142813,17.1324831 33.9622011,17.1822594 C33.8114847,17.1075949 33.7612459,16.7342726 33.9119623,16.5600555 L34.5399474,16.4853911 C35.9968727,16.311174 36.0471116,15.987628 36.0471116,13.3743718 Z M38.1069026,2.17470244 L38.1069026,7.99853051 C38.1069026,8.44651729 38.1069026,8.72028698 38.1822608,8.8198396 C38.257619,8.89450406 38.6344101,8.94428037 39.9154996,8.94428037 C40.8197981,8.94428037 41.7743354,8.84472775 42.5027981,8.29718836 C43.181022,7.77453712 43.7587683,6.90345173 43.7587683,5.21105725 C43.7587683,3.24489307 42.5279175,1.3782815 39.7396638,1.3782815 C38.1822608,1.3782815 38.1069026,1.47783412 38.1069026,2.17470244 Z M51.9979324,13.0259377 L54.9871414,11.955747 C55.3639324,11.8313063 55.4141713,11.6073129 55.4141713,11.2339906 L55.4392907,10.0891355 C55.4644101,9.16827376 55.1629772,7.92386605 53.6055742,7.92386605 C52.902231,7.92386605 52.0481713,8.27230021 51.9979324,9.04383299 C51.972813,9.44204345 51.9476936,9.7407013 51.7467384,9.89003023 C51.3699474,10.1886881 50.6917235,10.3629052 50.3149324,10.3629052 C50.0888578,10.3629052 49.9632608,10.2384644 49.9632608,10.014471 C49.9632608,8.72028698 52.8017533,6.95322804 54.6354698,6.95322804 C56.4440668,6.95322804 57.3232459,7.99853051 57.2478877,9.86514207 L57.0971713,14.1956809 C57.0469324,15.340536 57.2730071,16.3609503 58.2526638,16.3609503 C58.5038578,16.3609503 58.7299324,16.2862858 58.8806489,16.2116214 C59.0062459,16.1369569 59.1318429,16.0374043 59.2072011,16.0374043 C59.3076787,16.0374043 59.3830369,16.1867332 59.3830369,16.3609503 C59.3830369,16.4853911 58.5038578,17.4560291 57.2730071,17.4560291 C56.6701414,17.4560291 56.0672757,17.2320357 55.6402459,16.6844963 C55.5397683,16.5351674 55.3890518,16.3360622 55.2383354,16.3360622 C55.0624996,16.3360622 54.7610668,16.5600555 54.2586787,16.8338252 C53.7060518,17.1324831 53.153425,17.4560291 52.4500817,17.4560291 C51.721619,17.4560291 51.1187533,17.2569239 50.6917235,16.8836015 C50.2144548,16.4605029 49.913022,15.8382991 49.913022,15.1414308 C49.913022,14.1707927 50.3902907,13.5983652 51.9979324,13.0259377 Z M51.847216,14.8427729 C51.847216,15.2658715 52.1486489,16.3360622 53.4297384,16.3360622 C53.9321265,16.3360622 54.710828,15.9627398 54.962022,15.7138583 C55.2634548,15.4152005 55.2634548,15.0667663 55.2885742,14.5441151 L55.338813,13.075714 C55.338813,12.8019443 55.2383354,12.752168 55.087619,12.752168 C54.9369026,12.752168 54.5098727,12.8517206 54.0577235,13.0010495 C52.5756787,13.4988126 51.847216,13.8721349 51.847216,14.8427729 Z M61.6437832,14.3201217 L61.6437832,9.96469469 C61.6437832,8.99405668 61.6437832,8.86961591 60.9655593,8.42162913 L60.7394847,8.27230021 C60.6390071,8.17274759 60.6390071,7.8989779 60.7646041,7.82431343 C61.3423504,7.6252082 62.7741563,6.97811619 63.2765444,6.60479388 C63.377022,6.60479388 63.502619,6.65457019 63.5528578,6.77901096 C63.502619,7.3514385 63.502619,7.72476082 63.502619,7.9487542 C63.502619,8.09808313 63.6030966,8.2225239 63.7789324,8.2225239 C64.8339474,7.57543189 66.0145593,6.95322804 67.2956489,6.95322804 C69.3805593,6.95322804 70.234619,8.37185282 70.234619,10.0393592 L70.234619,14.3201217 C70.234619,16.1120688 70.2848578,16.3609503 71.1891563,16.4853911 L71.7417832,16.5600555 C71.917619,16.6844963 71.8673802,17.1075949 71.6915444,17.1822594 C70.9379623,17.1324831 70.2094996,17.1075949 69.3303205,17.1075949 C68.426022,17.1075949 67.6724399,17.1324831 66.994216,17.1822594 C66.8183802,17.1075949 66.7681414,16.6844963 66.9439772,16.5600555 L67.4212459,16.4853911 C68.3506638,16.3360622 68.3757832,16.1120688 68.3757832,14.3201217 L68.3757832,10.6117867 C68.3757832,9.19316191 67.7226787,8.14785944 66.0145593,8.14785944 C65.060022,8.14785944 64.2310817,8.5460699 63.8794101,9.01894483 C63.5528578,9.44204345 63.502619,9.79047761 63.502619,10.5122341 L63.502619,14.3201217 C63.502619,16.1120688 63.5528578,16.3360622 64.4571563,16.4853911 L64.9093056,16.5600555 C65.0851414,16.6844963 65.0349026,17.1075949 64.8590668,17.1822594 C64.1808429,17.1324831 63.4523802,17.1075949 62.5732011,17.1075949 C61.6689026,17.1075949 60.9153205,17.1324831 60.2119772,17.1822594 C60.0361414,17.1075949 59.9859026,16.6844963 60.1617384,16.5600555 L60.6892459,16.4853911 C61.6186638,16.3609503 61.6437832,16.1120688 61.6437832,14.3201217 Z M81.5383504,7.84920159 L83.573022,7.84920159 C83.8493354,7.97364236 83.7990966,8.8198396 83.4223056,8.86961591 L81.6137086,8.86961591 C81.6639474,9.29271453 81.6639474,9.71581315 81.6639474,10.1389118 C81.6639474,11.8561944 80.6340518,14.0961283 77.4438877,14.0961283 C76.9917384,14.0961283 76.6400668,14.046352 76.3386339,14.0214638 C76.0372011,14.1956809 75.2333802,14.6685558 75.2333802,15.3903123 C75.2333802,15.9627398 75.8111265,16.4356148 76.9917384,16.4356148 C77.8457981,16.4356148 78.8756936,16.3609503 79.9809474,16.3609503 C81.3876339,16.3609503 83.4976638,16.6098319 83.4976638,19.0986473 C83.4976638,21.8114561 80.5084548,23.8025084 77.2429324,23.8025084 C74.1532459,23.8025084 73.0731116,22.1598902 73.0731116,20.9154825 C73.0731116,20.5172721 73.1735892,20.1937261 73.349425,19.9946208 C73.7764548,19.546634 74.4797981,18.899542 75.0575444,18.3271145 C75.283619,18.1031211 75.4845742,17.8791277 75.2584996,17.7297988 C74.2788429,17.4809172 73.4247832,16.63472 73.4247832,15.7636346 C73.4247832,15.6391938 73.5252608,15.5396412 73.8015742,15.340536 C74.2286041,15.0667663 74.7058727,14.6436677 75.1329026,14.1956809 C75.2584996,14.046352 75.3840966,13.8472467 75.3840966,13.722806 C74.5300369,13.2748192 73.5001414,12.3041812 73.5001414,10.7113393 C73.5001414,8.57095806 75.3589772,6.95322804 77.5946041,6.95322804 C78.5491414,6.95322804 79.4283205,7.20210958 80.0060668,7.45099112 C80.8098877,7.79942528 80.9857235,7.84920159 81.5383504,7.84920159 Z M79.1771265,17.9040159 L78.3230668,17.9040159 C77.5192459,17.9040159 76.5144698,17.9537922 76.1627981,18.1777856 C75.5599324,18.5511079 74.9570668,19.3226407 74.9570668,20.2683905 C74.9570668,21.6123508 76.0372011,22.7323178 78.3230668,22.7323178 C80.5586936,22.7323178 82.0407384,21.4879101 82.0407384,20.0692853 C82.0407384,18.5511079 80.9857235,17.9040159 79.1771265,17.9040159 Z M77.8206787,13.3743718 C79.1771265,13.3743718 79.8804698,12.3041812 79.8804698,10.7860038 C79.8804698,9.0936093 79.1771265,7.67498451 77.6448429,7.67498451 C76.4391116,7.67498451 75.534813,8.77006329 75.534813,10.4624578 C75.534813,12.2295167 76.6149474,13.3743718 77.8206787,13.3743718 Z M91.4856339,10.7362275 L86.8385444,10.7362275 C86.1854399,10.7362275 86.1603205,10.7860038 86.1603205,11.4082076 C86.1603205,13.9219112 87.6423653,16.0622925 90.3301414,16.0622925 C91.1590817,16.0622925 91.862425,15.8134109 92.6411265,14.8427729 C92.8923205,14.7681084 93.0681563,14.9174374 93.0932757,15.1414308 C92.2643354,16.8338252 90.4557384,17.4560291 89.1495295,17.4560291 C87.5167683,17.4560291 86.2356787,16.7591608 85.507216,15.8134109 C84.7536339,14.8427729 84.4522011,13.6730297 84.4522011,12.5779509 C84.4522011,9.51670792 86.4868727,6.95322804 89.5012011,6.95322804 C91.6614698,6.95322804 93.0681563,8.42162913 93.0681563,9.91491838 C93.0681563,10.2633525 93.0179175,10.4624578 92.9676787,10.5620104 C92.8923205,10.7113393 92.5406489,10.7362275 91.4856339,10.7362275 Z M86.6124698,9.98958285 L88.3959474,9.98958285 C90.2547832,9.98958285 90.8074101,9.89003023 91.0083653,9.7407013 C91.0837235,9.690925 91.1590817,9.59137238 91.1590817,9.26782637 C91.1590817,8.57095806 90.681813,7.69987266 89.2248877,7.69987266 C87.7428429,7.69987266 86.4617533,9.04383299 86.4366339,9.86514207 C86.4366339,9.91491838 86.4366339,9.98958285 86.6124698,9.98958285 Z" id="MyRangeBC" fill="#234075"></path>
                        <path d="M96.7355892,13.3743718 L96.7355892,3.91687323 C96.7355892,2.07514982 96.6351116,1.60227489 95.5047384,1.50272227 L94.7009175,1.42805781 C94.4999623,1.27872889 94.5250817,0.905406575 94.7260369,0.805853958 C96.0824847,0.681413187 97.7906041,0.606748725 100.126709,0.606748725 C101.709231,0.606748725 103.216395,0.731189496 104.346768,1.30361704 C105.426903,1.82626828 106.255843,2.82179445 106.255843,4.41463631 C106.255843,6.20658341 105.200828,7.12744512 103.693664,7.82431343 C103.693664,8.07319497 103.894619,8.14785944 104.170932,8.19763575 C105.52738,8.44651729 107.536932,9.690925 107.536932,12.3539575 C107.536932,15.2409834 105.376664,17.1822594 100.855171,17.1822594 C100.126709,17.1822594 98.8958578,17.1075949 97.8408429,17.1075949 C96.7355892,17.1075949 95.8815295,17.1573712 94.9521116,17.1822594 C94.8013951,17.1075949 94.7511563,16.7093845 94.9018727,16.5600555 L95.354022,16.4853911 C96.6853504,16.2613977 96.7355892,15.987628 96.7355892,13.3743718 Z M98.7953802,9.31760268 L98.7953802,13.0010495 C98.7953802,13.897023 98.845619,15.1663189 99.3228877,15.7138583 C99.8001563,16.2862858 100.553738,16.4107266 101.307321,16.4107266 C103.542947,16.4107266 105.251067,15.4152005 105.251067,12.926385 C105.251067,10.9602209 104.246291,8.67051067 100.252306,8.67051067 C98.8958578,8.67051067 98.7953802,8.8198396 98.7953802,9.31760268 Z M98.7953802,2.17470244 L98.7953802,7.22699773 C98.7953802,7.92386605 98.8204996,7.97364236 100.101589,7.92386605 C102.663768,7.82431343 104.045335,7.07766881 104.045335,4.73818232 C104.045335,2.29914321 102.211619,1.3782815 100.302544,1.3782815 C99.7499175,1.3782815 99.3731265,1.42805781 99.1470518,1.52761043 C98.8958578,1.60227489 98.7953802,1.72671566 98.7953802,2.17470244 Z" id="Combined-Shape" fill="#E3A82B"></path>
                        <path d="M109.822798,8.99405668 C109.822798,6.23147157 111.078768,3.86709692 112.987843,2.39869582 C114.821559,0.980071037 117.157664,0.283202721 119.770082,0.283202721 C121.126529,0.283202721 123.035604,0.556972416 124.216216,0.880518421 C124.517649,0.955182883 124.693485,1.00495919 124.919559,0.980071037 C124.944679,1.55249858 125.070276,3.1204523 125.271231,4.6386297 C125.145634,4.81284678 124.768843,4.83773493 124.593007,4.68840601 C124.216216,2.99601152 123.085843,1.0547355 119.443529,1.0547355 C115.600261,1.0547355 112.334738,3.46888645 112.334738,8.62073437 C112.334738,13.8472467 115.675619,16.7342726 119.795201,16.7342726 C123.035604,16.7342726 124.46741,14.6436677 125.045156,13.1752666 C125.220992,13.0508258 125.597783,13.1006021 125.698261,13.2748192 C125.522425,14.5690032 124.869321,16.2116214 124.492529,16.6844963 C124.191097,16.7342726 123.889664,16.8338252 123.61335,16.9333779 C123.060723,17.1324831 121.252126,17.5058054 119.644485,17.5058054 C117.383738,17.5058054 115.22347,17.0578186 113.389753,15.8382991 C111.380201,14.4694506 109.822798,12.2046286 109.822798,8.99405668 Z" id="Path" fill="#E3A82B"></path>
                    </g>
                </g>
            </g>
        </g>
    </g>
</svg>