<?xml version="1.0" encoding="UTF-8"?>
<svg width="201px" height="40px" viewBox="0 0 201 40" version="1.1" xmlns="http://www.w3.org/2000/svg" xmlns:xlink="http://www.w3.org/1999/xlink">
    <!-- Generator: Sketch 53 (72520) - https://sketchapp.com -->
    <title>MyRangeBC_EndorsedLogo_Light</title>
    <desc>Created with Sketch.</desc>
    <g id="MyRange-Web-Mockups" stroke="none" stroke-width="1" fill="none" fill-rule="evenodd">
        <g id="Landing-Page" transform="translate(-423.000000, -110.000000)">
            <g id="MyRangeBC_EndorsedLogo_Light" transform="translate(423.000000, 110.000000)">
                <path d="M55.5,1.46285663 L55.5,38.6291291" id="Line-2" stroke="#F3B229" stroke-linecap="square"></path>
                <g id="MyRangeBC" transform="translate(65.658185, 13.748000)" fill-rule="nonzero">
                    <path d="M6.76681497,4.806 L9.84481497,11.043 C10.465815,12.312 11.059815,13.554 11.707815,14.742 L11.761815,14.742 C12.490815,13.473 13.165815,12.069 13.840815,10.692 L16.378815,5.535 C17.593815,3.078 18.376815,1.593 18.430815,0.351 C19.348815,0.432 19.915815,0.432 20.455815,0.432 C21.130815,0.432 22.021815,0.405 22.858815,0.351 C23.020815,0.459 23.020815,0.918 22.885815,1.026 L22.318815,1.08 C20.617815,1.242 20.401815,1.755 20.428815,3.645 C20.482815,6.507 20.509815,11.502 20.725815,15.39 C20.806815,16.74 20.779815,17.469 22.048815,17.577 L22.912815,17.658 C23.074815,17.82 23.047815,18.225 22.858815,18.333 C21.751815,18.279 20.644815,18.252 19.672815,18.252 C18.727815,18.252 17.512815,18.279 16.405815,18.333 C16.216815,18.198 16.189815,17.82 16.351815,17.658 L17.134815,17.577 C18.457815,17.442 18.457815,17.01 18.457815,15.282 L18.376815,4.023 L18.322815,4.023 C18.133815,4.32 17.107815,6.48 16.567815,7.533 L14.164815,12.258 C12.949815,14.634 11.734815,17.172 11.248815,18.414 C11.194815,18.495 11.086815,18.522 10.978815,18.522 C10.924815,18.522 10.789815,18.495 10.735815,18.414 C10.276815,16.983 8.98081497,14.337 8.35981497,13.014 L5.92981497,7.803 C5.36281497,6.561 4.79581497,5.157 4.20181497,3.915 L4.14781497,3.915 C4.03981497,5.589 3.95881497,7.155 3.87781497,8.721 C3.79681497,10.368 3.68881497,12.771 3.68881497,15.066 C3.68881497,17.064 3.85081497,17.496 4.90381497,17.577 L5.92981497,17.658 C6.11881497,17.82 6.09181497,18.252 5.90281497,18.333 C4.98481497,18.279 3.93181497,18.252 2.90581497,18.252 C2.04181497,18.252 1.06981497,18.279 0.151814968,18.333 C-0.0101850318,18.198 -0.0641850318,17.793 0.0978149682,17.658 L0.691814968,17.577 C1.82581497,17.415 2.20381497,17.253 2.36581497,15.363 C2.52781497,13.581 2.66281497,12.096 2.82481497,9.423 C2.95981497,7.182 3.06781497,4.887 3.12181497,3.402 C3.17581497,1.701 2.95981497,1.296 1.31281497,1.08 L0.880814968,1.026 C0.745814968,0.864 0.772814968,0.459 0.988814968,0.351 C1.79881497,0.405 2.44681497,0.432 3.12181497,0.432 C3.74281497,0.432 4.47181497,0.432 5.36281497,0.351 C5.25481497,1.404 5.92981497,3.078 6.76681497,4.806 Z M24.991815,24.975 C24.208815,24.975 23.803815,24.489 23.803815,23.814 C23.803815,23.085 24.289815,22.734 24.883815,22.734 L25.396815,22.734 C25.828815,22.734 26.098815,22.545 26.287815,22.248 C27.070815,21.033 27.610815,19.899 27.853815,19.251 C27.934815,19.035 28.123815,18.468 28.123815,18.09 C28.123815,17.55 28.015815,17.226 27.664815,16.227 L25.558815,10.449 C25.099815,9.18 24.910815,8.532 23.965815,8.343 L23.290815,8.208 C23.128815,8.073 23.155815,7.614 23.371815,7.533 C24.235815,7.587 25.045815,7.614 25.936815,7.614 C26.665815,7.614 27.421815,7.587 28.285815,7.533 C28.501815,7.614 28.528815,8.073 28.339815,8.208 L27.664815,8.343 C27.286815,8.424 27.070815,8.505 27.070815,8.694 C27.070815,9.018 27.691815,10.773 27.853815,11.232 L28.717815,13.716 C28.879815,14.148 29.392815,15.579 29.500815,15.633 C29.581815,15.579 30.013815,14.742 30.499815,13.635 L31.417815,11.502 C32.011815,10.098 32.362815,9.099 32.362815,8.802 C32.362815,8.613 32.200815,8.424 31.714815,8.343 L30.877815,8.208 C30.688815,8.073 30.715815,7.614 30.931815,7.533 C31.795815,7.587 32.605815,7.614 33.307815,7.614 C33.982815,7.614 34.603815,7.587 35.359815,7.533 C35.575815,7.641 35.602815,8.046 35.413815,8.208 L34.954815,8.289 C34.063815,8.451 33.577815,9.234 32.659815,11.151 L31.147815,14.256 C30.256815,16.065 28.042815,20.763 26.719815,23.706 C26.260815,24.732 25.612815,24.975 24.991815,24.975 Z M38.437815,14.202 L38.437815,4.509 C38.437815,1.944 38.356815,1.485 37.249815,1.35 L36.385815,1.242 C36.196815,1.107 36.196815,0.675 36.412815,0.567 C37.924815,0.432 39.787815,0.351 42.433815,0.351 C44.107815,0.351 45.700815,0.486 46.942815,1.161 C48.238815,1.836 49.183815,3.051 49.183815,4.941 C49.183815,7.506 47.158815,8.91 45.808815,9.45 C45.673815,9.612 45.808815,9.882 45.943815,10.098 C48.103815,13.581 49.534815,15.741 51.370815,17.28 C51.829815,17.685 52.504815,17.982 53.233815,18.036 C53.368815,18.09 53.395815,18.306 53.260815,18.414 C53.017815,18.495 52.585815,18.549 52.072815,18.549 C49.777815,18.549 48.400815,17.874 46.483815,15.147 C45.781815,14.148 44.674815,12.285 43.837815,11.07 C43.432815,10.476 43.000815,10.206 41.920815,10.206 C40.705815,10.206 40.651815,10.233 40.651815,10.8 L40.651815,14.202 C40.651815,17.037 40.705815,17.361 42.271815,17.577 L42.838815,17.658 C43.000815,17.793 42.946815,18.252 42.784815,18.333 C41.569815,18.279 40.651815,18.252 39.571815,18.252 C38.437815,18.252 37.465815,18.279 36.196815,18.333 C36.034815,18.252 35.980815,17.847 36.142815,17.658 L36.817815,17.577 C38.383815,17.388 38.437815,17.037 38.437815,14.202 Z M40.651815,2.052 L40.651815,8.37 C40.651815,8.856 40.651815,9.153 40.732815,9.261 C40.813815,9.342 41.218815,9.396 42.595815,9.396 C43.567815,9.396 44.593815,9.288 45.376815,8.694 C46.105815,8.127 46.726815,7.182 46.726815,5.346 C46.726815,3.213 45.403815,1.188 42.406815,1.188 C40.732815,1.188 40.651815,1.296 40.651815,2.052 Z M55.582815,13.824 L58.795815,12.663 C59.200815,12.528 59.254815,12.285 59.254815,11.88 L59.281815,10.638 C59.308815,9.639 58.984815,8.289 57.310815,8.289 C56.554815,8.289 55.636815,8.667 55.582815,9.504 C55.555815,9.936 55.528815,10.26 55.312815,10.422 C54.907815,10.746 54.178815,10.935 53.773815,10.935 C53.530815,10.935 53.395815,10.8 53.395815,10.557 C53.395815,9.153 56.446815,7.236 58.417815,7.236 C60.361815,7.236 61.306815,8.37 61.225815,10.395 L61.063815,15.093 C61.009815,16.335 61.252815,17.442 62.305815,17.442 C62.575815,17.442 62.818815,17.361 62.980815,17.28 C63.115815,17.199 63.250815,17.091 63.331815,17.091 C63.439815,17.091 63.520815,17.253 63.520815,17.442 C63.520815,17.577 62.575815,18.63 61.252815,18.63 C60.604815,18.63 59.956815,18.387 59.497815,17.793 C59.389815,17.631 59.227815,17.415 59.065815,17.415 C58.876815,17.415 58.552815,17.658 58.012815,17.955 C57.418815,18.279 56.824815,18.63 56.068815,18.63 C55.285815,18.63 54.637815,18.414 54.178815,18.009 C53.665815,17.55 53.341815,16.875 53.341815,16.119 C53.341815,15.066 53.854815,14.445 55.582815,13.824 Z M55.420815,15.795 C55.420815,16.254 55.744815,17.415 57.121815,17.415 C57.661815,17.415 58.498815,17.01 58.768815,16.74 C59.092815,16.416 59.092815,16.038 59.119815,15.471 L59.173815,13.878 C59.173815,13.581 59.065815,13.527 58.903815,13.527 C58.741815,13.527 58.282815,13.635 57.796815,13.797 C56.203815,14.337 55.420815,14.742 55.420815,15.795 Z M65.950815,15.228 L65.950815,10.503 C65.950815,9.45 65.950815,9.315 65.221815,8.829 L64.978815,8.667 C64.870815,8.559 64.870815,8.262 65.005815,8.181 C65.626815,7.965 67.165815,7.263 67.705815,6.858 C67.813815,6.858 67.948815,6.912 68.002815,7.047 C67.948815,7.668 67.948815,8.073 67.948815,8.316 C67.948815,8.478 68.056815,8.613 68.245815,8.613 C69.379815,7.911 70.648815,7.236 72.025815,7.236 C74.266815,7.236 75.184815,8.775 75.184815,10.584 L75.184815,15.228 C75.184815,17.172 75.238815,17.442 76.210815,17.577 L76.804815,17.658 C76.993815,17.793 76.939815,18.252 76.750815,18.333 C75.940815,18.279 75.157815,18.252 74.212815,18.252 C73.240815,18.252 72.430815,18.279 71.701815,18.333 C71.512815,18.252 71.458815,17.793 71.647815,17.658 L72.160815,17.577 C73.159815,17.415 73.186815,17.172 73.186815,15.228 L73.186815,11.205 C73.186815,9.666 72.484815,8.532 70.648815,8.532 C69.622815,8.532 68.731815,8.964 68.353815,9.477 C68.002815,9.936 67.948815,10.314 67.948815,11.097 L67.948815,15.228 C67.948815,17.172 68.002815,17.415 68.974815,17.577 L69.460815,17.658 C69.649815,17.793 69.595815,18.252 69.406815,18.333 C68.677815,18.279 67.894815,18.252 66.949815,18.252 C65.977815,18.252 65.167815,18.279 64.411815,18.333 C64.222815,18.252 64.168815,17.793 64.357815,17.658 L64.924815,17.577 C65.923815,17.442 65.950815,17.172 65.950815,15.228 Z M87.334815,8.208 L89.521815,8.208 C89.818815,8.343 89.764815,9.261 89.359815,9.315 L87.415815,9.315 C87.469815,9.774 87.469815,10.233 87.469815,10.692 C87.469815,12.555 86.362815,14.985 82.933815,14.985 C82.447815,14.985 82.069815,14.931 81.745815,14.904 C81.421815,15.093 80.557815,15.606 80.557815,16.389 C80.557815,17.01 81.178815,17.523 82.447815,17.523 C83.365815,17.523 84.472815,17.442 85.660815,17.442 C87.172815,17.442 89.440815,17.712 89.440815,20.412 C89.440815,23.355 86.227815,25.515 82.717815,25.515 C79.396815,25.515 78.235815,23.733 78.235815,22.383 C78.235815,21.951 78.343815,21.6 78.532815,21.384 C78.991815,20.898 79.747815,20.196 80.368815,19.575 C80.611815,19.332 80.827815,19.089 80.584815,18.927 C79.531815,18.657 78.613815,17.739 78.613815,16.794 C78.613815,16.659 78.721815,16.551 79.018815,16.335 C79.477815,16.038 79.990815,15.579 80.449815,15.093 C80.584815,14.931 80.719815,14.715 80.719815,14.58 C79.801815,14.094 78.694815,13.041 78.694815,11.313 C78.694815,8.991 80.692815,7.236 83.095815,7.236 C84.121815,7.236 85.066815,7.506 85.687815,7.776 C86.551815,8.154 86.740815,8.208 87.334815,8.208 Z M84.796815,19.116 L83.878815,19.116 C83.014815,19.116 81.934815,19.17 81.556815,19.413 C80.908815,19.818 80.260815,20.655 80.260815,21.681 C80.260815,23.139 81.421815,24.354 83.878815,24.354 C86.281815,24.354 87.874815,23.004 87.874815,21.465 C87.874815,19.818 86.740815,19.116 84.796815,19.116 Z M83.338815,14.202 C84.796815,14.202 85.552815,13.041 85.552815,11.394 C85.552815,9.558 84.796815,8.019 83.149815,8.019 C81.853815,8.019 80.881815,9.207 80.881815,11.043 C80.881815,12.96 82.042815,14.202 83.338815,14.202 Z M98.026815,11.34 L93.031815,11.34 C92.329815,11.34 92.302815,11.394 92.302815,12.069 C92.302815,14.796 93.895815,17.118 96.784815,17.118 C97.675815,17.118 98.431815,16.848 99.268815,15.795 C99.538815,15.714 99.727815,15.876 99.754815,16.119 C98.863815,17.955 96.919815,18.63 95.515815,18.63 C93.760815,18.63 92.383815,17.874 91.600815,16.848 C90.790815,15.795 90.466815,14.526 90.466815,13.338 C90.466815,10.017 92.653815,7.236 95.893815,7.236 C98.215815,7.236 99.727815,8.829 99.727815,10.449 C99.727815,10.827 99.673815,11.043 99.619815,11.151 C99.538815,11.313 99.160815,11.34 98.026815,11.34 Z M92.788815,10.53 L94.705815,10.53 C96.703815,10.53 97.297815,10.422 97.513815,10.26 C97.594815,10.206 97.675815,10.098 97.675815,9.747 C97.675815,8.991 97.162815,8.046 95.596815,8.046 C94.003815,8.046 92.626815,9.504 92.599815,10.395 C92.599815,10.449 92.599815,10.53 92.788815,10.53 Z" id="MyRange" fill="#FFFFFF"></path>
                    <path d="M103.669815,14.202 L103.669815,3.942 C103.669815,1.944 103.561815,1.431 102.346815,1.323 L101.482815,1.242 C101.266815,1.08 101.293815,0.675 101.509815,0.567 C102.967815,0.432 104.803815,0.351 107.314815,0.351 C109.015815,0.351 110.635815,0.486 111.850815,1.107 C113.011815,1.674 113.902815,2.754 113.902815,4.482 C113.902815,6.426 112.768815,7.425 111.148815,8.181 C111.148815,8.451 111.364815,8.532 111.661815,8.586 C113.119815,8.856 115.279815,10.206 115.279815,13.095 C115.279815,16.227 112.957815,18.333 108.097815,18.333 C107.314815,18.333 105.991815,18.252 104.857815,18.252 C103.669815,18.252 102.751815,18.306 101.752815,18.333 C101.590815,18.252 101.536815,17.82 101.698815,17.658 L102.184815,17.577 C103.615815,17.334 103.669815,17.037 103.669815,14.202 Z M105.883815,9.801 L105.883815,13.797 C105.883815,14.769 105.937815,16.146 106.450815,16.74 C106.963815,17.361 107.773815,17.496 108.583815,17.496 C110.986815,17.496 112.822815,16.416 112.822815,13.716 C112.822815,11.583 111.742815,9.099 107.449815,9.099 C105.991815,9.099 105.883815,9.261 105.883815,9.801 Z M105.883815,2.052 L105.883815,7.533 C105.883815,8.289 105.910815,8.343 107.287815,8.289 C110.041815,8.181 111.526815,7.371 111.526815,4.833 C111.526815,2.187 109.555815,1.188 107.503815,1.188 C106.909815,1.188 106.504815,1.242 106.261815,1.35 C105.991815,1.431 105.883815,1.566 105.883815,2.052 Z M117.736815,9.45 C117.736815,6.453 119.086815,3.888 121.138815,2.295 C123.109815,0.756 125.620815,4.08562073e-14 128.428815,4.08562073e-14 C129.886815,4.08562073e-14 131.938815,0.297 133.207815,0.648 C133.531815,0.729 133.720815,0.783 133.963815,0.756 C133.990815,1.377 134.125815,3.078 134.341815,4.725 C134.206815,4.914 133.801815,4.941 133.612815,4.779 C133.207815,2.943 131.992815,0.837 128.077815,0.837 C123.946815,0.837 120.436815,3.456 120.436815,9.045 C120.436815,14.715 124.027815,17.847 128.455815,17.847 C131.938815,17.847 133.477815,15.579 134.098815,13.986 C134.287815,13.851 134.692815,13.905 134.800815,14.094 C134.611815,15.498 133.909815,17.28 133.504815,17.793 C133.180815,17.847 132.856815,17.955 132.559815,18.063 C131.965815,18.279 130.021815,18.684 128.293815,18.684 C125.863815,18.684 123.541815,18.198 121.570815,16.875 C119.410815,15.39 117.736815,12.933 117.736815,9.45 Z" id="BC" fill="#F1A900"></path>
                </g>
                <g id="Logo/BC/Color-Lighter">
                    <g id="BC-Logo">
                        <path d="M7.21852326,30.1954054 C7.21852326,30.5467568 7.23965116,31.0443243 7.44344186,31.2589189 C7.64723256,31.4832432 7.96869767,31.5324324 8.29016279,31.5324324 C9.24412791,31.5324324 9.97290698,31.1421622 9.97290698,30.1664865 C9.97290698,29.3954054 9.54419767,28.4975676 7.84005814,28.4975676 C7.26131395,28.4975676 7.21852326,28.5559459 7.21852326,28.7510811 L7.21852326,30.1954054 Z M7.21852326,27.9313514 C7.21852326,28.2051351 7.22895349,28.2243243 7.77587209,28.2051351 C8.86890698,28.1651351 9.45861628,27.8727027 9.45861628,26.9554054 C9.45861628,25.9989189 8.67581395,25.6381081 7.86145349,25.6381081 C7.62556977,25.6381081 7.46483721,25.6575676 7.3682907,25.6964865 C7.26131395,25.7256757 7.21852326,25.7751351 7.21852326,25.9505405 L7.21852326,27.9313514 Z M6.33917442,26.6337838 C6.33917442,25.9113514 6.28916279,25.7197297 5.80669767,25.6813514 L5.47105814,25.6575676 C5.4165,25.6140541 5.43201163,25.4181081 5.48175581,25.4135135 C6.0605,25.3616216 6.78954651,25.3356757 7.78630233,25.3356757 C8.46159302,25.3356757 9.1047907,25.3843243 9.58725581,25.6086486 C10.0480581,25.8135135 10.4018837,26.2037838 10.4018837,26.8289189 C10.4018837,27.5310811 9.95151163,27.8924324 9.3085814,28.1651351 C9.3085814,28.262973 9.39443023,28.292973 9.51237209,28.3118919 C10.0911163,28.4094595 10.9485349,28.8972973 10.9485349,29.9413514 C10.9485349,31.0737838 10.0266628,31.8348649 8.09706977,31.8348649 C7.78630233,31.8348649 7.26131395,31.8059459 6.81094186,31.8059459 C6.33917442,31.8059459 5.9749186,31.8256757 5.57830233,31.8348649 C5.51411628,31.8059459 5.49245349,31.6497297 5.55690698,31.5908108 L5.75,31.5618919 C6.31777907,31.4740541 6.33917442,31.3664865 6.33917442,30.3418919 L6.33917442,26.6337838 L6.33917442,26.6337838 Z" id="Fill-69" fill="#FFFFFF"></path>
                        <path d="M18.3983953,27.5945946 C18.3983953,26.7102703 18.3802093,26.5691892 17.8399767,26.5272973 L17.6110465,26.5105405 C17.5562209,26.4772973 17.5746744,26.327027 17.6292326,26.3021622 C18.0873605,26.3186486 18.3983953,26.327027 18.7829767,26.327027 C19.1493721,26.327027 19.460407,26.3186486 19.9182674,26.3021622 C19.9733605,26.327027 19.9915465,26.4772973 19.9367209,26.5105405 L19.7075233,26.5272973 C19.1675581,26.5691892 19.1493721,26.7102703 19.1493721,27.5945946 L19.1493721,30.5613514 C19.1493721,31.4454054 19.1675581,31.5621622 19.7075233,31.6202703 L19.9367209,31.6451351 C19.9915465,31.6783784 19.9733605,31.8283784 19.9182674,31.8535135 C19.460407,31.8367568 19.1493721,31.8283784 18.7829767,31.8283784 C18.3983953,31.8283784 18.0873605,31.8367568 17.6292326,31.8535135 C17.5746744,31.8283784 17.5562209,31.6954054 17.6110465,31.6451351 L17.8399767,31.6202703 C18.3802093,31.5621622 18.3983953,31.4454054 18.3983953,30.5613514 L18.3983953,27.5945946" id="Fill-70" fill="#FFFFFF"></path>
                        <path d="M23.4779186,30.5781081 C23.4779186,31.4537838 23.4950349,31.5783784 23.9924767,31.6202703 L24.267407,31.6451351 C24.3184884,31.6783784 24.3016395,31.8283784 24.2500233,31.8535135 C23.7608721,31.8367568 23.4696279,31.8283784 23.1262326,31.8283784 C22.7831047,31.8283784 22.4827674,31.8367568 21.9337093,31.8535135 C21.8823605,31.8283784 21.8652442,31.687027 21.9337093,31.6451351 L22.2426047,31.6202703 C22.7317558,31.5783784 22.7745465,31.4537838 22.7745465,30.5781081 L22.7745465,26.8518919 C22.7745465,26.5937838 22.7745465,26.5856757 22.5172674,26.5856757 L22.0452326,26.5856757 C21.6764302,26.5856757 21.2046628,26.6021622 20.9901744,26.7940541 C20.7842442,26.9775676 20.6983953,27.1608108 20.6042558,27.3689189 C20.5355233,27.4191892 20.4157093,27.3772973 20.3812093,27.3110811 C20.518407,26.9356757 20.647314,26.4021622 20.7072209,26.0686486 C20.7328953,26.0524324 20.8444186,26.0437838 20.870093,26.0686486 C20.9217093,26.3354054 21.2046628,26.327027 21.599407,26.327027 L25.0734767,26.327027 C25.5364186,26.327027 25.6137093,26.3102703 25.7426163,26.0937838 C25.785407,26.0767568 25.879814,26.0856757 25.8969302,26.1189189 C25.8027907,26.4605405 25.7426163,27.1356757 25.7682907,27.3856757 C25.7340581,27.4524324 25.5880349,27.4524324 25.5455116,27.4024324 C25.5198372,27.1937838 25.4596628,26.8856757 25.3310233,26.7940541 C25.1333837,26.6521622 24.8076395,26.5856757 24.3358721,26.5856757 L23.7266395,26.5856757 C23.4696279,26.5856757 23.4779186,26.5937838 23.4779186,26.8689189 L23.4779186,30.5781081" id="Fill-71" fill="#FFFFFF"></path>
                        <path d="M27.1544419,27.5945946 C27.1544419,26.7102703 27.1362558,26.5691892 26.5962907,26.5272973 L26.367093,26.5105405 C26.3122674,26.4772973 26.3307209,26.327027 26.3855465,26.3021622 C26.843407,26.3186486 27.1544419,26.327027 27.5392907,26.327027 C27.9051512,26.327027 28.2167209,26.3186486 28.6745814,26.3021622 C28.729407,26.327027 28.747593,26.4772973 28.6930349,26.5105405 L28.4638372,26.5272973 C27.9238721,26.5691892 27.9051512,26.7102703 27.9051512,27.5945946 L27.9051512,30.5613514 C27.9051512,31.4454054 27.9238721,31.5621622 28.4638372,31.6202703 L28.6930349,31.6451351 C28.747593,31.6783784 28.729407,31.8283784 28.6745814,31.8535135 C28.2167209,31.8367568 27.9051512,31.8283784 27.5392907,31.8283784 C27.1544419,31.8283784 26.843407,31.8367568 26.3855465,31.8535135 C26.3307209,31.8283784 26.3122674,31.6954054 26.367093,31.6451351 L26.5962907,31.6202703 C27.1362558,31.5621622 27.1544419,31.4454054 27.1544419,30.5613514 L27.1544419,27.5945946" id="Fill-72" fill="#FFFFFF"></path>
                        <path d="M31.2575349,31.9391892 C30.4399651,31.9391892 29.9243372,31.7221622 29.7392674,31.6310811 C29.6221279,31.447027 29.4958953,30.8554054 29.4763721,30.4635135 C29.5247791,30.4048649 29.6710698,30.3886486 29.7101163,30.4386486 C29.8558721,30.8637838 30.2548953,31.68 31.3840349,31.68 C32.2016047,31.68 32.6006279,31.2224324 32.6006279,30.7221622 C32.6006279,30.3556757 32.5131744,29.9467568 31.802314,29.5551351 L30.8777674,29.0383784 C30.3910233,28.7632432 29.8264535,28.2881081 29.8264535,27.6043243 C29.8264535,26.8127027 30.5469419,26.1705405 31.8122093,26.1705405 C32.1141512,26.1705405 32.4642326,26.2208108 32.7172326,26.2794595 C32.8442674,26.312973 32.9801279,26.3289189 33.0579535,26.3289189 C33.1456744,26.5291892 33.2333953,26.9962162 33.2333953,27.3462162 C33.1943488,27.3962162 33.0386977,27.4210811 32.9897558,27.3713514 C32.8635233,26.9708108 32.6006279,26.4289189 31.666186,26.4289189 C30.7124884,26.4289189 30.5081628,26.9708108 30.5081628,27.3543243 C30.5081628,27.8381081 30.9751163,28.1881081 31.3353605,28.38 L32.1141512,28.7967568 C32.7271279,29.1213514 33.3304767,29.6045946 33.3304767,30.397027 C33.3304767,31.3132432 32.5228023,31.9391892 31.2575349,31.9391892" id="Fill-73" fill="#FFFFFF"></path>
                        <path d="M36.1565349,29.1362162 C35.7305,29.1362162 35.7128488,29.1532432 35.7128488,29.402973 L35.7128488,30.5781081 C35.7128488,31.4537838 35.7572442,31.5705405 36.2541512,31.6202703 L36.5114302,31.6451351 C36.5649186,31.6783784 36.547,31.8283784 36.4937791,31.8535135 C36.0145233,31.8367568 35.7128488,31.8283784 35.3665116,31.8283784 C34.9848721,31.8283784 34.6831977,31.8448649 34.3371279,31.8535135 C34.283907,31.8283784 34.2659884,31.6954054 34.3194767,31.6451351 L34.4700465,31.6202703 C34.9672209,31.537027 34.9848721,31.4537838 34.9848721,30.5781081 L34.9848721,27.5778378 C34.9848721,26.7021622 34.923093,26.5610811 34.4609535,26.5272973 L34.2304186,26.5105405 C34.1771977,26.4772973 34.1951163,26.327027 34.2480698,26.3021622 C34.6831977,26.3102703 34.9848721,26.327027 35.3665116,26.327027 C35.7128488,26.327027 36.0145233,26.3186486 36.3961628,26.3021622 C36.4493837,26.327027 36.4670349,26.4772973 36.4140814,26.5105405 L36.2453256,26.5272973 C35.7305,26.5772973 35.7128488,26.7021622 35.7128488,27.5778378 L35.7128488,28.5359459 C35.7128488,28.7945946 35.7305,28.8027027 36.1565349,28.8027027 L38.6948256,28.8027027 C39.1211279,28.8027027 39.139314,28.7945946 39.139314,28.5359459 L39.139314,27.5778378 C39.139314,26.7021622 39.1211279,26.5772973 38.5974767,26.5272973 L38.4289884,26.5105405 C38.3755,26.4772973 38.3931512,26.327027 38.4466395,26.3021622 C38.8550233,26.3186486 39.1569651,26.327027 39.5204186,26.327027 C39.8667558,26.327027 40.1684302,26.3186486 40.5677209,26.3021622 C40.6212093,26.327027 40.6388605,26.4772973 40.5856395,26.5105405 L40.3989651,26.5272973 C39.8846744,26.5772973 39.8667558,26.7021622 39.8667558,27.5778378 L39.8667558,30.5781081 C39.8667558,31.4537838 39.8846744,31.5621622 40.3989651,31.6202703 L40.6121163,31.6451351 C40.6656047,31.6783784 40.6479535,31.8283784 40.5944651,31.8535135 C40.1684302,31.8367568 39.8667558,31.8283784 39.5204186,31.8283784 C39.1569651,31.8283784 38.8373721,31.8367568 38.4466395,31.8535135 C38.3931512,31.8283784 38.3755,31.6954054 38.4289884,31.6451351 L38.5974767,31.6202703 C39.139314,31.537027 39.139314,31.4537838 39.139314,30.5781081 L39.139314,29.402973 C39.139314,29.1532432 39.1211279,29.1362162 38.6948256,29.1362162 L36.1565349,29.1362162" id="Fill-74" fill="#FFFFFF"></path>
                        <path d="M1.25965116,33.6851351 C1.98896512,33.1116216 2.91859302,32.83 3.95760465,32.83 C4.49756977,32.83 5.25710465,32.9402703 5.72673256,33.0713514 C5.84681395,33.1018919 5.91661628,33.1218919 6.00647674,33.1116216 C6.01663953,33.3432432 6.06665116,33.9772973 6.14634884,34.5910811 C6.09633721,34.6616216 5.94656977,34.6716216 5.87676744,34.6113514 C5.72673256,33.9267568 5.27689535,33.1418919 3.82789535,33.1418919 C2.29893023,33.1418919 0.999697674,34.1178378 0.999697674,36.2010811 C0.999697674,38.3145946 2.32861628,39.4824324 3.9675,39.4824324 C5.25710465,39.4824324 5.82648837,38.6364865 6.05648837,38.0427027 C6.12655814,37.9924324 6.27659302,38.0127027 6.31644186,38.0832432 C6.24663953,38.6067568 5.98668605,39.2708108 5.83665116,39.4621622 C5.71656977,39.4824324 5.59702326,39.5224324 5.48683721,39.5627027 C5.267,39.6432432 4.54731395,39.7940541 3.90786047,39.7940541 C3.00845349,39.7940541 2.14889535,39.612973 1.41931395,39.1194595 C0.619930233,38.5662162 0,37.6505405 0,36.3521622 C0,35.2351351 0.499848837,34.2791892 1.25965116,33.6851351" id="Fill-75" fill="#FFFFFF"></path>
                        <path d="M11.9479651,37.1154054 C11.9479651,35.74 11.3154651,34.2562162 9.66133721,34.2562162 C8.76059302,34.2562162 7.59160465,34.8481081 7.59160465,36.6740541 C7.59160465,37.9072973 8.21501163,39.5081081 9.92102326,39.5081081 C10.9605698,39.5081081 11.9479651,38.7578378 11.9479651,37.1154054 Z M6.72536047,36.9405405 C6.72536047,35.2737838 8.02432558,33.9978378 9.80869767,33.9978378 C11.8091628,33.9978378 12.8136744,35.39 12.8136744,36.857027 C12.8136744,38.5410811 11.4802093,39.7662162 9.80869767,39.7662162 C7.88605814,39.7662162 6.72536047,38.4413514 6.72536047,36.9405405 L6.72536047,36.9405405 Z" id="Fill-76" fill="#FFFFFF"></path>
                        <path d="M22.5849302,36.2235135 C22.5849302,35.707027 22.5672791,34.7486486 22.4185814,34.4981081 C22.3576047,34.3986486 22.2000814,34.3394595 21.9815814,34.322973 L21.7630814,34.3064865 C21.7106628,34.2475676 21.7280465,34.14 21.7804651,34.1062162 C22.1126279,34.122973 22.4362326,34.1313514 22.7772209,34.1313514 C23.1444186,34.1313514 23.3805698,34.122973 23.6953488,34.1062162 C23.7651512,34.1481081 23.756593,34.2562162 23.713,34.3064865 L23.5030581,34.322973 C23.2842907,34.3394595 23.1179419,34.4148649 23.0657907,34.5232432 C22.9435698,34.7983784 22.9435698,35.757027 22.9435698,36.2235135 L22.9435698,37.1659459 C22.9435698,37.8908108 22.820814,38.6578378 22.3313953,39.1581081 C21.9553721,39.5494595 21.3084302,39.7662162 20.6612209,39.7662162 C20.0578721,39.7662162 19.4547907,39.6578378 19.0266163,39.3078378 C18.5628721,38.9413514 18.3443721,38.3327027 18.3443721,37.3408108 L18.3443721,35.372973 C18.3443721,34.5064865 18.3267209,34.3648649 17.8196512,34.322973 L17.6011512,34.3064865 C17.5487326,34.2735135 17.5663837,34.1313514 17.6185349,34.1062162 C18.0558023,34.122973 18.3529302,34.1313514 18.7030116,34.1313514 C19.0613837,34.1313514 19.349686,34.122973 19.7783953,34.1062162 C19.8305465,34.1313514 19.8481977,34.2735135 19.7957791,34.3064865 L19.5858372,34.322973 C19.0787674,34.3648649 19.0613837,34.5064865 19.0613837,35.372973 L19.0613837,37.1737838 C19.0613837,38.5159459 19.4983837,39.3994595 20.8361279,39.3994595 C22.1038023,39.3994595 22.5849302,38.4494595 22.5849302,37.1821622 L22.5849302,36.2235135" id="Fill-77" fill="#FFFFFF"></path>
                        <path d="M33.5398837,38.2556757 C33.5398837,38.5581081 33.5591395,38.9878378 33.7426047,39.172973 C33.9263372,39.3667568 34.2159767,39.4089189 34.5058837,39.4089189 C35.3659767,39.4089189 36.0233488,39.0721622 36.0233488,38.2302703 C36.0233488,37.5654054 35.6366279,36.7905405 34.1001744,36.7905405 C33.5783953,36.7905405 33.5398837,36.8410811 33.5398837,37.0091892 L33.5398837,38.2556757 Z M33.5398837,36.3021622 C33.5398837,36.5381081 33.5495116,36.5545946 34.0421395,36.5381081 C35.0279302,36.5043243 35.5596047,36.2518919 35.5596047,35.4597297 C35.5596047,34.6348649 34.854093,34.3235135 34.1196977,34.3235135 C33.906814,34.3235135 33.7621279,34.3408108 33.6746744,34.3740541 C33.5783953,34.3994595 33.5398837,34.4416216 33.5398837,34.592973 L33.5398837,36.3021622 Z M32.7474535,35.1824324 C32.7474535,34.5597297 32.7086744,34.3994595 32.273814,34.3656757 L31.9643837,34.3354054 C31.9293488,34.3035135 31.9106279,34.1345946 31.9742791,34.13 C32.4960581,34.0905405 33.1531628,34.0627027 34.0520349,34.0627027 C34.6607326,34.0627027 35.2402791,34.1051351 35.6756744,34.2983784 C36.0910116,34.4751351 36.4098023,34.8118919 36.4098023,35.3508108 C36.4098023,35.9572973 36.0038256,36.2686486 35.4242791,36.5043243 C35.4242791,36.5883784 35.5013023,36.6140541 35.6077442,36.6305405 C36.1297907,36.7148649 36.9026977,37.1356757 36.9026977,38.0364865 C36.9026977,39.0132432 36.0717558,39.6694595 34.3317791,39.6694595 C34.0520349,39.6694595 33.5783953,39.6443243 33.172686,39.6443243 C32.7474535,39.6443243 32.4187674,39.6613514 32.0609302,39.6694595 C32.0028953,39.6443243 31.983907,39.51 32.0416744,39.46 L32.2157791,39.4340541 C32.7279302,39.3583784 32.7474535,39.2656757 32.7474535,38.3818919 L32.7474535,35.1824324 L32.7474535,35.1824324 Z" id="Fill-78" fill="#FFFFFF"></path>
                        <path d="M13.662,28.9062162 C13.4959186,28.9062162 13.1632209,28.9689189 13.1632209,28.7456757 L13.1632209,27.1467568 C13.1632209,26.5218919 13.1832791,26.4321622 13.9256977,26.4321622 C14.7959535,26.4321622 15.3335116,26.8786486 15.3335116,27.7005405 C15.3335116,28.0575676 15.2064767,28.3878378 14.8839419,28.6116216 C14.5124651,28.8705405 14.1115698,28.9062162 13.662,28.9062162 Z M16.9988721,31.6451351 L16.7699419,31.6251351 C16.7236744,31.6202703 16.6827558,31.6145946 16.6434419,31.6081081 C16.3086047,31.5481081 16.1743488,31.2464865 16.0165581,30.967027 L15.2251977,29.5735135 C15.0882674,29.3413514 14.9417093,29.0286486 14.6288023,28.9840541 C15.4399535,28.8859459 16.1732791,28.4124324 16.1732791,27.5997297 C16.1732791,26.6616216 15.2543488,26.2421622 14.3255233,26.2421622 C13.7684419,26.2421622 13.2605698,26.257027 12.693593,26.257027 C12.380686,26.257027 12.0089419,26.2421622 11.6960349,26.2421622 C11.5224651,26.2421622 11.5203256,26.2781081 11.5203256,26.3759459 C11.5203256,26.5210811 11.5807674,26.4808108 11.7650349,26.4908108 C12.4250814,26.5283784 12.3999419,26.652973 12.3999419,27.2245946 L12.3999419,30.8778378 C12.3999419,31.4002703 12.4446047,31.5564865 11.9014302,31.6059459 C11.9014302,31.6059459 11.8182558,31.6145946 11.771186,31.6194595 L11.5409186,31.6435135 C11.4858256,31.6935135 11.5042791,31.8267568 11.5596395,31.8516216 C11.681593,31.8472973 11.8984884,31.8383784 11.8984884,31.8383784 C12.1993605,31.8294595 12.4999651,31.8064865 12.8011047,31.8064865 C13.1030465,31.8064865 13.3924186,31.83 13.6895465,31.8383784 L13.6895465,31.8389189 C13.795186,31.8427027 13.9067093,31.8456757 14.0286628,31.8505405 C14.0840233,31.8256757 14.1022093,31.6918919 14.0473837,31.6421622 L13.8157791,31.62 C13.7684419,31.6154054 13.687407,31.6072973 13.687407,31.6072973 C13.1386163,31.5697297 13.1720465,31.4137838 13.1720465,30.8778378 L13.1720465,29.5024324 C13.1720465,29.4213514 13.1624186,29.2075676 13.2209884,29.1448649 C13.2701977,29.0908108 13.3579186,29.1002703 13.4360116,29.1002703 C14.1792326,29.1002703 14.1693372,29.1716216 14.5212907,29.7967568 L15.479,31.5386486 C15.5573605,31.6727027 15.6161977,31.8427027 15.8116977,31.8427027 L16.6434419,31.8427027 C16.7485465,31.8456757 16.859,31.8491892 16.980686,31.8535135 C17.0355116,31.8289189 17.0539651,31.6954054 16.9988721,31.6451351 L16.9988721,31.6451351 Z" id="Fill-79" fill="#FFFFFF"></path>
                        <path d="M13.8414535,35.4016216 C13.8414535,34.5267568 13.8232674,34.3932432 13.2517442,34.3516216 L13.024686,34.3345946 C12.9706628,34.3013514 12.9885814,34.1518919 13.0431395,34.1264865 C13.5512791,34.142973 13.8596395,34.1513514 14.2225581,34.1513514 C14.5763837,34.1513514 14.8847442,34.142973 15.338593,34.1267568 C15.3931512,34.1518919 15.4110698,34.3013514 15.3567791,34.3345946 L15.1390814,34.3516216 C14.6036628,34.3932432 14.5854767,34.5267568 14.5854767,35.4016216 L14.5854767,38.3027027 C14.5854767,38.8275676 14.6127558,39.0443243 14.7758953,39.202973 C14.8756512,39.2945946 15.0481512,39.3945946 15.7651628,39.3945946 C16.5361977,39.3945946 16.7266163,39.3616216 16.8721047,39.2862162 C17.0536977,39.1862162 17.289314,38.8864865 17.470907,38.4608108 C17.5251977,38.4194595 17.6976977,38.452973 17.6976977,38.5108108 C17.6976977,38.602973 17.4436279,39.4535135 17.316593,39.6778378 C16.8539186,39.6613514 15.991686,39.652973 15.0572442,39.652973 L14.2225581,39.652973 C13.8414535,39.652973 13.5512791,39.6613514 13.0431395,39.6778378 C12.9885814,39.652973 12.9706628,39.5194595 13.024686,39.4697297 L13.2972093,39.4445946 C13.8232674,39.3945946 13.8414535,39.2775676 13.8414535,38.4027027 L13.8414535,35.4016216" id="Fill-80" fill="#FFFFFF"></path>
                        <path d="M38.147907,35.4183784 C38.147907,34.5345946 38.1299884,34.3932432 37.6041977,34.3516216 L37.381686,34.3345946 C37.3281977,34.3013514 37.3458488,34.1518919 37.3996047,34.1264865 C37.8451628,34.142973 38.147907,34.1513514 38.5217907,34.1513514 C38.8782907,34.1513514 39.1813023,34.142973 39.626593,34.1267568 C39.6800814,34.1518919 39.6977326,34.3013514 39.6442442,34.3345946 L39.4214651,34.3516216 C38.8959419,34.3932432 38.8782907,34.5345946 38.8782907,35.4183784 L38.8782907,38.3862162 C38.8782907,39.2694595 38.8959419,39.3867568 39.4214651,39.4445946 L39.6442442,39.4697297 C39.6977326,39.502973 39.6800814,39.652973 39.626593,39.6778378 C39.1813023,39.6613514 38.8782907,39.652973 38.5217907,39.652973 C38.147907,39.652973 37.8451628,39.6613514 37.3996047,39.6778378 C37.3458488,39.652973 37.3281977,39.5194595 37.381686,39.4697297 L37.6041977,39.4445946 C38.1299884,39.3867568 38.147907,39.2694595 38.147907,38.3862162 L38.147907,35.4183784" id="Fill-81" fill="#FFFFFF"></path>
                        <path d="M31.029407,39.442973 C30.9836744,39.4381081 30.8983605,39.4305405 30.8983605,39.4305405 C30.8042209,39.4210811 30.7202442,39.4078378 30.6533837,39.3343243 C30.5375814,39.2105405 30.5474767,38.8564865 30.5474767,38.7151351 L30.5474767,35.0624324 C30.5474767,34.9035135 30.5092326,34.5583784 30.6245,34.4343243 C30.6825349,34.3691892 30.8026163,34.3578378 30.909593,34.3518919 L30.909593,34.3516216 C30.9745814,34.3462162 30.9764535,34.3462162 31.0334186,34.3432432 L31.2623488,34.327027 C31.3174419,34.2940541 31.2989884,34.1432432 31.2438953,34.1183784 C31.1216744,34.122973 31.0104186,34.1213514 30.9047791,34.1248649 L29.9312907,34.1248649 C29.8253837,34.1248649 29.7293721,34.1248649 29.6713372,34.24 L27.6882558,38.4143243 L25.9365116,34.3818919 C25.8787442,34.24 25.8691163,34.1248649 25.6859186,34.1248649 L24.6728488,34.1248649 C24.5674767,34.1216216 24.4511395,34.122973 24.3286512,34.1183784 C24.2738256,34.1432432 24.2556395,34.2940541 24.3104651,34.327027 L24.5391279,34.3432432 C24.5867326,34.3472973 24.6720465,34.3532432 24.6720465,34.3532432 C25.0520814,34.3781081 25.0756163,34.4635135 25.0408488,34.8675676 L24.7429186,38.7859459 C24.7164419,39.1789189 24.695314,39.3872973 24.2874651,39.4251351 C24.2874651,39.4251351 24.2013488,39.4362162 24.1540116,39.4413514 L23.9250814,39.4664865 C23.8699884,39.5156757 23.8884419,39.6497297 23.9435349,39.6743243 C24.0641512,39.67 24.2786395,39.6637838 24.2786395,39.6637838 C24.4851047,39.6537838 24.6958488,39.6348649 24.906593,39.6348649 C25.1333837,39.6348649 25.3609767,39.6562162 25.5883023,39.6656757 L25.5883023,39.6662162 C25.6936744,39.6691892 25.8051977,39.6727027 25.927686,39.6772973 C25.9825116,39.6527027 26.0006977,39.5191892 25.9461395,39.4689189 L25.7169419,39.4440541 C25.6567674,39.4391892 25.5893721,39.4327027 25.5893721,39.4327027 C25.001,39.3918919 25.0138372,38.9718919 25.0504767,38.4589189 L25.3299535,34.8151351 L25.3973488,34.8151351 L27.2937791,39.2989189 C27.3127674,39.3605405 27.3416512,39.4667568 27.4379302,39.4667568 C27.5248488,39.4667568 27.5534651,39.3694595 27.5826163,39.3075676 L29.7194767,34.7081081 L29.7871395,34.7081081 L29.7871395,38.7151351 C29.7871395,38.8740541 29.8063953,39.2016216 29.6424535,39.3254054 C29.5568721,39.3894595 29.279,39.4281081 29.279,39.4281081 C29.2404884,39.4340541 29.2003721,39.4397297 29.1551744,39.4445946 L28.9259767,39.4697297 C28.8711512,39.5194595 28.8893372,39.652973 28.9444302,39.6778378 C29.0650465,39.6737838 29.279,39.6664865 29.279,39.6664865 C29.5892326,39.6578378 29.9045465,39.6348649 30.2201279,39.6348649 C30.4466512,39.6348649 30.8911395,39.657027 30.8911395,39.657027 C30.9967791,39.6597297 31.1173953,39.6713514 31.2398837,39.6759459 C31.2949767,39.6513514 31.3131628,39.5175676 31.2580698,39.4675676 L31.029407,39.442973" id="Fill-82" fill="#FFFFFF"></path>
                        <path d="M43.5010233,37.4021622 L42.4299186,37.4021622 C42.3924767,37.4021622 42.0942791,37.4375676 42.0942791,37.3489189 C42.0942791,37.322973 42.113,37.2697297 42.1223605,37.2435135 L42.7652907,35.6343243 C42.7840116,35.5905405 42.8492674,35.3694595 42.9236163,35.3694595 C42.9792442,35.3694595 43.0541279,35.5991892 43.0728488,35.6343243 L43.7058837,37.137027 C43.7058837,37.1551351 43.7711395,37.2956757 43.7711395,37.3316216 C43.7711395,37.4289189 43.5569186,37.4021622 43.5010233,37.4021622 Z M45.9053256,39.4659459 L45.8748372,39.4408108 C45.8291047,39.4354054 45.7887209,39.4294595 45.7499419,39.4235135 C45.3934419,39.342973 45.2543721,38.9086486 45.1227907,38.5997297 L43.2870698,34.2089189 C43.2688837,34.1564865 43.2325116,34.042973 43.1595,34.042973 C43.0594767,34.042973 43.0324651,34.1651351 43.005186,34.2351351 L41.2515698,38.6175676 C41.1879186,38.782973 41.0242442,39.1854054 40.9060349,39.3078378 C40.8153721,39.4021622 40.6976977,39.4197297 40.572,39.4327027 C40.572,39.4327027 40.4730465,39.4427027 40.4257093,39.4475676 L40.2101512,39.4697297 C40.1550581,39.5194595 40.1735116,39.652973 40.2283372,39.6778378 C40.3508256,39.6737838 40.5677209,39.6656757 40.5677209,39.6656757 C40.8076163,39.6624324 41.0475116,39.6318919 41.2879419,39.6318919 C41.489593,39.6318919 41.6917791,39.6537838 41.8936977,39.6624324 C41.8936977,39.6624324 42.110593,39.6702703 42.2325465,39.6748649 C42.2876395,39.65 42.3058256,39.5164865 42.2512674,39.4664865 L42.0220698,39.4413514 C41.9766047,39.437027 41.8979767,39.4286486 41.8979767,39.4286486 C41.6872326,39.4054054 41.4243372,39.3672973 41.4243372,39.132973 C41.4243372,38.9756757 41.496814,38.7918919 41.5513721,38.6521622 L41.8238953,37.9962162 C41.9600233,37.6816216 41.9057326,37.6459459 42.2689186,37.6459459 L43.5050349,37.6459459 C43.9409651,37.6459459 43.8775814,37.6459459 44.0685349,38.0927027 L44.3592442,38.757027 C44.4049767,38.8708108 44.4862791,39.0632432 44.4862791,39.1854054 C44.4862791,39.4054054 44.2490581,39.42 44.0270814,39.4389189 C44.0270814,39.4389189 43.9535349,39.4454054 43.8896163,39.4497297 L43.6695116,39.4664865 C43.614686,39.5162162 43.6328721,39.6497297 43.6876977,39.6743243 C43.810186,39.67 44.0270814,39.6613514 44.0270814,39.6613514 C44.2856977,39.6518919 44.5456512,39.6318919 44.7954419,39.6318919 C45.1136977,39.6318919 45.4319535,39.6537838 45.7502093,39.6624324 C45.8545116,39.6654054 45.7662558,39.6691892 45.8871395,39.6737838 C45.9419651,39.6489189 45.9604186,39.5154054 45.9053256,39.4659459 L45.9053256,39.4659459 Z" id="Fill-83" fill="#FFFFFF"></path>
                        <path d="M10.1306977,20.4640541 C15.9291047,20.4640541 23.9499535,23.7635135 29.7697558,23.7635135 C33.9228605,23.7635135 37.975407,22.6432432 40.282093,20.9943243 C40.443093,20.0256757 40.5281395,19.0308108 40.5281395,18.0162162 C40.5281395,8.16810811 32.6281744,0.184324324 22.8831279,0.184324324 C13.137814,0.184324324 5.23784884,8.16810811 5.23784884,18.0162162 C5.23784884,19.0191892 5.3212907,20.0027027 5.47881395,20.9605405 C6.1147907,20.8413514 8.27732558,20.4640541 10.1306977,20.4640541" id="Fill-84" fill="#FFFFFE"></path>
                        <polyline id="Fill-85" fill="#F1A900" points="34.2825698 13.8932432 34.9800581 14.1856757 36.5272093 13.0951351 34.2825698 13.8932432"></polyline>
                        <path d="M8.28454651,12.6754054 L6.45069767,12.0232432 L6.54243023,11.7962162 L8.60788372,12.4921622 L8.61697674,12.4872973 L8.8895,12.3310811 L8.9980814,12.2621622 L6.74595349,11.2940541 L6.84089535,11.0562162 L11.868,13.1105405 L12.0335465,13.0410811 L7.04843023,10.5862162 L7.1594186,10.3551351 L12.4424651,12.84 L12.5154767,12.8024324 L7.39289535,9.86648649 L7.498,9.64567568 L14.8951744,13.7132432 C14.9561512,13.6 15.0829186,13.3940541 15.1481744,13.2832432 C12.3357558,10.6113514 9.62175581,8.60459459 9.62175581,8.60459459 C9.62175581,8.60459459 12.4127791,10.4937838 15.8571628,12.2497297 C15.971093,12.1062162 16.0641628,11.9908108 16.1858488,11.8545946 L9.8752907,6.24027027 L10.0445814,6.06459459 L15.1380116,10.4513514 L10.4195349,5.67594595 L10.5960465,5.49108108 L15.8938023,10.6651351 L10.9621744,5.13405405 L11.1507209,4.96189189 L15.7087326,9.89459459 L11.5486744,4.59702703 L11.7278605,4.43243243 L17.0603837,10.9908108 C17.1981163,10.8702703 17.3128488,10.78 17.457,10.6681081 C15.8440581,7.14081081 14.0824186,4.27108108 14.0824186,4.27108108 C14.0824186,4.27108108 15.957186,7.06027027 18.4869186,9.98108108 C18.6417674,9.89351351 18.7982209,9.80891892 18.9584186,9.73 L18.9316744,9.71216216 L15.1941744,2.17486486 L15.4164186,2.07594595 L18.5128605,8.07135135 L15.9079767,1.8572973 L16.1401163,1.75297297 L19.1343953,8.55594595 L16.6121512,1.56027027 L16.8507093,1.47216216 L19.2483256,7.77108108 L17.3548372,1.28459459 L17.5821628,1.2 L20.0752558,9.24513514 L20.0704419,9.26648649 L20.076593,9.26405405 C20.2421395,9.20756757 20.4108953,9.15810811 20.5807209,9.11162162 C20.3908372,5.2472973 19.8251977,1.94162162 19.8251977,1.94162162 C19.8251977,1.94162162 20.5253605,5.21810811 21.7812674,8.87135135 C21.9564419,8.84972973 22.1321512,8.83135135 22.3097326,8.81891892 L22.3041163,8.81081081 L22.3257791,8.81081081 L22.3134767,8.79243243 L21.6421977,0.389189189 L21.8847674,0.381621622 L22.5330465,7.1127027 L22.4217907,0.365135135 L22.675593,0.356216216 L22.9296628,7.7972973 L23.1842674,0.356216216 L23.4383372,0.365135135 L23.326814,7.1127027 L23.9748256,0.381621622 L24.2176628,0.389189189 L23.5463837,8.79243243 L23.533814,8.81081081 L23.5375581,8.81081081 L23.535686,8.81351351 L23.5463837,8.81351351 C23.7202209,8.82459459 23.8924535,8.84216216 24.0633488,8.8627027 C25.3173837,5.21297297 26.0164767,1.94162162 26.0164767,1.94162162 C26.0164767,1.94162162 25.4527093,5.2372973 25.2617558,9.09432432 C25.433186,9.14027027 25.6024767,9.19027027 25.7693605,9.24567568 L28.2536279,1.22837838 L28.4814884,1.31324324 L26.5871977,7.79972973 L28.9853488,1.50108108 L29.2236395,1.58918919 L26.7013953,8.58459459 L29.695407,1.78162162 L29.9280814,1.88594595 L27.3229302,8.1 L30.4193721,2.10459459 L30.6413488,2.20351351 L26.9177558,9.71351351 L26.923907,9.71621622 C27.0774186,9.79189189 27.2277209,9.87243243 27.3761512,9.95594595 C29.8949186,7.04405405 31.7592558,4.27108108 31.7592558,4.27108108 C31.7592558,4.27108108 30.0096512,7.12108108 28.4012558,10.6313514 C28.5451395,10.7410811 28.6855465,10.8545946 28.8222093,10.9721622 L34.0921512,4.48540541 L34.2718721,4.65 L30.1112791,9.9472973 L34.6692907,5.01486486 L34.8578372,5.18702703 L29.9259419,10.7183784 L35.2236977,5.54378378 L35.4007442,5.72891892 L30.682,10.5045946 L35.7754302,6.11756757 L35.9447209,6.29324324 L29.711186,11.8443243 L29.7149302,11.8481081 C29.8237791,11.9705405 29.9283488,12.097027 30.031314,12.2256757 C33.4540349,10.4764865 36.2199186,8.60459459 36.2199186,8.60459459 C36.2199186,8.60459459 33.5323953,10.5916216 30.734686,13.2445946 C30.8111744,13.3737838 30.935,13.5945946 31.0056047,13.7275676 L38.2979419,9.71486486 L38.4038488,9.93621622 L32.5821744,13.2724324 L38.6370581,10.4251351 L38.7480465,10.6556757 L33.1085,13.4327027 L33.216814,13.4708108 L38.9550465,11.1254054 L39.0505233,11.3637838 L33.7163953,13.6562162 L33.8161512,13.6981081 L37.3704535,12.5008108 L37.906407,12.1227027 L38.0839884,12.2597297 L39.2537791,11.8659459 L39.3457791,12.0927027 L38.3337791,12.4524324 L39.7958837,13.58 L40.2644419,13.8440541 C38.384593,5.90351351 31.3166395,0 22.8831279,0 C14.3014535,0 7.13374419,6.1127027 5.40767442,14.2640541 C5.42987209,14.2532432 5.45126744,14.2432432 5.47346512,14.2324324 L5.68768605,14.1343243 L5.819,14.0724324 L8.28454651,12.6754054" id="Fill-86" fill="#F1A900"></path>
                        <path d="M5.3065814,21.3459459 C5.3065814,21.3459459 7.94302326,20.8140541 10.1435349,20.8140541 C15.9419419,20.8140541 23.9627907,24.1132432 29.782593,24.1132432 C34.0520349,24.1132432 38.2155698,22.9297297 40.4850814,21.2037838 C40.6621279,20.182973 40.7551977,19.1332432 40.7551977,18.0608108 C40.7551977,16.6086486 40.5848372,15.197027 40.2644419,13.8440541 L37.8379419,12.4764865 L34.9915581,14.4943243 L33.076407,13.7405405 C32.4278605,14.0716216 28.4285349,16.7745946 28.4285349,16.7745946 L26.8931512,15.6518919 L25.2462442,15.3218919 L23.0497442,13.7062162 L20.5307093,15.4537838 C20.5307093,15.4537838 17.7198953,17.1032432 17.6233488,17.1032432 C17.5265349,17.1032432 14.2324535,14.4643243 14.2324535,14.4643243 L12.7147209,12.8483784 C12.4563721,13.0132432 11.4237791,13.4918919 11.4237791,13.4918919 L11.3705581,13.5062162 L10.3719302,13.1937838 L9.15854651,12.5437838 L5.47346512,14.2324324 C5.45126744,14.2432432 5.42987209,14.2532432 5.40767442,14.2640541 C5.14852326,15.4886486 5.0107907,16.7583784 5.0107907,18.0608108 C5.0107907,19.1827027 5.11295349,20.2805405 5.3065814,21.3459459" id="Fill-87" fill="#6681AA"></path>
                    </g>
                </g>
            </g>
        </g>
    </g>
</svg>