<?xml version="1.0" encoding="UTF-8"?>
<svg width="324px" height="36px" viewBox="0 0 324 36" version="1.1" xmlns="http://www.w3.org/2000/svg" xmlns:xlink="http://www.w3.org/1999/xlink">
    <!-- Generator: Sketch 53 (72520) - https://sketchapp.com -->
    <title>MyRangeBC-Logo-Rev</title>
    <desc>Created with Sketch.</desc>
    <g id="MyRange-Web-Mockups" stroke="none" stroke-width="1" fill="none" fill-rule="evenodd">
        <g id="Landing-Page" transform="translate(-91.000000, -112.000000)">
            <g id="MyRangeBC-Logo-Rev" transform="translate(91.000000, 112.000000)">
                <path d="M180.044681,8.03238481 L180.044681,30.3443267 L177.162785,30.3443267 L177.162785,14.4649363 C177.162785,14.2266925 177.170532,13.9729148 177.186026,13.7035957 C177.20152,13.4342765 177.219597,13.1597823 177.240256,12.8801048 L169.834094,26.5065484 C169.575859,27.0141114 169.178182,27.267889 168.641052,27.267889 L168.17623,27.267889 C167.6391,27.267889 167.246588,27.0141114 166.998681,26.5065484 L159.453074,12.8334921 C159.51505,13.413564 159.546038,13.9573733 159.546038,14.4649363 L159.546038,30.3443267 L156.648649,30.3443267 L156.648649,8.03238481 L159.09671,8.03238481 C159.385934,8.03238481 159.610596,8.06087006 159.770702,8.11784141 C159.930808,8.17481276 160.083165,8.33277642 160.227777,8.59173711 L167.664926,21.9540421 C167.809538,22.2233613 167.943818,22.5082138 168.067772,22.8086082 C168.191725,23.1090026 168.310511,23.4093925 168.424135,23.7097869 C168.641053,23.0986396 168.89412,22.5082181 169.183344,21.9385046 L176.481047,8.59173711 C176.615329,8.33277642 176.762521,8.17481276 176.922627,8.11784141 C177.082733,8.06087006 177.307395,8.03238481 177.596619,8.03238481 L180.044681,8.03238481 Z M198.684036,14.5581617 L189.945385,34.9279081 C189.852421,35.1557935 189.728469,35.3318841 189.573528,35.4561853 C189.418587,35.5804864 189.191343,35.642636 188.891789,35.642636 L186.64515,35.642636 L189.527046,29.3499226 L183.066022,14.5581617 L185.700013,14.5581617 C185.958248,14.5581617 186.159669,14.6203113 186.304281,14.7446125 C186.448893,14.8689136 186.552186,15.0087503 186.614162,15.1641267 L190.61163,24.6420407 C190.694265,24.8802846 190.774317,25.1211144 190.851788,25.3645374 C190.929259,25.6079605 190.993817,25.8487903 191.045464,26.0870342 C191.11777,25.8384319 191.195239,25.5924229 191.277875,25.3489999 C191.36051,25.1055768 191.448309,24.864747 191.541274,24.6265032 L195.399295,15.1641267 C195.471601,14.9880334 195.585223,14.8430176 195.740164,14.7290749 C195.895106,14.6151322 196.070703,14.5581617 196.266962,14.5581617 L198.684036,14.5581617 Z M207.918496,18.7843791 C208.765509,18.7843791 209.511799,18.6807964 210.157388,18.4736278 C210.802977,18.2664593 211.342681,17.9738381 211.776517,17.5957554 C212.210353,17.2176728 212.535725,16.767088 212.752643,16.2439874 C212.969561,15.7208868 213.078018,15.1434131 213.078018,14.511549 C213.078018,13.2271039 212.657101,12.2586055 211.815252,11.6060245 C210.973404,10.9534436 209.710651,10.627158 208.026954,10.627158 L204.912648,10.627158 L204.912648,18.7843791 L207.918496,18.7843791 Z M218.299517,30.3443267 L215.355645,30.3443267 C214.766868,30.3443267 214.338203,30.1112656 214.069638,29.6451363 L208.569247,21.9074295 C208.393646,21.6484688 208.202555,21.4646094 207.995966,21.3558459 C207.789378,21.2470824 207.4795,21.1927015 207.066323,21.1927015 L204.912648,21.1927015 L204.912648,30.3443267 L201.612413,30.3443267 L201.612413,8.03238481 L208.026954,8.03238481 C209.462745,8.03238481 210.699675,8.17999019 211.737782,8.47520538 C212.775889,8.77042057 213.633219,9.18993061 214.309796,9.73374807 C214.986374,10.2775655 215.487343,10.9327263 215.81272,11.6992499 C216.138097,12.4657736 216.300783,13.3255102 216.300783,14.2784855 C216.300783,15.0553676 216.181996,15.7856258 215.94442,16.4692821 C215.706843,17.1529383 215.35823,17.7666659 214.89857,18.3104834 C214.438911,18.8543008 213.878548,19.3230127 213.217465,19.7166329 C212.556382,20.1102532 211.807509,20.4106431 210.970826,20.6178116 C211.384003,20.8664139 211.740363,21.213416 212.039916,21.6588284 L218.299517,30.3443267 Z M228.990419,23.3368853 C227.761217,23.3783191 226.717961,23.4741331 225.860619,23.6243303 C225.003276,23.7745275 224.30605,23.9739242 223.76892,24.2225265 C223.23179,24.4711288 222.844443,24.76375 222.606866,25.1003989 C222.369289,25.4370478 222.250502,25.8125351 222.250502,26.2268722 C222.250502,26.6204925 222.31506,26.9597259 222.444178,27.2445827 C222.573296,27.5294395 222.748894,27.7625006 222.970976,27.9437731 C223.193059,28.1250456 223.453873,28.2571135 223.753426,28.339981 C224.05298,28.4228484 224.378352,28.4642815 224.729552,28.4642815 C225.194376,28.4642815 225.620459,28.4176692 226.007812,28.3244434 C226.395166,28.2312175 226.759272,28.0991496 227.100143,27.9282355 C227.441014,27.7573214 227.766386,27.5475664 228.076269,27.2989642 C228.386152,27.0503619 228.690865,26.7655094 228.990419,26.4443981 L228.990419,23.3368853 Z M220.127816,16.7644958 C221.005817,15.9254631 221.958692,15.2987876 222.98647,14.8844505 C224.014248,14.4701134 225.142721,14.262948 226.371923,14.262948 C227.270583,14.262948 228.065936,14.4105534 228.758008,14.7057685 C229.450079,15.0009837 230.033683,15.4127251 230.508837,15.9410049 C230.98399,16.4692847 231.342932,17.1011393 231.585674,17.8365877 C231.828415,18.5720361 231.949784,19.3851604 231.949784,20.2759852 L231.949784,30.3443267 L230.601801,30.3443267 C230.302248,30.3443267 230.075004,30.2951249 229.920062,30.1967198 C229.765121,30.0983148 229.64117,29.9144554 229.548205,29.6451363 L229.22283,28.2622931 C228.819982,28.6351965 228.422305,28.9640717 228.029787,29.2489284 C227.637269,29.5337852 227.22668,29.7772046 226.798009,29.979194 C226.369338,30.1811833 225.912268,30.3339678 225.426785,30.4375521 C224.941302,30.5411364 224.40418,30.5929277 223.815402,30.5929277 C223.195637,30.5929277 222.614615,30.507472 222.072321,30.3365579 C221.530026,30.1656439 221.057462,29.9040975 220.654614,29.5519109 C220.251766,29.1997244 219.934141,28.7594978 219.701729,28.231218 C219.469317,27.7029382 219.353113,27.086621 219.353113,26.3822479 C219.353113,25.7607422 219.520964,25.162552 219.85667,24.5876592 C220.192376,24.0127665 220.739828,23.4974425 221.49904,23.0416716 C222.258253,22.5859008 223.249863,22.213003 224.4739,21.922967 C225.697937,21.632931 227.203428,21.4671987 228.990419,21.425765 L228.990419,20.2759852 C228.990419,19.084766 228.737352,18.1939546 228.23121,17.6035242 C227.725068,17.0130938 226.98136,16.7178831 226.000065,16.7178831 C225.338982,16.7178831 224.783784,16.8007493 224.334454,16.9664841 C223.885124,17.1322189 223.497776,17.3160783 223.172399,17.5180676 C222.847022,17.720057 222.562967,17.9039163 222.320226,18.0696511 C222.077484,18.235386 221.826999,18.3182522 221.568764,18.3182522 C221.362175,18.3182522 221.183995,18.2612817 221.034219,18.147339 C220.884442,18.0333963 220.763073,17.8987387 220.670108,17.7433623 L220.127816,16.7644958 Z M238.844642,16.7489582 C239.185513,16.3864132 239.541872,16.0549485 239.913732,15.7545541 C240.285591,15.4541597 240.680686,15.1977925 241.099027,14.9854447 C241.517369,14.7730969 241.966692,14.6073646 242.447011,14.4882426 C242.927329,14.3691207 243.44121,14.3095607 243.98867,14.3095607 C244.856341,14.3095607 245.618125,14.4545765 246.274044,14.7446125 C246.929962,15.0346484 247.479996,15.4412106 247.924161,15.9643112 C248.368326,16.4874118 248.704028,17.1166769 248.931275,17.8521253 C249.158522,18.5875736 249.272144,19.400698 249.272144,20.2915228 L249.272144,30.3443267 L246.235309,30.3443267 L246.235309,20.2915228 C246.235309,19.1624542 245.977077,18.2845906 245.460605,17.6579057 C244.944134,17.0312208 244.153945,16.7178831 243.090014,16.7178831 C242.315307,16.7178831 241.589676,16.9017424 240.913099,17.2694666 C240.236521,17.6371908 239.609018,18.1369774 239.03057,18.7688415 L239.03057,30.3443267 L236.009228,30.3443267 L236.009228,14.5581617 L237.822033,14.5581617 C238.24554,14.5581617 238.508936,14.760148 238.612231,15.1641267 L238.844642,16.7489582 Z M258.878462,22.4667818 C259.415592,22.4667818 259.888156,22.3942739 260.296169,22.2492559 C260.704181,22.1042379 261.045047,21.899662 261.318777,21.6355221 C261.592507,21.3713822 261.799092,21.0528653 261.938539,20.6799619 C262.077986,20.3070585 262.147709,19.8979067 262.147709,19.4524943 C262.147709,18.5409527 261.871401,17.8132841 261.318777,17.2694666 C260.766153,16.7256491 259.952722,16.4537445 258.878462,16.4537445 C257.814531,16.4537445 257.006266,16.7256491 256.453642,17.2694666 C255.901017,17.8132841 255.624709,18.5409527 255.624709,19.4524943 C255.624709,19.8979067 255.694432,20.3044689 255.833879,20.6721931 C255.973326,21.0399173 256.179912,21.3558446 256.453642,21.6199845 C256.727371,21.8841244 257.068237,22.0912899 257.47625,22.2414871 C257.884262,22.3916843 258.351662,22.4667818 258.878462,22.4667818 Z M263.697115,31.1678176 C263.697115,30.7949142 263.593822,30.4971139 263.387234,30.2744077 C263.180645,30.0517015 262.899173,29.8756108 262.542808,29.7461305 C262.186442,29.6166501 261.770689,29.5234257 261.295536,29.4664543 C260.820382,29.409483 260.321995,29.3654603 259.800359,29.334385 C259.278723,29.3033098 258.744183,29.2748245 258.196724,29.2489284 C257.649264,29.2230324 257.122471,29.1738306 256.616329,29.1013216 C256.079199,29.3706407 255.637623,29.6969263 255.291587,30.0801881 C254.945551,30.4634499 254.772536,30.9140348 254.772536,31.4319562 C254.772536,31.7634259 254.857753,32.074174 255.028188,32.36421 C255.198624,32.654246 255.46202,32.9054341 255.818385,33.1177819 C256.17475,33.3301296 256.624074,33.495862 257.166368,33.6149839 C257.708663,33.7341058 258.356825,33.7936659 259.110873,33.7936659 C259.854592,33.7936659 260.5105,33.7289267 261.078619,33.5994464 C261.646737,33.469966 262.124466,33.2886962 262.511819,33.0556316 C262.899173,32.822567 263.193557,32.5454832 263.394981,32.2243719 C263.596405,31.9032607 263.697115,31.5510794 263.697115,31.1678176 Z M266.764939,15.1485891 L266.764939,16.2828313 C266.764939,16.6557347 266.532531,16.8887958 266.067706,16.9820217 L264.378854,17.2306227 C264.523466,17.551734 264.637088,17.8909674 264.719723,18.2483331 C264.802359,18.6056989 264.843676,18.9811863 264.843676,19.3748065 C264.843676,20.1516886 264.693901,20.8534616 264.394348,21.4801464 C264.094795,22.1068313 263.681624,22.6428719 263.154823,23.0882843 C262.628022,23.5336967 262.000519,23.8755197 261.272295,24.1137635 C260.54407,24.3520074 259.746134,24.4711275 258.878462,24.4711275 C258.165732,24.4711275 257.499494,24.3934405 256.879728,24.2380641 C256.569846,24.4245158 256.334855,24.6290916 256.174749,24.8517978 C256.014642,25.074504 255.934591,25.2946173 255.934591,25.5121443 C255.934591,25.8746893 256.086947,26.1440044 256.391665,26.3200976 C256.696383,26.4961909 257.09406,26.6230797 257.584708,26.7007679 C258.075356,26.7784562 258.638301,26.827658 259.273561,26.8483748 C259.90882,26.8690917 260.5544,26.902756 261.210318,26.949369 C261.866237,26.9959819 262.511816,27.0788481 263.147076,27.19797 C263.782336,27.3170919 264.345281,27.50872 264.835929,27.7728599 C265.326576,28.0369998 265.724253,28.3995393 266.028971,28.8604893 C266.333689,29.3214394 266.486046,29.9196296 266.486046,30.655078 C266.486046,31.3387342 266.318195,32.0016637 265.982489,32.6438862 C265.646783,33.2861087 265.158725,33.8558137 264.5183,34.3530182 C263.877876,34.8502228 263.098016,35.2490162 262.178697,35.5494106 C261.259378,35.8498051 260.216122,36 259.048897,36 C257.881672,36 256.866821,35.886059 256.004314,35.6581736 C255.141807,35.4302882 254.423923,35.1247191 253.850639,34.7414573 C253.277356,34.3581955 252.848692,33.9127898 252.564632,33.4052268 C252.280573,32.8976639 252.138546,32.369392 252.138546,31.8203953 C252.138546,31.0538716 252.376119,30.40389 252.851273,29.870431 C253.326426,29.336972 253.982335,28.9200515 254.819018,28.6196571 C254.364524,28.4124885 254.002999,28.1302256 253.734434,27.7728599 C253.465869,27.4154941 253.331588,26.9416031 253.331588,26.3511728 C253.331588,26.1232873 253.372905,25.8876366 253.455541,25.6442136 C253.538176,25.4007905 253.66471,25.1573711 253.835145,24.9139481 C254.005581,24.670525 254.217331,24.4400535 254.470402,24.2225265 C254.723473,24.0049995 255.015275,23.8081923 255.345816,23.6320991 C254.571109,23.1970451 253.961682,22.6195714 253.517517,21.8996607 C253.073352,21.1797499 252.851273,20.3381403 252.851273,19.3748065 C252.851273,18.5979244 253.001047,17.8987411 253.3006,17.2772354 C253.600154,16.6557297 254.015907,16.1222787 254.547872,15.6768663 C255.079838,15.2314539 255.715088,14.8896309 256.453642,14.6513871 C257.192196,14.4131432 258.000461,14.2940231 258.878462,14.2940231 C260.241946,14.2940231 261.414319,14.5788756 262.395614,15.1485891 L266.764939,15.1485891 Z M279.950385,20.6954995 C279.950385,20.0947107 279.865168,19.5405431 279.694733,19.0329801 C279.524297,18.5254172 279.273813,18.0851906 278.943271,17.7122872 C278.612729,17.3393838 278.209888,17.0493521 277.734734,16.8421836 C277.259581,16.635015 276.712129,16.5314323 276.092364,16.5314323 C274.821844,16.5314323 273.822488,16.899151 273.094263,17.6345994 C272.366039,18.3700477 271.903804,19.3903376 271.707545,20.6954995 L279.950385,20.6954995 Z M282.444929,28.0913799 C282.073069,28.5264339 281.644405,28.9019213 281.158922,29.2178533 C280.673439,29.5337854 280.156975,29.7901526 279.609516,29.9869627 C279.062056,30.1837729 278.496529,30.3287887 277.912916,30.4220145 C277.329303,30.5152404 276.753447,30.5618526 276.185328,30.5618526 C275.100739,30.5618526 274.096217,30.3779933 273.171733,30.0102691 C272.24725,29.6425449 271.446731,29.1039147 270.770154,28.3943624 C270.093577,27.6848101 269.566784,26.804357 269.18976,25.7529765 C268.812736,24.7015961 268.624226,23.4922678 268.624226,22.1249554 C268.624226,21.026962 268.794659,20.0040826 269.13553,19.0562865 C269.476402,18.1084903 269.96446,17.2824181 270.599719,16.578045 C271.234979,15.8736719 272.012257,15.3195043 272.931575,14.9155257 C273.850894,14.511547 274.883821,14.3095607 276.030388,14.3095607 C276.991024,14.3095607 277.876759,14.4675243 278.687619,14.7834564 C279.498479,15.0993884 280.198287,15.557742 280.787064,16.1585308 C281.375842,16.7593196 281.838076,17.4999361 282.173783,18.3804024 C282.509489,19.2608688 282.67734,20.2656212 282.67734,21.3946898 C282.67734,21.8608191 282.625693,22.1741568 282.522399,22.3347125 C282.419105,22.4952681 282.228013,22.5755447 281.949119,22.5755447 L271.630074,22.5755447 C271.661063,23.5181616 271.795343,24.3390547 272.03292,25.0382486 C272.270497,25.7374425 272.598451,26.3200953 273.016793,26.7862246 C273.435134,27.2523538 273.933522,27.5993559 274.51197,27.8272413 C275.090417,28.0551267 275.735997,28.1690677 276.448727,28.1690677 C277.12014,28.1690677 277.701161,28.0913807 278.191809,27.9360043 C278.682457,27.7806279 279.105957,27.6123059 279.462322,27.4310335 C279.818687,27.249761 280.118236,27.081439 280.360978,26.9260626 C280.603719,26.7706862 280.818051,26.6929992 281.003981,26.6929992 C281.251887,26.6929992 281.442979,26.7862236 281.577261,26.9726753 L282.444929,28.0913799 Z M294.499308,27.7184784 C295.335992,27.7184784 296.051294,27.6200748 296.645236,27.4232647 C297.239178,27.2264545 297.724653,26.9571395 298.101677,26.6153113 C298.478701,26.2734832 298.755009,25.866921 298.93061,25.3956126 C299.10621,24.9243041 299.194009,24.4089801 299.194009,23.849625 C299.194009,22.7412732 298.811826,21.8685887 298.047448,21.2315454 C297.283071,20.5945021 296.100369,20.2759852 294.499308,20.2759852 L289.85109,20.2759852 L289.85109,27.7184784 L294.499308,27.7184784 Z M289.85109,10.627158 L289.85109,17.9298131 L293.647135,17.9298131 C295.268855,17.9298131 296.474797,17.6009379 297.264998,16.9431778 C298.055199,16.2854176 298.450294,15.3971957 298.450294,14.2784855 C298.450294,13.0043989 298.073275,12.0773335 297.319227,11.4972616 C296.565179,10.9171896 295.392807,10.627158 293.802075,10.627158 L289.85109,10.627158 Z M293.802075,8.03238481 C295.196548,8.03238481 296.392161,8.16704235 297.38895,8.43636147 C298.38574,8.70568059 299.204335,9.09411581 299.844759,9.60167877 C300.485184,10.1092417 300.957748,10.7229694 301.262466,11.4428801 C301.567184,12.1627908 301.71954,12.9785048 301.71954,13.8900464 C301.71954,14.4286847 301.636906,14.9465983 301.471636,15.4438028 C301.306365,15.9410074 301.053298,16.4045401 300.712427,16.8344148 C300.371555,17.2642896 299.942891,17.6501352 299.426419,17.9919633 C298.909948,18.3337914 298.300521,18.6186439 297.59812,18.8465293 C300.83123,19.4887519 302.447761,21.1823294 302.447761,23.9273128 C302.447761,24.8802881 302.272164,25.7477934 301.920963,26.5298547 C301.569763,27.311916 301.058464,27.9877933 300.387051,28.5575068 C299.715639,29.1272204 298.889297,29.567447 297.908002,29.8781998 C296.926706,30.1889526 295.811145,30.3443267 294.561284,30.3443267 L286.550855,30.3443267 L286.550855,8.03238481 L293.802075,8.03238481 Z M322.218183,25.558757 C322.404113,25.558757 322.564216,25.6312649 322.698499,25.7762829 L324,27.2057388 C323.091011,28.2830153 321.983196,29.1168562 320.676524,29.7072866 C319.369852,30.297717 317.79722,30.5929277 315.958582,30.5929277 C314.347192,30.5929277 312.888183,30.3132544 311.58151,29.7538993 C310.274838,29.1945442 309.159277,28.4124946 308.234793,27.4077271 C307.310309,26.4029596 306.595007,25.2014 306.088866,23.8030123 C305.582724,22.4046245 305.329657,20.8664211 305.329657,19.1883558 C305.329657,17.5102905 305.595635,15.972087 306.127601,14.5736992 C306.659566,13.1753115 307.405856,11.9737519 308.366493,10.9689844 C309.327129,9.96421691 310.476261,9.18216734 311.813921,8.62281224 C313.151582,8.06345714 314.63125,7.78378378 316.25297,7.78378378 C317.833372,7.78378378 319.238152,8.04274059 320.467354,8.56066198 C321.696556,9.07858337 322.765635,9.76740849 323.674625,10.627158 L322.59004,12.1653768 C322.517734,12.2793195 322.427353,12.372544 322.318894,12.445053 C322.210435,12.517562 322.068408,12.5538159 321.892808,12.5538159 C321.696549,12.5538159 321.466722,12.4554123 321.203322,12.2586022 C320.939922,12.0617921 320.593891,11.8416788 320.16522,11.5982557 C319.736549,11.3548327 319.207174,11.1347194 318.577079,10.9379093 C317.946984,10.7410991 317.161959,10.6426956 316.221981,10.6426956 C315.116733,10.6426956 314.104464,10.8369132 313.185146,11.2253542 C312.265827,11.6137953 311.473055,12.173142 310.806807,12.9034111 C310.140559,13.6336803 309.624096,14.5296708 309.257401,15.5914097 C308.890706,16.6531485 308.707362,17.8521186 308.707362,19.1883558 C308.707362,20.5453098 308.898453,21.7520485 309.280642,22.8086082 C309.662831,23.8651678 310.189624,24.7611584 310.861036,25.4966067 C311.532449,26.2320551 312.322638,26.7914018 313.231628,27.1746637 C314.140617,27.5579255 315.121898,27.7495535 316.175499,27.7495535 C316.815924,27.7495535 317.39178,27.71071 317.903087,27.6330218 C318.414394,27.5553336 318.884375,27.438803 319.313047,27.2834266 C319.741718,27.1280502 320.147142,26.9286534 320.52933,26.6852304 C320.911519,26.4418073 321.288537,26.1491861 321.660397,25.807358 C321.743032,25.734849 321.830831,25.675289 321.923796,25.628676 C322.016761,25.5820631 322.114889,25.558757 322.218183,25.558757 Z" id="MyRangeBC" fill="#FFFFFF" fill-rule="nonzero" opacity="0.900000036"></path>
                <g id="BCGovernmentLogo_Rev" transform="translate(-0.000000, 0.000000)">
                    <g id="Group-41">
                        <g>
                            <g>
                                <polygon id="Fill-1" fill="#F3B229" points="64.3431574 34.9124767 122.997634 34.9124767 122.997634 34.2025521 64.3431574 34.2025521"></polygon>
                                <g id="Group-40" transform="translate(0.000000, 0.114072)">
                                    <g id="BC-Text" transform="translate(55.284999, 6.581644)" fill="#FFFFFF">
                                        <path d="M12.0266441,7.99898095 C12.0266441,8.5773416 12.0622473,9.39631369 12.4016892,9.74988037 C12.7411311,10.1192645 13.2770429,10.1994683 13.8127683,10.1994683 C15.4020498,10.1994683 16.6164725,9.55727957 16.6164725,7.95097031 C16.6164725,6.6820381 15.902172,5.20412938 13.0626782,5.20412938 C12.0982233,5.20412938 12.0266441,5.30052282 12.0266441,5.62171023 L12.0266441,7.99898095 Z M12.0266441,4.27238813 C12.0266441,4.72253434 12.0445389,4.75435534 12.9553094,4.72253434 C14.7768504,4.6579619 15.7593864,4.17599468 15.7593864,2.66626495 C15.7593864,1.09214887 14.4553033,0.49778467 13.0984678,0.49778467 C12.7053415,0.49778467 12.4372924,0.529977847 12.2767984,0.594178113 C12.0982233,0.642374834 12.0266441,0.72295082 12.0266441,1.01157288 L12.0266441,4.27238813 Z M10.5622534,2.13628711 C10.5622534,0.947744794 10.4781852,0.63288436 9.67459704,0.568311918 L9.11557111,0.529977847 C9.02460591,0.457775809 9.05032967,0.135844041 9.13346591,0.128400532 C10.0973616,0.0426140895 11.3123436,7.10542736e-15 12.9732042,7.10542736e-15 C14.0983394,7.10542736e-15 15.1699766,0.0802038104 15.9739376,0.449587949 C16.7417361,0.786964998 17.3311459,1.42933983 17.3311459,2.45728844 C17.3311459,3.61400975 16.5808694,4.20837395 15.5094185,4.6579619 C15.5094185,4.8185556 15.6523905,4.86693841 15.848674,4.89875942 C16.8131289,5.0597253 18.24173,5.86269384 18.24173,7.58140009 C18.24173,9.4446965 16.7061329,10.6976252 13.4910348,10.6976252 C12.9732042,10.6976252 12.0982233,10.6492424 11.3479467,10.6492424 C10.5622534,10.6492424 9.95513523,10.6818077 9.29414625,10.6976252 C9.18696389,10.6492424 9.1511743,10.3924413 9.25835666,10.2958618 L9.58009016,10.247665 C10.5262774,10.1030749 10.5622534,9.92647763 10.5622534,8.23996455 L10.5622534,2.13628711 Z" id="Fill-2"></path>
                                        <path d="M30.6550321,3.71732565 C30.6550321,2.26305007 30.6244619,2.02988214 29.7245028,1.96140186 L29.3429336,1.93386088 C29.2512228,1.878965 29.2821659,1.6318405 29.3735039,1.59071511 C30.1362695,1.61807 30.6550321,1.6318405 31.2955167,1.6318405 C31.9059901,1.6318405 32.42438,1.61807 33.1871456,1.59071511 C33.2788564,1.6318405 33.3090539,1.878965 33.2177159,1.93386088 L32.8365195,1.96140186 C31.9361876,2.02988214 31.9059901,2.26305007 31.9059901,3.71732565 L31.9059901,8.6019424 C31.9059901,10.0560319 31.9361876,10.2482605 32.8365195,10.3444679 L33.2177159,10.3854072 C33.3090539,10.4403031 33.2788564,10.6870554 33.1871456,10.7283669 C32.42438,10.7008259 31.9059901,10.6870554 31.2955167,10.6870554 C30.6550321,10.6870554 30.1362695,10.7008259 29.3735039,10.7283669 C29.2821659,10.6870554 29.2512228,10.467658 29.3429336,10.3854072 L29.7245028,10.3444679 C30.6244619,10.2482605 30.6550321,10.0560319 30.6550321,8.6019424 L30.6550321,3.71732565 Z" id="Fill-4"></path>
                                        <path d="M39.1182261,8.62939034 C39.1182261,10.0698954 39.1465596,10.2757085 39.9760579,10.3443748 L40.4333072,10.3855002 C40.5188666,10.44021 40.4903468,10.6869623 40.4047873,10.7284599 C39.590015,10.7009189 39.1040594,10.6869623 38.5319852,10.6869623 C37.9604702,10.6869623 37.4601616,10.7009189 36.545663,10.7284599 C36.4597307,10.6869623 36.4310245,10.4541666 36.545663,10.3855002 L37.0601384,10.3443748 C37.8749107,10.2757085 37.9459307,10.0698954 37.9459307,8.62939034 L37.9459307,2.49612494 C37.9459307,2.07091449 37.9459307,2.05751617 37.5173876,2.05751617 L36.7313215,2.05751617 C36.1167472,2.05751617 35.3308674,2.08487107 34.9733443,2.40028977 C34.6303608,2.70212406 34.4872024,3.00414444 34.3302502,3.34691803 C34.2156116,3.4293549 34.0157864,3.36068852 33.9585604,3.25089677 C34.1869054,2.63364377 34.4016429,1.75549579 34.5013691,1.20672308 C34.5448013,1.17936819 34.7304598,1.1655977 34.7729599,1.20672308 C34.8588922,1.64551794 35.3308674,1.63193354 35.9883147,1.63193354 L41.7767216,1.63193354 C42.5484346,1.63193354 42.6770534,1.60457864 42.8914182,1.24784847 C42.9631837,1.22049358 43.1205088,1.23426407 43.1488422,1.28878777 C42.9915172,1.85170315 42.8914182,2.96283296 42.9344775,3.37445902 C42.8772514,3.48425078 42.6343669,3.48425078 42.5629741,3.402 C42.5201012,3.05866814 42.4200022,2.55120691 42.205451,2.40028977 C41.8768206,2.16674967 41.3340118,2.05751617 40.5475729,2.05751617 L39.5329753,2.05751617 C39.1040594,2.05751617 39.1182261,2.07091449 39.1182261,2.52366593 L39.1182261,8.62939034 Z" id="Fill-6"></path>
                                        <path d="M45.2444345,3.71732565 C45.2444345,2.26305007 45.2138643,2.02988214 44.3139052,1.96140186 L43.932336,1.93386088 C43.840998,1.878965 43.8715683,1.6318405 43.9629063,1.59071511 C44.7256719,1.61807 45.2444345,1.6318405 45.8852919,1.6318405 C46.4953925,1.6318405 47.0137824,1.61807 47.776548,1.59071511 C47.8682588,1.6318405 47.8988291,1.878965 47.8074911,1.93386088 L47.425549,1.96140186 C46.52559,2.02988214 46.4953925,2.26305007 46.4953925,3.71732565 L46.4953925,8.6019424 C46.4953925,10.0560319 46.52559,10.2482605 47.425549,10.3444679 L47.8074911,10.3854072 C47.8988291,10.4403031 47.8682588,10.6870554 47.776548,10.7283669 C47.0137824,10.7008259 46.4953925,10.6870554 45.8852919,10.6870554 C45.2444345,10.6870554 44.7256719,10.7008259 43.9629063,10.7283669 C43.8715683,10.6870554 43.840998,10.467658 43.932336,10.3854072 L44.3139052,10.3444679 C45.2138643,10.2482605 45.2444345,10.0560319 45.2444345,8.6019424 L45.2444345,3.71732565 Z" id="Fill-8"></path>
                                        <path d="M52.0805816,10.8689003 C50.718154,10.8689003 49.8586446,10.5121701 49.550705,10.3614391 C49.3559127,10.0594187 49.1450897,9.08543553 49.1126554,8.44045547 C49.1939276,8.3444342 49.4369985,8.31707931 49.5018671,8.39933008 C49.7454973,9.09901994 50.4102144,10.4433177 52.2914047,10.4433177 C53.6536459,10.4433177 54.3185494,9.68891803 54.3185494,8.86566593 C54.3185494,8.26218343 54.172595,7.58984847 52.988556,6.94486841 L51.4481125,6.09407532 C50.637441,5.64150997 49.6966594,4.85938325 49.6966594,3.73448294 C49.6966594,2.43093841 50.8965427,1.37451839 53.0049596,1.37451839 C53.5073187,1.37451839 54.0913228,1.45676916 54.5129689,1.55279043 C54.7237919,1.60768631 54.9508321,1.63504121 55.0805694,1.63504121 C55.2265238,1.96478866 55.372851,2.73295879 55.372851,3.3090864 C55.3076096,3.39152326 55.0481351,3.43246256 54.9672357,3.35021179 C54.7564126,2.69183341 54.3185494,1.79991493 52.7617022,1.79991493 C51.1722344,1.79991493 50.8318605,2.69183341 50.8318605,3.3226708 C50.8318605,4.11856801 51.610284,4.69506779 52.2101325,5.01048649 L53.5073187,5.69640585 C54.5293724,6.23140806 55.5348362,7.02711918 55.5348362,8.33066371 C55.5348362,9.83983518 54.1889985,10.8689003 52.0805816,10.8689003" id="Fill-10"></path>
                                        <path d="M60.2430499,6.25559947 C59.5334094,6.25559947 59.5039576,6.28295436 59.5039576,6.69458042 L59.5039576,8.62933451 C59.5039576,10.0698396 59.57796,10.2620682 60.4061535,10.3445051 L60.8346965,10.3854444 C60.9234249,10.4403403 60.893973,10.6869065 60.8052447,10.7284041 C60.0066895,10.7008631 59.5039576,10.6869065 58.9268504,10.6869065 C58.2908396,10.6869065 57.7881077,10.7144475 57.2113734,10.7284041 C57.1230179,10.6869065 57.0931932,10.4676952 57.1819216,10.3854444 L57.4331943,10.3445051 C58.2617606,10.2071724 58.2908396,10.0698396 58.2908396,8.62933451 L58.2908396,3.69000798 C58.2908396,2.24931679 58.1879445,2.01633496 57.4186548,1.96143908 L57.0341031,1.93389809 C56.9453747,1.87900222 56.9748266,1.63187771 57.063555,1.59075233 C57.7881077,1.60452282 58.2908396,1.63187771 58.9268504,1.63187771 C59.5039576,1.63187771 60.0066895,1.61810722 60.6425139,1.59075233 C60.7312422,1.63187771 60.7606941,1.87900222 60.6723385,1.93389809 L60.3908683,1.96143908 C59.5334094,2.04368985 59.5039576,2.24931679 59.5039576,3.69000798 L59.5039576,5.26765973 C59.5039576,5.69287018 59.5334094,5.70682676 60.2430499,5.70682676 L64.4727456,5.70682676 C65.1827588,5.70682676 65.2122107,5.69287018 65.2122107,5.26765973 L65.2122107,3.69000798 C65.2122107,2.24931679 65.1827588,2.04368985 64.3103876,1.96143908 L64.0292902,1.93389809 C63.9405618,1.87900222 63.9700137,1.63187771 64.0589284,1.59075233 C64.7393034,1.61810722 65.2420353,1.63187771 65.8482215,1.63187771 C66.4249558,1.63187771 66.9276877,1.61810722 67.5933368,1.59075233 C67.6820651,1.63187771 67.711517,1.87900222 67.6227886,1.93389809 L67.3126122,1.96143908 C66.4547805,2.04368985 66.4249558,2.24931679 66.4249558,3.69000798 L66.4249558,8.62933451 C66.4249558,10.0698396 66.4547805,10.2482977 67.3126122,10.3445051 L67.6675256,10.3854444 C67.7560676,10.4403403 67.7264293,10.6869065 67.6380738,10.7284041 C66.9276877,10.7008631 66.4249558,10.6869065 65.8482215,10.6869065 C65.2420353,10.6869065 64.7094788,10.7008631 64.0589284,10.7284041 C63.9700137,10.6869065 63.9405618,10.4676952 64.0292902,10.3854444 L64.3103876,10.3445051 C65.2122107,10.2071724 65.2122107,10.0698396 65.2122107,8.62933451 L65.2122107,6.69458042 C65.2122107,6.28295436 65.1827588,6.25559947 64.4727456,6.25559947 L60.2430499,6.25559947 Z" id="Fill-12"></path>
                                        <path d="M2.09816467,13.742988 C3.31370588,12.798965 4.86235123,12.3352344 6.59423183,12.3352344 C7.49325886,12.3352344 8.75856996,12.5172282 9.54146723,12.7327178 C9.74129243,12.7824032 9.857795,12.8157129 10.0076639,12.798965 C10.0242539,13.1800727 10.1075765,14.2232805 10.240669,15.2339229 C10.1575328,15.3498556 9.9077513,15.3666035 9.79124873,15.2672326 C9.54146723,14.1408436 8.7921227,12.8484643 6.37763025,12.8484643 C3.82985886,12.8484643 1.66514792,14.4555179 1.66514792,17.8843704 C1.66514792,21.3629083 3.87981516,23.2846362 6.61063539,23.2846362 C8.75856996,23.2846362 9.7079261,21.8930722 10.0908001,20.9155534 C10.2074891,20.8331165 10.457457,20.865868 10.5238169,20.9819867 C10.4075007,21.8433868 9.97429757,22.9364661 9.72451606,23.2515126 C9.52469086,23.2846362 9.32505205,23.3508835 9.14181681,23.4167585 C8.77534633,23.5498113 7.57658149,23.7980523 6.51072279,23.7980523 C5.01222014,23.7980523 3.58026376,23.5001258 2.36453615,22.688039 C1.03230597,21.7769535 1.70530257e-13,20.2700151 1.70530257e-13,18.1331697 C1.70530257e-13,16.2940647 0.832667164,14.7205069 2.09816467,13.742988" id="Fill-14"></path>
                                        <path d="M19.9065797,19.3894107 C19.9065797,17.1254674 18.8533964,14.6832521 16.0970388,14.6832521 C14.5962993,14.6832521 12.6483764,15.6574214 12.6483764,18.662366 C12.6483764,20.6927692 13.6872065,23.3272131 16.5298692,23.3272131 C18.2617498,23.3272131 19.9065797,22.092335 19.9065797,19.3894107 M11.2050494,19.1011608 C11.2050494,16.3571112 13.3697603,14.2580416 16.3425331,14.2580416 C19.6758114,14.2580416 21.3497203,16.5491537 21.3497203,18.9640142 C21.3497203,21.7356048 19.1274105,23.7524236 16.3425331,23.7524236 C13.138992,23.7524236 11.2050494,21.5707311 11.2050494,19.1011608" id="Fill-16"></path>
                                        <path d="M37.630274,17.9214205 C37.630274,17.0708135 37.6011949,15.4926035 37.3532775,15.0813496 C37.2513144,14.9166619 36.9892302,14.8204546 36.6249966,14.7929136 L36.2609494,14.7655587 C36.1737123,14.6695374 36.2024185,14.4912654 36.289842,14.4361834 C36.8434622,14.4635383 37.3827293,14.4774949 37.9507026,14.4774949 C38.5626673,14.4774949 38.9561664,14.4635383 39.4805212,14.4365556 C39.5970237,14.505222 39.5824842,14.6833079 39.5096002,14.7655587 L39.1597197,14.7929136 C38.7956725,14.8204546 38.518676,14.9440168 38.4316252,15.122475 C38.2276991,15.5750403 38.2276991,17.1530642 38.2276991,17.9214205 L38.2276991,19.4717173 C38.2276991,20.6656562 38.0234002,21.9277031 37.2078823,22.7507692 C36.581378,23.3957492 35.5034031,23.7524794 34.4254281,23.7524794 C33.4201507,23.7524794 32.4148734,23.5740213 31.7009456,22.9978937 C30.9288598,22.3944112 30.5648126,21.3927009 30.5648126,19.7601533 L30.5648126,16.5218547 C30.5648126,15.0951201 30.5355471,14.8617661 29.6909501,14.7929136 L29.32653,14.7655587 C29.2391065,14.7106628 29.2679992,14.477681 29.3552363,14.4361834 C30.0842628,14.4635383 30.5793521,14.4774949 31.1622377,14.4774949 C31.7592901,14.4774949 32.2402127,14.4635383 32.9537676,14.4365556 C33.0411912,14.477681 33.070643,14.7106628 32.9832195,14.7655587 L32.633339,14.7929136 C31.7883691,14.8617661 31.7592901,15.0951201 31.7592901,16.5218547 L31.7592901,19.4854878 C31.7592901,21.6943491 32.4877574,23.1489969 34.7165913,23.1489969 C36.8289227,23.1489969 37.630274,21.5845574 37.630274,19.4994444 L37.630274,17.9214205 Z" id="Fill-18"></path>
                                        <path d="M55.8833,21.2655472 C55.8833,21.7644484 55.9153616,22.4710235 56.2210643,22.7760213 C56.5273262,23.0947895 57.0104857,23.1640142 57.4932723,23.1640142 C58.9265336,23.1640142 60.0212849,22.6096588 60.0212849,21.2238635 C60.0212849,20.1291094 59.3772587,18.8545946 56.8171846,18.8545946 C55.9474231,18.8545946 55.8833,18.9372175 55.8833,19.2146743 L55.8833,21.2655472 Z M55.8833,18.0503234 C55.8833,18.4386885 55.8993308,18.4662295 56.7202545,18.4386885 C58.3630339,18.3832344 59.2484535,17.9675144 59.2484535,16.6647142 C59.2484535,15.306646 58.0731755,14.7937882 56.8492461,14.7937882 C56.4948919,14.7937882 56.2534986,14.8215153 56.1086626,14.8771555 C55.9474231,14.9186531 55.8833,14.9878777 55.8833,15.2372353 L55.8833,18.0503234 Z M54.5628133,16.2074967 C54.5628133,15.1819672 54.4983175,14.9186531 53.7739511,14.863385 L53.2583574,14.8133274 C53.1998265,14.7604785 53.1685106,14.4828356 53.2743881,14.4750199 C54.1441497,14.4100753 55.238901,14.3644838 56.7366581,14.3644838 C57.7510692,14.3644838 58.7168289,14.4337085 59.4417545,14.7521046 C60.1342458,15.0433319 60.6653111,15.5976872 60.6653111,16.4847674 C60.6653111,17.4821976 59.9888506,17.9952415 59.0230909,18.3832344 C59.0230909,18.5218697 59.1515233,18.5633673 59.3287936,18.5910944 C60.1985552,18.7295436 61.486794,19.4227204 61.486794,20.9050953 C61.486794,22.512521 60.1018115,23.5935047 57.203414,23.5935047 C56.7366581,23.5935047 55.9474231,23.5520071 55.2713353,23.5520071 C54.5628133,23.5520071 54.0153444,23.5795481 53.4195969,23.5935047 C53.3228532,23.5520071 53.2904189,23.3303766 53.3871626,23.2473815 L53.677021,23.2056978 C54.5307518,23.0810191 54.5628133,22.9284271 54.5628133,21.4735933 L54.5628133,16.2074967 Z" id="Fill-20"></path>
                                        <path d="M22.7630735,5.87705981 C22.486077,5.87705981 21.9322704,5.97996633 21.9322704,5.61281524 L21.9322704,2.98097652 C21.9322704,1.95209747 21.9650775,1.80490208 23.2028008,1.80490208 C24.6522792,1.80490208 25.5481374,2.53976252 25.5481374,3.89224812 C25.5481374,4.48047142 25.3363823,5.02440585 24.7989792,5.39192911 C24.1801176,5.81844218 23.5120453,5.87705981 22.7630735,5.87705981 M28.3231354,10.3855933 L27.9415661,10.3526557 C27.8643948,10.3444679 27.7959845,10.3347913 27.7307431,10.3239982 C27.1726492,10.2253717 26.9491507,9.72926185 26.6863209,9.26888082 L25.3673254,6.97534958 C25.1393531,6.59312539 24.8951638,6.07859282 24.3737915,6.00527426 C25.7255941,5.84337794 26.9472866,5.06441471 26.9472866,3.72663004 C26.9472866,2.18266017 25.4159768,1.49190253 23.8688227,1.49190253 C22.9403438,1.49190253 22.0942556,1.51702437 21.1495595,1.51702437 C20.6285601,1.51702437 20.00858,1.49190253 19.4875805,1.49190253 C19.1980949,1.49190253 19.1943668,1.55070625 19.1943668,1.71241648 C19.1943668,1.95098095 19.2952115,1.88417545 19.6018462,1.90148161 C20.7023761,1.96326274 20.6602488,2.16814533 20.6602488,3.10900487 L20.6602488,9.1220576 C20.6602488,9.98252725 20.7348104,10.2395144 19.8298184,10.3204626 C19.8298184,10.3204626 19.6911338,10.3347913 19.6124713,10.3431653 L19.229038,10.3824298 C19.1373272,10.4644945 19.1682703,10.684078 19.2596083,10.7252034 C19.4635344,10.7177599 19.8249719,10.7036172 19.8249719,10.7036172 C20.3260262,10.6887302 20.826894,10.6505822 21.3279483,10.6505822 C21.8317986,10.6505822 22.3138396,10.6892884 22.8093018,10.7038033 L22.8093018,10.7041755 C22.9850808,10.7097581 23.1709257,10.715899 23.3742926,10.7231564 C23.4660034,10.682031 23.4967601,10.4626336 23.4048629,10.3803828 L23.0190064,10.3439096 C22.9403438,10.3355357 22.8050145,10.32344 22.8050145,10.32344 C21.8910751,10.2616588 21.9471827,10.0042995 21.9471827,9.1220576 L21.9471827,6.85792822 C21.9471827,6.72561985 21.9304064,6.37298361 22.0284549,6.26989101 C22.1099135,6.18131325 22.2562408,6.19620027 22.3865372,6.19620027 C23.6248197,6.19620027 23.6080434,6.3139938 24.1946571,7.34305893 L25.7906491,10.2097404 C25.9209456,10.4304404 26.0186213,10.709572 26.3448285,10.709572 L27.7311159,10.709572 C27.905963,10.7151546 28.0897574,10.7209233 28.2925651,10.7283669 C28.3839031,10.6872415 28.4144734,10.467658 28.3231354,10.3855933" id="Fill-22"></path>
                                        <path d="M23.0619912,16.5684696 C23.0619912,15.1279646 23.0317937,14.9080089 22.0796415,14.8395286 L21.7014276,14.8121737 C21.6108352,14.7572778 21.6410326,14.5105255 21.731625,14.4690279 C22.5784589,14.4965689 23.0921886,14.5101533 23.6968836,14.5101533 C24.2866662,14.5101533 24.8003959,14.4965689 25.5566374,14.4695862 C25.6472298,14.5105255 25.6774272,14.7572778 25.5868348,14.8121737 L25.223906,14.8395286 C24.3321488,14.9080089 24.3015785,15.1279646 24.3015785,16.5684696 L24.3015785,21.3432946 C24.3015785,22.2076721 24.3472475,22.5644023 24.6192111,22.8249251 C24.7854836,22.9756562 25.0727323,23.1405299 26.266837,23.1405299 C27.5520934,23.1405299 27.8695396,23.0854479 28.1116785,22.9622579 C28.4138396,22.7973841 28.8069659,22.3036934 29.1091269,21.6038175 C29.2002785,21.5355233 29.4871545,21.5898609 29.4871545,21.6860682 C29.4871545,21.8371715 29.0636443,23.2367373 28.8520757,23.6068658 C28.0814811,23.5795109 26.6448646,23.5657404 25.0876446,23.5657404 L23.6968836,23.5657404 C23.0619912,23.5657404 22.5784589,23.5795109 21.731625,23.6068658 C21.6410326,23.5657404 21.6108352,23.3461568 21.7014276,23.2639061 L22.1551352,23.2229668 C23.0317937,23.1405299 23.0619912,22.9483013 23.0619912,21.5079823 L23.0619912,16.5684696 Z" id="Fill-24"></path>
                                        <path d="M63.5608194,16.5957315 C63.5608194,15.141642 63.5313675,14.9081019 62.6558274,14.8394355 L62.284324,14.8122667 C62.1955957,14.7571848 62.2250475,14.5106185 62.3145215,14.4689349 C63.0562234,14.4966619 63.5608194,14.5102463 64.1845275,14.5102463 C64.7782246,14.5102463 65.2828205,14.4966619 66.0252681,14.4694931 C66.1139965,14.5106185 66.1438211,14.7571848 66.05472,14.8122667 L65.683403,14.8394355 C64.8076765,14.9081019 64.7782246,15.141642 64.7782246,16.5957315 L64.7782246,21.4805343 C64.7782246,22.9348099 64.8076765,23.1268525 65.683403,23.2228737 L66.05472,23.2639991 C66.1438211,23.318895 66.1139965,23.5656473 66.0252681,23.6069588 C65.2828205,23.5794178 64.7782246,23.5656473 64.1845275,23.5656473 C63.5608194,23.5656473 63.0562234,23.5794178 62.3145215,23.6069588 C62.2250475,23.5656473 62.1955957,23.3460638 62.284324,23.2639991 L62.6558274,23.2228737 C63.5313675,23.1268525 63.5608194,22.9348099 63.5608194,21.4805343 L63.5608194,16.5957315 Z" id="Fill-26"></path>
                                        <path d="M51.7001308,23.2196544 C51.624078,23.2114665 51.4816652,23.2003013 51.4816652,23.2003013 C51.3254586,23.1846699 51.1849099,23.1621533 51.0739994,23.0411963 C50.8812576,22.836872 50.8972883,22.2547895 50.8972883,22.0218077 L50.8972883,16.0098715 C50.8972883,15.7476739 50.8333517,15.1801063 51.0259072,14.9759681 C51.1222781,14.8685955 51.3226625,14.850545 51.5010512,14.8404962 L51.5010512,14.8397519 C51.6095384,14.831564 51.6119617,14.8311918 51.7070278,14.8265397 L52.088597,14.7993708 C52.179935,14.7442889 52.1493647,14.4975366 52.0580267,14.4562251 C51.8541006,14.4632964 51.6688149,14.4606912 51.4926631,14.4660877 L51.4926631,14.4668321 L49.8709473,14.4668321 C49.6944226,14.4668321 49.5339287,14.4668321 49.4377441,14.6560833 L46.1335449,21.5270004 L43.2148293,14.8890651 C43.118272,14.6560833 43.102614,14.4668321 42.7974705,14.4668321 L41.1097677,14.4668321 C40.9338022,14.4614355 40.7397555,14.4632964 40.5358294,14.4562251 C40.4444914,14.4975366 40.4135483,14.7442889 40.5052591,14.7993708 L40.8868284,14.8265397 C40.9654909,14.8328666 41.1079036,14.8425432 41.1079036,14.8425432 C41.740932,14.8831103 41.7802633,15.0243509 41.7228508,15.6896145 L41.2255246,22.1381125 C41.1820925,22.7856978 41.1464893,23.1279132 40.4670463,23.1909969 C40.4670463,23.1909969 40.3237015,23.2088613 40.2446662,23.2172353 L39.8634698,23.2585467 C39.771759,23.3404253 39.8023292,23.5600089 39.8940401,23.6011342 C40.0949837,23.5936907 40.4525068,23.5832698 40.4525068,23.5832698 C40.7969816,23.5663358 41.1476077,23.5358175 41.4984202,23.5358175 C41.8768206,23.5358175 42.2557801,23.5715463 42.6347397,23.5866194 L42.6347397,23.5873638 C42.8103324,23.5927603 42.9959909,23.5989012 43.1997306,23.6059725 C43.2916278,23.5648471 43.3221981,23.3454497 43.2303008,23.2631989 L42.8492908,23.2220735 C42.748819,23.2142579 42.6362309,23.2030926 42.6362309,23.2030926 C41.6557453,23.136101 41.6775546,22.4451573 41.7388815,21.5999468 L42.2041462,15.6025255 L42.3165479,15.6025255 L45.476284,22.9827647 C45.5079727,23.0845547 45.5560649,23.2592911 45.7165589,23.2592911 C45.8612085,23.2592911 45.9093007,23.0994417 45.9572066,22.9970935 L49.5178979,15.4272308 L49.6302996,15.4272308 L49.6302996,22.0218077 C49.6302996,22.2838192 49.6623611,22.8225432 49.3896519,23.0261232 C49.2474255,23.1320071 48.7838385,23.1956491 48.7838385,23.1956491 C48.7202747,23.2056978 48.6531692,23.2150022 48.5771164,23.223004 L48.1959199,23.2639433 C48.1042091,23.3461941 48.1347794,23.5655915 48.2264902,23.606903 C48.4274339,23.5996455 48.7838385,23.5884803 48.7838385,23.5884803 C49.3009235,23.5741515 49.8262103,23.5358175 50.3520563,23.5358175 C50.7298974,23.5358175 51.4701082,23.5717324 51.4701082,23.5717324 C51.64626,23.5771289 51.8472037,23.596296 52.0511298,23.6035534 C52.1428406,23.562428 52.1734109,23.3430306 52.0817,23.2609659 L51.7001308,23.2196544 Z" id="Fill-28"></path>
                                        <path d="M72.4805543,19.8608082 L70.6959214,19.8608082 C70.6336624,19.8608082 70.1370818,19.9190536 70.1370818,19.7737191 C70.1370818,19.7299885 70.1680249,19.6427133 70.1836829,19.5993549 L71.2547609,16.9516987 C71.285704,16.8789384 71.3941912,16.5151369 71.5183363,16.5151369 C71.6115384,16.5151369 71.7356835,16.8934533 71.7666266,16.9516987 L72.8220466,19.4244324 C72.8220466,19.4536482 72.9305338,19.686444 72.9305338,19.7446894 C72.9305338,19.9047249 72.5737564,19.8608082 72.4805543,19.8608082 M76.4871243,23.2569092 L76.4358631,23.2157838 C76.3598103,23.207782 76.2919592,23.1986637 76.228209,23.1880567 C75.6337663,23.0555623 75.4022524,22.3409854 75.1826683,21.8318494 L72.1241497,14.6053186 C72.0935794,14.5186017 72.0331845,14.3315835 71.9118354,14.3315835 C71.7451901,14.3315835 71.7000803,14.5331165 71.6544113,14.6479327 L68.7325269,21.860693 C68.6260901,22.1342419 68.3537537,22.7969003 68.156911,22.9978751 C68.00611,23.1521418 67.8094537,23.1817297 67.6001219,23.2033159 C67.6001219,23.2033159 67.4353407,23.2189473 67.3566781,23.2275073 L66.997291,23.2639805 C66.905953,23.3460452 66.9365232,23.5656287 67.0278613,23.6069402 C67.2317874,23.5996828 67.5932249,23.5864705 67.5932249,23.5864705 C67.9930618,23.581074 68.3927122,23.5306442 68.7929218,23.5306442 C69.1295676,23.5306442 69.466027,23.5663731 69.8021136,23.5812601 C69.8021136,23.5812601 70.1635512,23.5941001 70.3674773,23.6019158 C70.4588153,23.5604183 70.4893856,23.3408347 70.3980476,23.25877 L70.0164784,23.2174586 C69.9407983,23.2096429 69.8097562,23.1973611 69.8097562,23.1973611 C69.4580117,23.1584688 69.0201484,23.0957572 69.0201484,22.7098113 C69.0201484,22.4507771 69.1413111,22.1483846 69.2319035,21.918008 L69.6859839,20.8386992 C69.9135833,20.3206309 69.8224317,20.2625716 70.4278722,20.2625716 L72.4874513,20.2625716 C73.2142409,20.2625716 73.1078042,20.2625716 73.4263688,20.9972459 L73.9106467,22.0906974 C73.9863267,22.2782738 74.1225881,22.594809 74.1225881,22.7969003 C74.1225881,23.1584688 73.7268522,23.182288 73.3572129,23.2135507 C73.3572129,23.2135507 73.2345589,23.2237856 73.1283086,23.2319734 L72.7612789,23.258584 C72.6699409,23.3406486 72.7005112,23.5602322 72.792222,23.6015436 C72.9957753,23.5941001 73.3572129,23.5793992 73.3572129,23.5793992 C73.7879928,23.5637678 74.2215687,23.5306442 74.6372499,23.5306442 C75.167756,23.5306442 75.6982621,23.5665591 76.228209,23.5816323 L76.228209,23.581074 C76.4023104,23.5864705 76.2552376,23.5926114 76.456554,23.5998689 C76.547892,23.5585574 76.5784623,23.3389739 76.4871243,23.2569092" id="Fill-30"></path>
                                    </g>
                                    <path d="M50.1319658,20.46965 L49.8572745,17.7844971 C44.8659091,6.17522721 36.8081285,0.370592255 25.6839328,0.370592255 C8.99763906,0.370592255 0.819158691,15.6351839 0.819158691,20.8396854 C0.819158691,24.3093531 10.0491961,26.3051963 28.5092709,26.8272151 L50.1319658,20.46965 Z" id="Path-2" fill="#FFFFFF"></path>
                                    <path d="M0.425057294,30.3751927 C0.425057294,30.3751927 4.21372085,29.6198626 7.37625299,29.6198626 C15.7088896,29.6198626 27.2355606,34.3038768 35.5991402,34.3038768 C41.7344451,34.3038768 47.7183899,32.6236907 50.9795298,30.1740319 C51.2343442,28.7247807 51.3678096,27.234218 51.3678096,25.7120204 C51.3678096,23.6505405 51.1226882,21.6465618 50.66227,19.7255782 L47.1755811,17.7844971 L43.0845701,20.6485733 L40.3324998,19.578755 C39.4008521,20.0488126 33.6528949,23.8861276 33.6528949,23.8861276 L31.4468022,22.291914 L29.0798428,21.8239034 L25.9236484,19.53 L22.3033078,22.0112938 C22.3033078,22.0112938 18.2641171,24.3526495 18.1254325,24.3526495 C17.9860022,24.3526495 13.2520834,20.6061453 13.2520834,20.6061453 L11.0709689,18.3122419 C10.6994655,18.5463403 9.21587517,19.2259327 9.21587517,19.2259327 L9.13963588,19.2460301 L7.70395142,18.8027692 L5.96051377,17.8795879 L0.664772981,20.27677 C0.632897878,20.2924014 0.6021412,20.3069163 0.570266097,20.3223615 C0.197644279,22.0602348 5.59212332e-05,23.8630527 5.59212332e-05,25.7120204 C5.59212332e-05,27.3045591 0.146569552,28.8630439 0.425057294,30.3751927" id="Fill-38" fill="#5C668C"></path>
                                    <g id="Group-37" transform="translate(0.559212, 0.000000)" fill="#F3B229">
                                        <path d="M4.14531054,18.0668666 L0.6021412,20.0496314 L0.413313835,20.1376509 L0.105560648,20.2768445 C0.0736855451,20.2924759 0.0429288667,20.3068046 0.0110537638,20.3222499 C2.49134686,8.75001241 12.7922244,0.0719973416 25.1247204,0.0719973416 C37.2443429,0.0719973416 47.4018757,8.45283031 50.1030577,19.7256526 L49.4299524,19.350872 L47.3288053,17.7503314 L48.7829438,17.2395206 L48.6507833,16.9175888 L46.9699774,17.4769685 L46.7144174,17.2821347 L45.9445684,17.8186256 L40.8367229,19.518537 L40.6933782,19.459175 L48.358688,16.2043146 L48.221681,15.8661932 L39.9749767,19.196047 L39.8195157,19.1418954 L47.9239936,15.1994409 L47.7644317,14.8719265 L39.0634606,18.9143101 L47.4290907,14.1778192 L47.2775442,13.8642614 L36.7977187,19.5605928 C36.6961284,19.3715277 36.5182989,19.058156 36.4081341,18.8746735 C40.4286843,15.1082579 44.2909775,12.2877262 44.2909775,12.2877262 C44.2909775,12.2877262 40.3160962,14.9450589 35.3972646,17.4280275 C35.2494461,17.2456615 35.0988316,17.0660868 34.9424385,16.8920948 L34.9372192,16.8866983 L43.895428,9.00606912 L43.6519842,8.75708374 L36.332454,14.9845095 L43.1136491,8.20496145 L42.8595803,7.94257776 L35.2460908,15.2880186 L42.3333615,7.43567479 L42.0628892,7.19152769 L35.5120895,14.1936367 L41.4913742,6.67345946 L41.2330181,6.43954719 L33.6596054,15.6486566 C33.4635083,15.4813638 33.2614463,15.320584 33.0549105,15.1650146 C35.3663215,10.1813992 37.8805401,6.13547984 37.8805401,6.13547984 C37.8805401,6.13547984 35.2015403,10.0721657 31.5817588,14.2057324 C31.3681397,14.0873806 31.1522837,13.9729366 30.9317677,13.8657501 L30.9226339,13.8620284 L36.2742959,3.20013203 L35.9551721,3.06000798 L31.5053331,11.5714745 L35.2490733,2.74942756 L34.9148507,2.60130173 L30.6120846,12.2590687 L34.236899,2.32793886 L33.8942882,2.2028879 L30.448049,11.1449615 L33.1699218,1.93641028 L32.8427826,1.81601152 L29.2727711,13.1976952 C29.032869,13.1191661 28.7894252,13.0478946 28.5433718,12.9829499 C28.8173859,7.50713248 29.6278709,2.82851484 29.6278709,2.82851484 C29.6278709,2.82851484 28.6229664,7.47252016 26.820625,12.6539468 C26.5751308,12.624545 26.3277725,12.5996092 26.0783638,12.5839778 L26.0625195,12.5839778 L26.0651292,12.5802561 L26.0599098,12.5802561 L26.077991,12.5540177 L27.0424459,0.624677891 L26.6940566,0.613884803 L25.7622225,10.1696757 L25.9227164,0.590251661 L25.5573644,0.577783784 L25.1920123,11.1414258 L24.8262874,0.577969872 L24.461681,0.590251661 L24.6218021,10.1696757 L23.6901544,0.613698715 L23.3415787,0.624677891 L24.3060336,12.5540177 L24.3239284,12.5802561 L24.2926125,12.5802561 L24.3006278,12.5921657 C24.045627,12.6092858 23.7926766,12.6355241 23.5414039,12.6664147 C21.7366393,7.47996367 20.7300571,2.82851484 20.7300571,2.82851484 C20.7300571,2.82851484 21.5429654,7.52127514 21.8156746,13.0071413 C21.5720445,13.0733886 21.3297191,13.1437297 21.0914947,13.2235614 L21.0825473,13.227097 L21.0894442,13.1969508 L17.5067572,1.77563048 L17.1799908,1.89584315 L19.9014908,11.1043943 L16.4556244,2.16232078 L16.1126409,2.28718564 L19.7372688,12.2185016 L15.4345027,2.56092069 L15.1006529,2.70886043 L18.8442067,11.5307213 L14.3945542,3.01944085 L14.0752439,3.15956491 L19.4459192,13.8597953 L19.4845048,13.8847311 C19.2544822,13.9973141 19.029306,14.1169685 18.8072987,14.2418334 C15.1718593,10.0950545 12.4773879,6.13547984 12.4773879,6.13547984 C12.4773879,6.13547984 15.0089421,10.2093124 17.3270636,15.2173053 C17.1197823,15.375852 16.9551874,15.5042525 16.7570399,15.674895 L9.09359407,6.36455383 L8.83616999,6.59828002 L14.814709,14.1184572 L8.26446858,7.11634825 L7.99343701,7.36030926 L15.0805213,15.2130253 L7.4670318,7.8675844 L7.2131494,8.1299681 L13.9943445,14.9093301 L6.67481433,8.68153212 L6.43137056,8.93107576 L15.5003034,16.9015853 C15.3256427,17.0949304 15.1914317,17.2585016 15.0279553,17.4622676 C10.0778078,14.9692503 6.06695052,12.2877262 6.06695052,12.2877262 C6.06695052,12.2877262 9.96708373,15.1359849 14.0086977,18.9295693 C13.9151228,19.0869996 13.7328196,19.3797156 13.6457689,19.5403093 L3.01532882,13.765821 L2.86415509,14.0788206 L10.2256262,18.2471856 L10.1206807,18.3004067 L2.52844128,14.7729278 L2.36869296,15.1004422 L9.53313496,18.5858653 L9.29491051,18.6844918 L2.07100559,15.7677528 L1.93418498,16.1056881 L5.17071955,17.480132 L5.01451291,17.5778281 L4.62287787,17.7994586 L4.61001599,17.806716 L1.64190333,16.8187763 L1.50974282,17.1410802 L4.14531054,18.0668666 Z M41.5064915,19.7958077 L44.7327739,18.6625335 L42.5091593,20.2107833 L41.5064915,19.7958077 Z" id="Fill-36"></path>
                                    </g>
                                </g>
                            </g>
                        </g>
                    </g>
                </g>
            </g>
        </g>
    </g>
</svg>